<svg xmlns="http://www.w3.org/2000/svg" xmlns:xlink="http://www.w3.org/1999/xlink" width="44px" height="60px" viewBox="0 0 44 60"><title>Group 9</title><g id="Design" stroke="none" stroke-width="1" fill="none" fill-rule="evenodd"><g id="05-Sunset-Difference" transform="translate(-777.000000, -5610.000000)" stroke="#FEFEFE"><g id="Plastic" transform="translate(-98.000000, 4616.000000)"><g id="Less-Plastic" transform="translate(0.000000, 0.007854)"><g id="Group-9" transform="translate(876.000000, 995.992146)"><path d="M30.9396915,2.91370127 C32.4502678,3.70904304 33.8497932,4.68443544 35.1097932,5.81152405" id="Stroke-1" stroke-width="1.5"></path><path d="M36.1525322,6.81101772 C39.7673797,10.5268658 41.9926678,15.5916759 41.9926678,21.1739544 C41.9926678,34.4105114 26.4946678,55.3793215 21.2631763,55.3793215 C16.8268373,55.3793215 0.533684746,34.4105114 0.533684746,21.1739544 C0.533684746,9.77334684 9.81497288,0.531929114 21.2631763,0.531929114 C23.5439898,0.531929114 25.7393797,0.898410127 27.7916847,1.57608101" id="Stroke-3" stroke-width="1.5"></path><path d="M35.2550136,14.4721722 C36.8624034,17.5954127 37.4254881,21.2751089 36.5983017,24.9682734 C34.7161322,33.3718177 26.348878,38.664881 17.9090136,36.7899443 C9.46986102,34.9164253 4.15508136,26.5844759 6.03725085,18.1802228 C6.90714915,14.2963747 9.16233559,11.0760203 12.1706746,8.92179241" id="Stroke-5" stroke-width="1.509"></path><path d="M32.3554475,1.91271899 C32.3604305,1.87940253 32.3597186,1.84466835 32.3540237,1.81064304 C32.2878203,1.42927595 30.9594814,1.03940253 30.5829051,0.863605063 C26.5402271,0.16963038 25.1584983,6.79606076 25.1584983,6.79606076 C22.7346,5.22947848 19.9248712,4.13216203 17.0510746,3.83231392 C17.5102271,4.82826329 18.3103627,5.66471899 19.2870407,6.16871899 C16.885922,6.98036456 13.0703288,7.32770633 10.7831085,8.4193519 C13.0475492,9.27636456 16.8923288,10.4339342 19.3041254,10.6579342 C18.8108034,11.9806684 18.3174814,13.3034025 17.8241593,14.6268456 C20.2587356,13.6734278 22.6933119,12.7200101 25.1278881,11.7665924 C26.2647356,14.0923646 27.7653458,16.2409215 29.5592441,18.1116051 C29.9906339,16.416719 30.1828373,14.6608709 30.1294475,12.914238 C31.8421932,13.5876557 33.8838203,13.6004152 35.3538203,14.706238 C35.7745322,13.8130734 34.7110068,10.1617316 32.4380237,8.92193418 C34.7423288,8.52497215 36.0450407,7.09590886 38.1400576,6.06238987 C37.3484644,5.28476962 29.3663288,6.26937722 28.7000237,6.64861772 C28.9520237,5.67747848 29.3214814,4.89631392 29.942939,4.09246582 C30.2689729,3.67069367 30.6683288,3.29145316 31.0698203,2.94340253 C31.3396169,2.71018734 32.2928034,2.35859241 32.3554475,1.91271899 Z" id="Stroke-7" stroke-width="1.509"></path></g></g></g></g></g></svg>