<?xml version="1.0" encoding="utf-8"?>
<!-- Generator: Adobe Illustrator 22.1.0, SVG Export Plug-In . SVG Version: 6.00 Build 0)  -->
<svg version="1.1" id="Layer_1" xmlns="http://www.w3.org/2000/svg" xmlns:xlink="http://www.w3.org/1999/xlink" x="0px" y="0px"
	 viewBox="0 0 1200 1200" style="enable-background:new 0 0 1200 1200;" xml:space="preserve">
<style type="text/css">
	.st0{fill:#1D4387;}
	.st1{fill:#FFFFFF;}
	.st2{fill:#3CAE49;}
</style>
<g>
	<g>
		<g>
			<circle class="st0" cx="600" cy="600" r="600"/>
		</g>
	</g>
	<g>
		<g>
			<path class="st1" d="M558.8,346.3V469c0,33.7,14.8,64.1,55.4,64.1c43.7,0,63.1-44.2,63.1-95.9v-35.8c0-27.1-2.8-33.4-11.3-37.8
				c-2.5-1-5.6-1.8-5.6-4c0-0.7,0.7-1.1,3.2-1.8l39.9-11.4V469c0,17.6,1.1,51.7,12.3,61.9c2.5,2.6,3.9,3.3,3.9,4.4
				c0,1.1-1.7,1.5-5.7,1.5h-25.7l-10.6-38.1c-18.7,30.7-37.7,43.6-75.4,43.6c-45.2,0-71.6-28.2-71.6-68.5V391
				c0-21.2-3.1-25.7-10.2-27.2c-4.3-1-6.4-1.7-6.4-4c0-1,1.7-1.8,3.8-2.2L558.8,346.3z"/>
		</g>
		<g>
			<path class="st1" d="M828.8,377.4c-4.3-3.7-9.5-9.6-19-9.6c-29.6,0-39.2,37-39.2,94.9v22.4c0,27.1,3.2,44.3,17.3,46.2
				c3.9,0.4,6,1.7,6,4.3c0,1.8-1.1,1.8-2.8,1.8c-6,0-19.1-0.7-31.4-0.7c-12.3,0-25.4,0.7-31.4,0.7c-1.8,0-4.2-0.7-4.2-1.8
				c0-1.5,2.4-3.3,6-4.8c11.3-5.8,14.4-18.7,14.4-52.4V372.3c0-7.3-6-12-12-14.2c-2.8-0.7-5.3-2.2-5.3-3c0-0.7,2.1-1.5,4.6-2.2
				l36.6-10.2v51.2h0.7c15.9-35.9,36.6-53.1,71.6-53.1L828.8,377.4z"/>
		</g>
		<g>
			<path class="st1" d="M875.8,415.9c-1.1,5.5-2.1,12.1-2.1,17.9c0,53.9,19.4,97.8,75.1,97.8c53.2,0,78.7-53.2,80.8-65.2
				c0.3-2.2,1.8-5.2,4.6-5.2c2.1,0,2.8,1.4,2.8,3.2c0,2.9-0.7,6.3-1.7,9.2c-13.1,43.3-52.9,68.5-100.1,68.5
				c-54.6,0-95.2-47.6-95.2-103.3c0-48,37.7-98.2,99.4-98.2c45.9,0,89.9,25.6,94.2,75.1H875.8z M999.6,406.7
				c0-35.4-25.1-56.8-58.2-56.8c-37.4,0-57.1,21.3-64.8,56.8H999.6z"/>
		</g>
		<g>
			<g>
				<path class="st1" d="M338.4,505.2h0.7c9.5,16.9,40.5,35.9,72,37.1c59.9,0,100.5-46.6,100.5-103.3c0-55.3-44.5-98.2-97.3-98.2
					c-39.9,0.4-63.8,20.9-77.6,53.1h-1.1v-47.6c-9.6,4-21.9,8.1-35.3,10.6c-2.8,0.4-3.9,1.1-3.9,2.2c0,1.1,1.4,1.5,3.5,1.9
					c4.9,0.7,12.3,4.3,12.3,30.4v176.9c0,7.6-0.2,14.9-0.6,21.6c8.7-3.1,17.6-5.7,26.7-7.7V505.2z M409.6,349.9
					c47.3,0,68.1,40.3,68.1,87.9c0,50.6-15.9,95.2-68.1,95.2c-54.3,0-71.2-43.1-71.2-95.2C338.4,393.9,358.5,349.9,409.6,349.9z"/>
			</g>
		</g>
		<g>
			<g>
				<path class="st1" d="M610.5,812.8c0.2,0,0.3,0,0.4,0C610.8,812.8,610.6,812.8,610.5,812.8L610.5,812.8z"/>
			</g>
			<g>
				<path class="st1" d="M116.8,602.9H143v-17.6c0-46.2,40.9-62.6,79.6-68.5l-9.5,30.8c-5-6.6-12.4-13.5-24-13.5
					c-10.6,0-20.1,9.8-20.1,24.2v44.7h32.5L199,612h-30v87.9c0,39.9,3.9,67,13.8,75.5c3.2,2.9,8.5,4.3,8.5,6.2
					c0,1.1-1.5,1.5-3.5,1.5c-2.1,0-9.5-0.7-31.7-0.7c-10.3,0-20.1,0.7-25.1,0.7c-2.8,0-3.8-0.4-3.8-1.1c0-1.1,2.5-1.9,4.9-4
					c9.2-7.7,11-20.2,11-32.2V612h-28.6L116.8,602.9z"/>
			</g>
			<g>
				<path class="st1" d="M267.5,729.3c0,21.2,1.8,42.8,13.1,47.6c3.5,1.4,7.4,2.9,7.4,4.7c0,1.1-4.2,1.5-6,1.5
					c-4.3,0-17.3-0.7-27.5-0.7c-10.2,0-23.3,0.7-29.3,0.7c-6.3,0-7.7-0.4-7.7-1.5c0-1.9,4.5-3.3,9.5-5.5
					c12.7-5.9,14.4-37.8,14.4-75.9V570.2c0-27.4-2.8-35.5-12.3-39.2c-2.5-0.7-3.5-1.4-3.5-2.2c0-1.1,1.7-1.8,3.1-2.2l38.8-9.8V729.3
					z"/>
			</g>
			<g>
				<path class="st1" d="M465.7,727.4c0,23.1,2.9,46.9,12.4,50.3c1.8,0.7,2.8,1.7,2.8,2.9c0,1.5-1.4,2.6-3.2,2.6
					c-1.4,0-9.9-0.7-13.8-0.7c-4.6,0-9.2,0.7-13,0.7c-2.8,0-4.2-1.8-4.2-3c0-9.1-5-24.1-6-34.4h-0.7c-15.2,31.5-42,42.1-74.4,42.1
					c-34.2,0-75.1-18.7-75.1-58.6c0-56.1,80.4-64.5,120.3-64.5h26.8c0-42.9-11.6-69.3-56.4-69.3c-24.7,0-64.5,13.9-67.7,42.9
					c0,1.1-0.7,1.5-1.8,1.5c-0.7,0-1,0-1.4-1.1l-9.5-34.8c27.5-12.4,56.4-17.6,79.4-17.6c64.2,0,85.6,29,85.6,71.5V727.4z
					 M411.4,673.9c-37.4,0-87.1,7.3-87.1,56.1c0,32.2,24,48.6,52.6,48.6c52.9,0,60.7-43.9,60.7-88.6v-16.1H411.4z"/>
			</g>
			<g>
				<path class="st1" d="M818.9,586.4c53.2,0,104.4,40.3,104.4,100.8c0,60.4-51.2,100.7-104.4,100.7c-53.3,0-104.4-40.3-104.4-100.7
					C714.5,626.6,765.6,586.4,818.9,586.4z M818.9,778.6c52.2,0,70.8-41.7,70.5-91.5c0.4-49.9-18.3-91.6-70.5-91.6
					c-52.3,0-70.9,41.7-70.6,91.6C747.9,736.9,766.6,778.6,818.9,778.6z"/>
			</g>
			<g>
				<path class="st1" d="M1027.8,623c-4.2-3.7-9.5-9.6-19.1-9.6c-29.6,0-39.1,37-39.1,94.9v22.4c0,27.1,3.2,44.3,17.3,46.2
					c3.9,0.4,6,1.7,6,4.3c0,1.8-1.1,1.8-2.8,1.8c-6,0-19.1-0.7-31.4-0.7c-12.4,0-25.4,0.7-31.4,0.7c-1.8,0-4.2-0.7-4.2-1.8
					c0-1.5,2.5-3.3,6-4.8c11.3-5.8,14.5-18.7,14.5-52.4V617.9c0-7.3-6-12-12-14.2c-2.8-0.7-5.2-2.2-5.2-3c0-0.7,2.1-1.5,4.5-2.2
					l36.7-10.2v51.2h0.7c15.9-35.9,36.7-53.1,71.6-53.1L1027.8,623z"/>
			</g>
			<g>
				<path class="st2" d="M621.5,794.4c12.3-47.9,53.7-82.7,71.5-118.6c29.9-60.3-21.4-111.3-21.4-111.3c3,31,3.6,57.5-35.9,100.3
					c-34.5,31.5-28.6,52.6-28.6,52.6s7.3-21.8,36.4-46.9c40.4-34.8,39.6-54.6,39.6-54.6c21,35.4-28.1,91.9-28.1,91.9
					c-39.9,57.3-45.2,91.5-45.3,104.9c0.1,0,0.5-0.1,1.1-0.3l-0.1,0.4c0.2,0,0.3,0,0.4,0c94.4,3.2,201.1,22.3,254,50.1
					C826.5,828.2,721,800.6,621.5,794.4z"/>
				<path class="st2" d="M322.8,863c52.8-27.8,159.6-46.9,253.9-50.1c0.2,0,0.3,0,0.5,0l-11.5-15.9
					C464.6,802.5,361.9,827.5,322.8,863z"/>
				<path class="st2" d="M505.6,526.9c-55.8,67.9-8.5,143.5,9.7,170.7c9.7,14.6,44.3,66.5,64,94.4c11.1,15.8,13.9,16.9,13.9,16.9
					s-19.1-43.2-65.4-117.3c-48-76.8-25.2-110.2-25.2-110.2s9.6,25,33.8,46.6c52,46.6,60.2,115.5,60.2,115.5
					c6-36.3-7-83.4-56.2-136.8C505.5,568.9,505.6,526.9,505.6,526.9z"/>
			</g>
			<g>
				<g>
					<path class="st1" d="M1086.7,568.9c0,9.4-7.5,16.8-17.1,16.8c-9.6,0-17.2-7.4-17.2-16.8c0-9.4,7.6-16.7,17.3-16.7
						C1079.2,552.2,1086.7,559.5,1086.7,568.9z M1056.7,568.9c0,7.4,5.6,13.3,13,13.3c7.2,0.1,12.7-5.9,12.7-13.2
						c0-7.4-5.5-13.4-12.9-13.4C1062.3,555.6,1056.7,561.6,1056.7,568.9z M1066.9,577.6h-3.9v-16.7c1.5-0.2,3.7-0.5,6.4-0.5
						c3.2,0,4.6,0.5,5.7,1.3c1,0.7,1.7,1.9,1.7,3.6c0,2-1.5,3.4-3.5,4v0.2c1.6,0.5,2.4,1.8,3,4.1c0.5,2.5,0.9,3.5,1.2,4.1h-4.1
						c-0.5-0.6-0.8-2-1.3-4.1c-0.3-1.7-1.3-2.5-3.5-2.5h-1.8V577.6z M1067,568.2h1.8c2.1,0,3.9-0.7,3.9-2.4c0-1.5-1.1-2.5-3.6-2.5
						c-1,0-1.7,0.1-2.1,0.2V568.2z"/>
				</g>
			</g>
		</g>
	</g>
</g>
</svg>
