<svg xmlns="http://www.w3.org/2000/svg" width="470.077" height="470.072" viewBox="0 0 470.077 470.072">
  <g id="smartphone-support-contact-information-service" transform="translate(-20.507 115.876) rotate(-20)">
    <path id="Trazado_1227" data-name="Trazado 1227" d="M162.338,416a18.338,18.338,0,1,0,18.337,18.337h0A18.337,18.337,0,0,0,162.338,416Zm0,24.45a6.113,6.113,0,1,1,6.112-6.113A6.113,6.113,0,0,1,162.338,440.45Z" transform="translate(-30.2 -94.375)" fill="#dcdcdc"/>
    <path id="Trazado_1228" data-name="Trazado 1228" d="M382.75,205.488V83.238A18.393,18.393,0,0,0,364.413,64.9H248.275V46.563A30.563,30.563,0,0,0,217.713,16H46.563A30.563,30.563,0,0,0,16,46.563V352.188A30.563,30.563,0,0,0,46.563,382.75h171.15a30.3,30.3,0,0,0,27.629-17.6A85.471,85.471,0,1,0,341,223.825h23.411A18.393,18.393,0,0,0,382.75,205.488ZM217.713,370.525H46.563a18.393,18.393,0,0,1-18.338-18.337V46.563A18.393,18.393,0,0,1,46.563,28.225h171.15A18.393,18.393,0,0,1,236.05,46.563V64.9H223.825V46.563a6.113,6.113,0,0,0-6.113-6.112H46.563a6.113,6.113,0,0,0-6.112,6.112V303.288a6.113,6.113,0,0,0,6.112,6.112H212.578a84.684,84.684,0,0,0,7.4,24.45H211.6v12.225h12.225V341A84.033,84.033,0,0,0,235.5,356.344a18.154,18.154,0,0,1-17.787,14.181Zm-85.575-146.7h6.113v55.013a6.034,6.034,0,0,0,3.79,5.624,5.123,5.123,0,0,0,2.323.489,6.157,6.157,0,0,0,4.34-1.773l59.291-59.352H211.6v73.35H52.675V52.675H211.6V64.9H132.138A18.393,18.393,0,0,0,113.8,83.238v122.25A18.393,18.393,0,0,0,132.138,223.825Zm238.388,73.35a73.35,73.35,0,1,1-73.35-73.35A73.35,73.35,0,0,1,370.525,297.175Zm-146.7-43.827V223.825H236.05v13.57A84.345,84.345,0,0,0,223.825,253.348Zm24.45-26.284v-3.24h5.073C251.637,224.864,249.925,225.9,248.275,227.065ZM205.488,211.6a6.313,6.313,0,0,0-4.34,1.773l-50.673,50.734V217.713a6.113,6.113,0,0,0-6.113-6.113H132.138a6.113,6.113,0,0,1-6.113-6.113V83.238a6.113,6.113,0,0,1,6.113-6.113H364.413a6.113,6.113,0,0,1,6.113,6.113v122.25a6.113,6.113,0,0,1-6.113,6.113Z" fill="#dcdcdc"/>
    <path id="Trazado_1229" data-name="Trazado 1229" d="M48,432H60.225v12.225H48Z" transform="translate(-7.55 -98.15)" fill="#dcdcdc"/>
    <path id="Trazado_1230" data-name="Trazado 1230" d="M80,432H92.225v12.225H80Z" transform="translate(-15.1 -98.15)" fill="#dcdcdc"/>
    <path id="Trazado_1231" data-name="Trazado 1231" d="M112,432h12.225v12.225H112Z" transform="translate(-22.65 -98.15)" fill="#dcdcdc"/>
    <path id="Trazado_1232" data-name="Trazado 1232" d="M208,432h12.225v12.225H208Z" transform="translate(-45.3 -98.15)" fill="#dcdcdc"/>
    <path id="Trazado_1233" data-name="Trazado 1233" d="M240,432h12.225v12.225H240Z" transform="translate(-52.85 -98.15)" fill="#dcdcdc"/>
    <path id="Trazado_1234" data-name="Trazado 1234" d="M334.113,389.125H352.45v18.338a6.113,6.113,0,0,0,6.112,6.112h24.45a6.113,6.113,0,0,0,6.112-6.112V389.125h18.338a6.113,6.113,0,0,0,6.112-6.112v-24.45a6.113,6.113,0,0,0-6.112-6.112H389.125V334.113A6.113,6.113,0,0,0,383.013,328h-24.45a6.113,6.113,0,0,0-6.112,6.112V352.45H334.113A6.113,6.113,0,0,0,328,358.563v24.45A6.113,6.113,0,0,0,334.113,389.125Zm6.112-24.45h18.337a6.113,6.113,0,0,0,6.113-6.113V340.225H376.9v18.337a6.113,6.113,0,0,0,6.113,6.113H401.35V376.9H383.013a6.113,6.113,0,0,0-6.113,6.113V401.35H364.675V383.013a6.113,6.113,0,0,0-6.113-6.113H340.225Z" transform="translate(-73.613 -73.613)" fill="#dcdcdc"/>
    <path id="Trazado_1235" data-name="Trazado 1235" d="M192,128h24.45v12.225H192Z" transform="translate(-41.525 -26.425)" fill="#dcdcdc"/>
    <path id="Trazado_1236" data-name="Trazado 1236" d="M240,128H398.925v12.225H240Z" transform="translate(-52.85 -26.425)" fill="#dcdcdc"/>
    <path id="Trazado_1237" data-name="Trazado 1237" d="M192,176H387.6v12.225H192Z" transform="translate(-41.525 -37.75)" fill="#dcdcdc"/>
    <path id="Trazado_1238" data-name="Trazado 1238" d="M192,224H350.925v12.225H192Z" transform="translate(-41.525 -49.075)" fill="#dcdcdc"/>
    <path id="Trazado_1239" data-name="Trazado 1239" d="M416,224h24.45v12.225H416Z" transform="translate(-94.375 -49.075)" fill="#dcdcdc"/>
  </g>
</svg>
