<svg xmlns="http://www.w3.org/2000/svg" viewBox="0 0 532.26 232.47"><defs><style>.cls-1{fill:#fff;}</style></defs><title>Recurso 1comcom</title><g id="Capa_2" data-name="Capa 2"><g id="Capa_1-2" data-name="Capa 1"><path class="cls-1" d="M410.88,152.56c0-13.72,9.67-23.47,23.38-23.47s23.38,9.75,23.38,23.47-9.75,23.55-23.38,23.55S410.88,166.36,410.88,152.56Zm39.6,0c0-9.83-6.81-17-16.22-17s-16.22,7.17-16.22,17,6.73,17.08,16.22,17.08S450.48,162.48,450.48,152.56Z"/><path class="cls-1" d="M464.62,129.09h6.91v7.51h.86a14.11,14.11,0,0,1,12.68-7.51,15.85,15.85,0,0,1,14.24,8.46h.77a16.41,16.41,0,0,1,14.58-8.37c10.27,0,17.6,7.94,17.6,19.24v27.71H525.1v-27.8c0-7.42-4.74-12.77-11.3-12.77-7,0-11.91,5.35-11.91,12.77v27.8h-7.16v-27.8c0-7.68-4.48-12.77-11.21-12.77-7.08,0-11.74,5.09-11.74,12.77v27.79h-7.16Z"/><path class="cls-1" d="M381.41,169.64c-9.21,0-15.75-7.16-15.75-17.08s6.54-17,15.75-17c7.8,0,13.75,5.23,15.33,12.89h7.05c-1.7-11.51-10.51-19.36-22.38-19.36-13.32,0-22.7,9.75-22.7,23.47s9.38,23.55,22.7,23.55c12.15,0,21.1-8.22,22.49-20.23h-7C395.59,164,389.49,169.64,381.41,169.64Z"/><circle class="cls-1" cx="266.13" cy="13.56" r="13.56"/><path class="cls-1" d="M7.94,167.66H7.16v8.28H0V111H7.16v26.31h.78c3.19-5.26,9.06-8.2,16-8.2,12.69,0,22.43,9.84,22.43,23.47s-9.83,23.55-22.51,23.55C16.74,176.11,11.13,173,7.94,167.66Zm31.31-15.1c0-9.58-6.81-17-16.13-17S6.9,143,6.9,152.56s6.82,17.08,16.22,17.08S39.25,162.31,39.25,152.56Z"/><path class="cls-1" d="M93.17,175.94H86v-7.51h-.87a15.82,15.82,0,0,1-13.63,7.51c-11.13,0-18.11-8-18.11-19.15V129.18h7.16v27.61c0,7.42,4.31,12.68,11.82,12.68A13.37,13.37,0,0,0,86,156.18V129.09h7.16Z"/><path class="cls-1" d="M100.15,159.63h6.9c.09,6.22,4.92,10.44,13.11,10.44,6.56,0,10.79-2.76,10.79-7.33,0-5.69-6-6.12-12.51-7-8.11-.95-17.52-3.1-17.52-13,0-8.46,7.08-13.64,17.52-13.64,10.87,0,18.29,5.78,18.29,14.76h-7c-.09-5.35-4.66-8.72-11.39-8.72-6.3,0-10.61,2.85-10.61,7.34,0,5.43,5.87,5.86,12.34,6.64,8.19,1,17.6,3.11,17.6,13.54,0,8.55-6.65,13.46-17.78,13.46C107.39,176.11,100.15,170,100.15,159.63Z"/><path class="cls-1" d="M144.66,117.36a4.89,4.89,0,0,1,5.17-5,4.82,4.82,0,0,1,5.09,5,4.92,4.92,0,0,1-5.09,5.18A5,5,0,0,1,144.66,117.36Zm1.55,11.74h7.16V176h-7.16Z"/><path class="cls-1" d="M161.9,129.18h7.16v7.59h.87a15.85,15.85,0,0,1,13.71-7.59c11.05,0,18.12,8.11,18.12,19.15V176H194.6V148.33c0-7.33-4.4-12.68-11.91-12.68a13.42,13.42,0,0,0-13.63,13.29v27.18H161.9Z"/><path class="cls-1" d="M262.31,159.63h6.9c.08,6.22,4.92,10.44,13.11,10.44,6.56,0,10.79-2.76,10.79-7.33,0-5.69-6-6.12-12.51-7-8.11-.95-17.52-3.1-17.52-13,0-8.46,7.08-13.64,17.52-13.64,10.87,0,18.29,5.78,18.29,14.76h-7c-.09-5.35-4.66-8.72-11.39-8.72-6.3,0-10.61,2.85-10.61,7.34,0,5.43,5.86,5.86,12.33,6.64,8.2,1,17.6,3.11,17.6,13.54,0,8.55-6.64,13.46-17.77,13.46C269.55,176.11,262.31,170,262.31,159.63Z"/><path class="cls-1" d="M306.82,159.63h6.9c.08,6.22,4.91,10.44,13.11,10.44,6.56,0,10.78-2.76,10.78-7.33,0-5.69-5.95-6.12-12.51-7-8.1-.95-17.51-3.1-17.51-13,0-8.46,7.08-13.64,17.51-13.64,10.88,0,18.29,5.78,18.29,14.76h-7c-.09-5.35-4.66-8.72-11.39-8.72-6.3,0-10.61,2.85-10.61,7.34,0,5.43,5.86,5.86,12.33,6.64,8.2,1,17.6,3.11,17.6,13.54,0,8.55-6.64,13.46-17.77,13.46C314.06,176.11,306.82,170,306.82,159.63Z"/><path class="cls-1" d="M255.22,155c.07-.79.11-1.59.11-2.41a27.11,27.11,0,0,0-.28-3.87c-1.65-11.59-10.76-19.51-23-19.51-13.66,0-23.29,9.71-23.29,23.38a27.63,27.63,0,0,0,.43,4.89,25.37,25.37,0,0,0,1,3.79c3.16,9,11.3,14.78,21.86,14.78s18.68-5.8,21.85-14.78h-7.74a16.12,16.12,0,0,1-28.24,0A17.85,17.85,0,0,1,216,155h39.2Zm-39-6.28a16.07,16.07,0,0,1,31.57,0Z"/><path class="cls-1" d="M276.59,42.3a33.79,33.79,0,0,0-10.46-9.67,33.79,33.79,0,0,0-10.46,9.67,24.55,24.55,0,0,0,20.92,0Z"/><path class="cls-1" d="M282.78,60a34.74,34.74,0,0,0-1.88-9.34,33.78,33.78,0,0,1-29.54,0A34.74,34.74,0,0,0,249.48,60a42,42,0,0,0,33.3,0Z"/><path class="cls-1" d="M266.13,72.77a51.3,51.3,0,0,1-15.71-2.46,33.93,33.93,0,0,0,15.71,21.22,33.93,33.93,0,0,0,15.71-21.22A51.3,51.3,0,0,1,266.13,72.77Z"/><path class="cls-1" d="M245.4,26.07a34.07,34.07,0,0,0-30.74-14.21,34.32,34.32,0,0,0,25.45,47.5,43.9,43.9,0,0,1,9.68-25A34.17,34.17,0,0,0,245.4,26.07Z"/><path class="cls-1" d="M317.6,11.86a34.33,34.33,0,0,0-35.21,22.78,43.87,43.87,0,0,1,9.73,24.73A34.33,34.33,0,0,0,317.6,11.86Z"/><rect class="cls-1" x="144.54" y="210.03" width="3.18" height="21.83"/><path class="cls-1" d="M159.17,215.53a5.76,5.76,0,0,0-4.92,2.64v-2.06h-2.94v15.75h2.94v-9.17a4.53,4.53,0,0,1,4.59-4.46c2.41,0,4,1.67,4,4.25v9.38h2.94v-9.38C165.76,218.39,163.05,215.53,159.17,215.53Z"/><path class="cls-1" d="M174.9,229.89a2.09,2.09,0,0,1-2.16-2.28v-9.08h3.95v-2.42h-3.95l0-5H170.4l-.58,5h-2.51v2.42h2.49v9.17c0,2.83,1.78,4.74,4.43,4.74a9.08,9.08,0,0,0,2.56-.41l.14-.05v-2.47l-.27.08A6.81,6.81,0,0,1,174.9,229.89Z"/><path class="cls-1" d="M186.1,215.5a8,8,0,0,0-8.35,8.28,8.3,8.3,0,0,0,8.47,8.69c3.47,0,6.31-1.62,7.6-4.31l.09-.19-2.46-1.25-.1.18a5.65,5.65,0,0,1-5.07,2.87,5.31,5.31,0,0,1-5.49-4.74h13.52l0-.19c0-.35,0-.72,0-1A8,8,0,0,0,186.1,215.5Zm-5.27,6.89A5.07,5.07,0,0,1,186,218.2a5.13,5.13,0,0,1,5.27,4.19Z"/><path class="cls-1" d="M203.65,215.8a4.93,4.93,0,0,0-4.16,2.26v-1.95h-2.88v15.75h2.94v-8.47c0-2.88,1.52-4.89,3.7-4.89a6.24,6.24,0,0,1,2.2.44l.29.12v-2.78l-.11-.06A4.46,4.46,0,0,0,203.65,215.8Z"/><path class="cls-1" d="M215.22,215.53a5.76,5.76,0,0,0-4.92,2.64v-2.06h-3v15.75h3v-9.17a4.52,4.52,0,0,1,4.58-4.46c2.42,0,4,1.67,4,4.25v9.38h2.94v-9.38C221.8,218.39,219.09,215.53,215.22,215.53Z"/><path class="cls-1" d="M232.07,215.5a8,8,0,0,0-8.35,8.28,8.3,8.3,0,0,0,8.47,8.69c3.47,0,6.31-1.62,7.6-4.31l.08-.19-2.46-1.25-.1.18a5.64,5.64,0,0,1-5.06,2.87,5.32,5.32,0,0,1-5.5-4.74h13.52l0-.19c0-.35,0-.72,0-1A8,8,0,0,0,232.07,215.5Zm-5.28,6.89a5.34,5.34,0,0,1,10.43,0Z"/><path class="cls-1" d="M248.4,229.89a2.09,2.09,0,0,1-2.16-2.28v-9.08h3.95v-2.42h-3.95l0-5H243.9l-.58,5h-2.51v2.42h2.49v9.17c0,2.83,1.78,4.74,4.43,4.74a9.08,9.08,0,0,0,2.56-.41l.14-.05v-2.47l-.27.08A6.68,6.68,0,0,1,248.4,229.89Z"/><path class="cls-1" d="M265.13,215.53c-4,0-6.59,2.17-6.59,5.52v.21h3v-.21a2.5,2.5,0,0,1,.7-1.85,4,4,0,0,1,2.89-1c2.38,0,3.8,1.19,3.8,3.19v.42l-4.07.49c-4.48.51-7.05,2.49-7.05,5.43,0,2.74,2.3,4.58,5.71,4.58a6.16,6.16,0,0,0,5.41-2.65v2.17h2.94V221.48C271.84,217.86,269.2,215.53,265.13,215.53Zm3.77,8.89v1.13c0,2.52-2.08,4.28-5,4.28-2,0-3.12-.8-3.12-2.13s1.47-2.49,4.15-2.83Z"/><path class="cls-1" d="M287.38,229.89a2.08,2.08,0,0,1-2.15-2.28v-9.08h3.94v-2.42h-3.94l0-5h-2.38l-.57,5h-2.52v2.42h2.49v9.17c0,2.83,1.78,4.74,4.43,4.74a9,9,0,0,0,2.56-.41l.15-.05v-2.47l-.28.08A6.68,6.68,0,0,1,287.38,229.89Z"/><path class="cls-1" d="M302.78,225.24a4.48,4.48,0,0,1-4.59,4.47c-2.43,0-3.95-1.63-3.95-4.26v-9.34H291.3v9.34c0,4.16,2.65,7,6.59,7a5.8,5.8,0,0,0,4.89-2.61v2.06h2.94V216.11h-2.94Z"/><path class="cls-1" d="M321.26,215.53c-4,0-6.58,2.17-6.58,5.52v.21h3v-.21a2.49,2.49,0,0,1,.69-1.85,4,4,0,0,1,2.89-1c2.38,0,3.8,1.19,3.8,3.19v.42l-4.06.49c-4.48.51-7.05,2.49-7.05,5.43,0,2.74,2.29,4.58,5.71,4.58a6.13,6.13,0,0,0,5.4-2.65v2.17H328V221.48C328,217.86,325.34,215.53,321.26,215.53Zm3.77,8.89v1.13c0,2.52-2.07,4.28-5,4.28-2,0-3.13-.8-3.13-2.13s1.48-2.49,4.16-2.83Z"/><rect class="cls-1" x="330.71" y="209.12" width="2.94" height="22.74"/><path class="cls-1" d="M343.09,229.89a2.08,2.08,0,0,1-2.15-2.28v-9.08h3.94v-2.42h-3.94l0-5h-2.38l-.57,5h-2.51v2.42H338v9.17c0,2.83,1.78,4.74,4.43,4.74A9,9,0,0,0,345,232l.15-.05v-2.47l-.28.08A6.68,6.68,0,0,1,343.09,229.89Z"/><path class="cls-1" d="M358.49,225.24a4.48,4.48,0,0,1-4.59,4.47c-2.43,0-3.95-1.63-3.95-4.26v-9.34H347v9.34c0,4.16,2.65,7,6.59,7a5.8,5.8,0,0,0,4.89-2.61v2.06h2.94V216.11h-2.94Z"/><path class="cls-1" d="M371.51,215.8a5,5,0,0,0-4.16,2.25v-1.94h-2.88v15.75h2.94v-8.47c0-2.88,1.52-4.89,3.71-4.89a6.19,6.19,0,0,1,2.19.44l.29.12v-2.78l-.11-.06A4.46,4.46,0,0,0,371.51,215.8Z"/><path class="cls-1" d="M381,215.53c-4,0-6.58,2.17-6.58,5.52v.21h3v-.21a2.49,2.49,0,0,1,.69-1.85,4,4,0,0,1,2.89-1c2.38,0,3.8,1.19,3.8,3.19v.42l-4.06.49c-4.48.51-7.05,2.49-7.05,5.43,0,2.74,2.29,4.58,5.7,4.58a6.14,6.14,0,0,0,5.41-2.65v2.17h2.94V221.48C387.72,217.86,385.09,215.53,381,215.53Zm3.77,8.89v1.13c0,2.52-2.07,4.28-5,4.28-2,0-3.13-.8-3.13-2.13s1.48-2.49,4.15-2.83Z"/></g></g></svg>