<svg xmlns="http://www.w3.org/2000/svg" viewBox="0 0 142.12 80.89"><defs><style>.cls-1{fill:#fff;}</style></defs><title>Recurso 3comcom</title><g id="Capa_2" data-name="Capa 2"><g id="Capa_1-2" data-name="Capa 1"><path class="cls-1" d="M84.09,20.54a14,14,0,0,0,.6-4V3.77a3.77,3.77,0,0,0-7.54,0v1.7A3.77,3.77,0,0,0,70.58,8v.07A3.77,3.77,0,0,0,64,10.56v4.15c0,.11,0,.23,0,.34a2.33,2.33,0,0,0-1.43-.49H59.75A2.39,2.39,0,0,0,57.43,17h0v.11A13.64,13.64,0,0,0,71.06,30.15h0a13.53,13.53,0,0,0,9.64-4A16.44,16.44,0,0,0,84.09,20.54Zm-5-16.77a1.81,1.81,0,1,1,3.62,0V14.71a1.81,1.81,0,0,1-3.59.33,1.84,1.84,0,0,1,0-.33ZM72.54,10.7V8a1.81,1.81,0,0,1,3.62,0v6.72a1.72,1.72,0,0,1-.15.72,1.81,1.81,0,0,1-3.47-.72ZM66,10.59v0a1.81,1.81,0,0,1,3.62,0v4.15a1.49,1.49,0,0,1,0,.21,1.81,1.81,0,0,1-3.6-.21ZM79.31,24.78A11.67,11.67,0,0,1,59.39,17v0h0a.43.43,0,0,1,.42-.43h2.78a.42.42,0,0,1,.42.42,8.06,8.06,0,0,0,15.44,2.78h0a.41.41,0,0,1,.39-.25h3a.42.42,0,0,1,.43.42s0,.08,0,.11v0A11.59,11.59,0,0,1,79.31,24.78Z"/><path class="cls-1" d="M7.53,43.79A5.58,5.58,0,0,0,2.78,46.3h-.3V37.52H0V59.47H2.48V50.66A4.63,4.63,0,0,1,7.2,46c2.59,0,4.12,1.82,4.12,4.39v9H13.8v-9C13.8,46.57,11.35,43.79,7.53,43.79Z"/><path class="cls-1" d="M32.43,51.3a7.81,7.81,0,0,0-8.1-8.14,7.8,7.8,0,0,0-8.11,8.14,7.81,7.81,0,0,0,8.11,8.17A7.82,7.82,0,0,0,32.43,51.3Zm-8.1,5.93A5.57,5.57,0,0,1,18.7,51.3,5.63,5.63,0,1,1,30,51.3,5.59,5.59,0,0,1,24.33,57.23Z"/><path class="cls-1" d="M73.75,54.32a5.61,5.61,0,0,1-9.83,0,6.1,6.1,0,0,1-.65-2.18H76.91a7.63,7.63,0,0,0,0-.84,8.37,8.37,0,0,0-.1-1.34A8.11,8.11,0,0,0,60.73,51.3a9.35,9.35,0,0,0,.15,1.7,9.12,9.12,0,0,0,.35,1.32,8.2,8.2,0,0,0,15.22,0Zm-4.91-8.91A5.46,5.46,0,0,1,74.33,50h-11A5.44,5.44,0,0,1,68.84,45.41Z"/><path class="cls-1" d="M55.83,49.83v9.64h2.48V49.86c0-3.92-2.54-6.67-6.1-6.67a5.68,5.68,0,0,0-5.06,2.9h-.27A5.48,5.48,0,0,0,42,43.16a4.89,4.89,0,0,0-4.4,2.6h-.3v-2.6h-2.4V59.47h2.49V49.83c0-2.66,1.61-4.43,4.07-4.43s3.89,1.77,3.89,4.43v9.64h2.48V49.83a4.13,4.13,0,0,1,4.13-4.43C54.18,45.4,55.83,47.26,55.83,49.83Z"/><path class="cls-1" d="M108.13,43.16A7.8,7.8,0,0,0,100,51.3a8.11,8.11,0,1,0,16.21,0A7.82,7.82,0,0,0,108.13,43.16Zm0,14.07c-3.29,0-5.62-2.49-5.62-5.93a5.63,5.63,0,1,1,11.25,0A5.59,5.59,0,0,1,108.13,57.23Z"/><path class="cls-1" d="M136,43.19a5.68,5.68,0,0,0-5.06,2.9h-.27a5.48,5.48,0,0,0-4.94-2.93,4.87,4.87,0,0,0-4.39,2.6h-.3v-2.6h-2.4V59.47h2.49V49.83c0-2.66,1.61-4.43,4.07-4.43s3.89,1.77,3.89,4.43v9.64h2.48V49.83a4.12,4.12,0,0,1,4.13-4.43c2.27,0,3.92,1.86,3.92,4.43v9.64h2.48V49.86C142.12,45.94,139.58,43.19,136,43.19Z"/><path class="cls-1" d="M89.81,57.23c-3.2,0-5.47-2.49-5.47-5.93s2.27-5.89,5.47-5.89a5.34,5.34,0,0,1,5.31,4.46h2.45a7.59,7.59,0,0,0-7.76-6.71c-4.62,0-7.88,3.38-7.88,8.14s3.26,8.17,7.88,8.17a7.6,7.6,0,0,0,7.79-7H95.17A5.37,5.37,0,0,1,89.81,57.23Z"/><rect class="cls-1" x="26.26" y="70.71" width="1.15" height="7.72"/><path class="cls-1" d="M31.64,72.65a2.06,2.06,0,0,0-1.72.9v-.7H28.86v5.57h1.06V75.18a1.59,1.59,0,0,1,1.61-1.56,1.35,1.35,0,0,1,1.39,1.49v3.31H34V75.11A2.3,2.3,0,0,0,31.64,72.65Z"/><path class="cls-1" d="M37.4,77.71a.73.73,0,0,1-.75-.79V73.73H38v-.88H36.65V71.1H35.8l-.2,1.75h-.89v.88h.88V77a1.54,1.54,0,0,0,1.57,1.68,3,3,0,0,0,.91-.15l.06,0v-.89l-.11,0A2.32,2.32,0,0,1,37.4,77.71Z"/><path class="cls-1" d="M41.56,72.63a2.85,2.85,0,0,0-3,2.94,2.93,2.93,0,0,0,3,3.07,2.83,2.83,0,0,0,2.68-1.53l0-.07-.89-.45,0,.07a2,2,0,0,1-1.77,1A1.87,1.87,0,0,1,39.7,76h4.77v-.08c0-.12,0-.26,0-.36A2.83,2.83,0,0,0,41.56,72.63Zm-1.84,2.43a1.78,1.78,0,0,1,1.8-1.45,1.8,1.8,0,0,1,1.84,1.45Z"/><path class="cls-1" d="M48,72.74a1.74,1.74,0,0,0-1.45.77v-.66h-1v5.57h1.06v-3c0-1,.52-1.71,1.29-1.71a2.21,2.21,0,0,1,.77.15l.12,0v-1l0,0A1.69,1.69,0,0,0,48,72.74Z"/><path class="cls-1" d="M52.25,72.65a2.06,2.06,0,0,0-1.72.9v-.7H49.47v5.57h1.06V75.18a1.59,1.59,0,0,1,1.61-1.56,1.35,1.35,0,0,1,1.39,1.49v3.31h1.06V75.11A2.3,2.3,0,0,0,52.25,72.65Z"/><path class="cls-1" d="M58.41,72.63a2.85,2.85,0,0,0-3,2.94,2.93,2.93,0,0,0,3,3.07,2.85,2.85,0,0,0,2.69-1.53l0-.07-.88-.45,0,.07a2,2,0,0,1-1.78,1A1.85,1.85,0,0,1,56.55,76h4.76v-.08c0-.12,0-.26,0-.36A2.84,2.84,0,0,0,58.41,72.63Zm-1.85,2.43a1.78,1.78,0,0,1,1.8-1.45,1.81,1.81,0,0,1,1.85,1.45Z"/><path class="cls-1" d="M64.38,77.71a.72.72,0,0,1-.75-.79V73.73H65v-.88H63.63V71.1h-.86l-.2,1.75h-.89v.88h.88V77a1.54,1.54,0,0,0,1.57,1.68,3,3,0,0,0,.91-.15l.06,0v-.89l-.12,0A2.19,2.19,0,0,1,64.38,77.71Z"/><path class="cls-1" d="M73.13,73.63a2.3,2.3,0,0,0-2-1,3,3,0,0,0,0,6,2.35,2.35,0,0,0,2-1v3.23h1.06v-8H73.13Zm-1.89,4a1.94,1.94,0,0,1-1.93-2,1.92,1.92,0,1,1,1.93,2Z"/><path class="cls-1" d="M79.38,76.08a1.57,1.57,0,0,1-1.61,1.56,1.33,1.33,0,0,1-1.38-1.48V72.85H75.33v3.31a2.27,2.27,0,0,0,2.34,2.46,2.07,2.07,0,0,0,1.71-.9v.7h1.06V72.85H79.38Z"/><path class="cls-1" d="M84.38,72.63a2.86,2.86,0,0,0-3,2.94,2.93,2.93,0,0,0,3,3.07,2.85,2.85,0,0,0,2.69-1.53l0-.07-.88-.45,0,.07a2,2,0,0,1-1.78,1A1.86,1.86,0,0,1,82.52,76h4.76v-.08c0-.12,0-.26,0-.36A2.84,2.84,0,0,0,84.38,72.63Zm-1.85,2.43a1.78,1.78,0,0,1,1.8-1.45,1.8,1.8,0,0,1,1.85,1.45Z"/><polygon class="cls-1" points="92.81 77.51 91.1 72.85 90.01 72.85 92.13 78.42 93.51 78.42 95.63 72.85 94.54 72.85 92.81 77.51"/><path class="cls-1" d="M100.1,76.08a1.57,1.57,0,0,1-1.61,1.56,1.33,1.33,0,0,1-1.38-1.48V72.85H96.05v3.31a2.27,2.27,0,0,0,2.33,2.46,2.07,2.07,0,0,0,1.72-.9v.7h1.06V72.85H100.1Z"/><path class="cls-1" d="M105.09,72.63a2.85,2.85,0,0,0-3,2.94,2.93,2.93,0,0,0,3,3.07,2.86,2.86,0,0,0,2.69-1.53l0-.07-.89-.45,0,.07a2,2,0,0,1-1.77,1A1.87,1.87,0,0,1,103.23,76H108v-.08a2.3,2.3,0,0,0,0-.36A2.84,2.84,0,0,0,105.09,72.63Zm-1.84,2.43a1.78,1.78,0,0,1,1.8-1.45,1.81,1.81,0,0,1,1.85,1.45Z"/><rect class="cls-1" x="109" y="70.39" width="1.06" height="8.04"/><path class="cls-1" d="M113.48,72.65c-1.41,0-2.33.76-2.33,1.95v.09h1.07V74.6a.89.89,0,0,1,.24-.64,1.42,1.42,0,0,1,1-.34c.83,0,1.33.42,1.33,1.11v.14l-1.42.17c-1.59.18-2.5.88-2.5,1.93s.82,1.63,2,1.63a2.19,2.19,0,0,0,1.89-.91v.73h1.06V74.75A2.11,2.11,0,0,0,113.48,72.65Zm1.32,3.54a1.58,1.58,0,0,1-1.77,1.5c-.68,0-1.09-.28-1.09-.74s.52-.87,1.46-1l1.4-.16Z"/></g></g></svg>