<svg xmlns="http://www.w3.org/2000/svg" viewBox="0 0 565 321.56"><defs><style>.cls-1{fill:#aeaeae;}.cls-2{fill:#f15a32;}</style></defs><title>Recurso 1comcom</title><g id="Capa_2" data-name="Capa 2"><g id="Capa_1-2" data-name="Capa 1"><path class="cls-1" d="M324.15,100.34c1-1.24,2-2.54,2.94-3.85l.08-.13c.27-.38.54-.79.8-1.19l.09-.13,0,0c.85-1.32,1.65-2.69,2.37-4.06l.12-.23c.2-.38.4-.76.58-1.13l.15-.32q.27-.55.54-1.14l0-.06.1-.2c.41-.93.81-1.88,1.17-2.83l.11-.29,0-.06c.13-.35.26-.69.37-1l.18-.52q.15-.47.3-.9v0a3,3,0,0,0,.1-.32,2,2,0,0,0,.07-.23,54.42,54.42,0,0,0,2.39-16V15a15,15,0,0,0-30,0v6.76a15,15,0,0,0-26.12,10v.29a15,15,0,0,0-26.17,10V58.48c0,.45,0,.9.06,1.34a9.41,9.41,0,0,0-5.68-1.92H237.54a9.51,9.51,0,0,0-9.22,9.48h0v.28a.86.86,0,0,1,0,.16,54.19,54.19,0,0,0,54.15,52h0A53.85,53.85,0,0,0,320.81,104c.74-.74,1.5-1.55,2.25-2.39l0,0,0,0c.35-.4.7-.8,1-1.19ZM314.5,15a7.2,7.2,0,1,1,14.4,0v43.5a7.2,7.2,0,0,1-14.4,0ZM288.39,42.55V31.76a7.2,7.2,0,0,1,14.4,0V58.48a7.3,7.3,0,0,1-.59,2.85,7.2,7.2,0,0,1-13.81-2.85Zm-26.18-.45V42a7.2,7.2,0,1,1,14.4,0V58.48a7.89,7.89,0,0,1-.08.85,7.18,7.18,0,0,1-14.32-.85ZM315.3,98.5a46.42,46.42,0,0,1-79.2-31v-.09h0v0a1.71,1.71,0,0,1,1.69-1.71h11a1.7,1.7,0,0,1,1.7,1.67,32,32,0,0,0,61.35,11.06h0a1.69,1.69,0,0,1,1.55-1h11.73a1.7,1.7,0,0,1,1.71,1.7,1.93,1.93,0,0,1-.05.42s0,0,0,.06A46.16,46.16,0,0,1,315.3,98.5Z"/><path class="cls-1" d="M29.92,174.1a22.22,22.22,0,0,0-18.88,10H9.85V149.16H0v87.26H9.85v-35c0-10.68,8.67-18.4,18.76-18.4C38.94,183,45,190.24,45,200.45v36h9.86v-36C54.85,185.14,45.11,174.1,29.92,174.1Z"/><path class="cls-1" d="M128.94,204c0-18.91-13.44-32.35-32.23-32.35S64.47,185,64.47,204s13.32,32.47,32.24,32.47S128.94,223,128.94,204ZM96.71,227.5c-13.09,0-22.37-9.87-22.37-23.55s9.28-23.43,22.37-23.43,22.36,9.87,22.36,23.43S109.67,227.5,96.71,227.5Z"/><path class="cls-1" d="M293.21,216a22.32,22.32,0,0,1-39.09,0,25,25,0,0,1-2.61-8.68h54.26c.09-1.09.14-2.2.14-3.33a37.33,37.33,0,0,0-.38-5.35c-2.29-16-14.89-27-31.85-27-18.91,0-32.24,13.44-32.24,32.35a38.06,38.06,0,0,0,.6,6.77,35,35,0,0,0,1.38,5.24c4.37,12.43,15.64,20.46,30.26,20.46s25.84-8,30.24-20.46Zm-19.53-35.44c11.18,0,19.71,7.35,21.84,18.08H251.83C253.94,187.87,262.39,180.52,273.68,180.52Z"/><path class="cls-1" d="M222,198.1v38.32h9.87v-38.2c0-15.59-10.11-26.53-24.27-26.53a22.62,22.62,0,0,0-20.1,11.54h-1.07c-3.45-7-11.18-11.66-19.62-11.66a19.48,19.48,0,0,0-17.49,10.35h-1.19V171.57h-9.51v64.84h9.87V198.1c0-10.59,6.42-17.61,16.17-17.61,9.28,0,15.47,7,15.47,17.61v38.32H190V198.1c0-10.23,6.78-17.61,16.41-17.61C215.4,180.49,222,187.87,222,198.1Z"/><path class="cls-2" d="M429.89,171.6C411,171.6,397.65,185,397.65,204s13.33,32.47,32.24,32.47S462.12,223,462.12,204,448.68,171.6,429.89,171.6Zm0,55.9c-13.09,0-22.36-9.87-22.36-23.55s9.27-23.43,22.36-23.43,22.36,9.87,22.36,23.43S442.85,227.5,429.89,227.5Z"/><path class="cls-2" d="M540.73,171.69a22.63,22.63,0,0,0-20.1,11.54h-1.07c-3.45-7-11.18-11.66-19.62-11.66a19.48,19.48,0,0,0-17.49,10.35h-1.19V171.57h-9.51v64.84h9.87V198.1c0-10.59,6.42-17.61,16.18-17.61,9.27,0,15.46,7,15.46,17.61v38.32h9.87V198.1c0-10.23,6.78-17.61,16.42-17.61,9,0,15.58,7.38,15.58,17.61v38.32H565v-38.2C565,182.63,554.89,171.69,540.73,171.69Z"/><path class="cls-2" d="M357,227.5c-12.7,0-21.71-9.87-21.71-23.55s9-23.43,21.71-23.43c10.75,0,19,7.21,21.13,17.76h9.73c-2.35-15.86-14.5-26.68-30.86-26.68-18.36,0-31.3,13.44-31.3,32.35s12.94,32.47,31.3,32.47c16.75,0,29.08-11.33,31-27.9h-9.66C376.57,219.77,368.16,227.5,357,227.5Z"/><rect class="cls-1" x="104.4" y="281.1" width="4.55" height="30.67"/><path class="cls-1" d="M125.8,288.8a8.14,8.14,0,0,0-6.85,3.6v-2.79h-4.21v22.17H119V298.89a6.3,6.3,0,0,1,6.38-6.21c3.36,0,5.53,2.32,5.53,5.91v13.19h4.21V298.59C135.07,292.83,131.26,288.8,125.8,288.8Z"/><path class="cls-1" d="M148.69,308.92a2.87,2.87,0,0,1-3-3.14V293.1h5.53v-3.49h-5.53l0-6.93h-3.41l-.81,6.93H138v3.49h3.48v12.8c0,4,2.52,6.68,6.26,6.68a12.32,12.32,0,0,0,3.6-.57l.23-.07v-3.57l-.45.14A9.46,9.46,0,0,1,148.69,308.92Z"/><path class="cls-1" d="M165.23,288.76a11.32,11.32,0,0,0-11.74,11.66c0,7.07,5,12.21,11.91,12.21,4.89,0,8.88-2.27,10.69-6.07l.14-.3-3.53-1.79-.15.3a7.88,7.88,0,0,1-7.06,4,7.4,7.4,0,0,1-7.65-6.55h18.94l0-.31a14.25,14.25,0,0,0,0-1.43A11.28,11.28,0,0,0,165.23,288.76Zm-7.33,9.66a7.08,7.08,0,0,1,7.16-5.79,7.16,7.16,0,0,1,7.33,5.79Z"/><path class="cls-1" d="M190.67,289.19a7,7,0,0,0-5.78,3v-2.62h-4.13v22.17H185V299.86c0-4.07,2.07-6.8,5.15-6.8a8.6,8.6,0,0,1,3.06.61l.47.2v-4l-.18-.1A6.31,6.31,0,0,0,190.67,289.19Z"/><path class="cls-1" d="M207.73,288.8a8.14,8.14,0,0,0-6.85,3.6v-2.79h-4.21v22.17h4.21V298.89a6.31,6.31,0,0,1,6.39-6.21c3.35,0,5.52,2.32,5.52,5.91v13.19H217V298.59C217,292.83,213.19,288.8,207.73,288.8Z"/><path class="cls-1" d="M232.19,288.76a11.32,11.32,0,0,0-11.74,11.66c0,7.07,5,12.21,11.91,12.21,4.89,0,8.88-2.27,10.69-6.07l.15-.3-3.53-1.79-.16.3a7.87,7.87,0,0,1-7.06,4,7.4,7.4,0,0,1-7.65-6.55h18.94l0-.31a14.25,14.25,0,0,0,.05-1.43A11.28,11.28,0,0,0,232.19,288.76Zm-7.33,9.66a7.43,7.43,0,0,1,14.49,0Z"/><path class="cls-1" d="M255.93,308.92a2.86,2.86,0,0,1-3-3.14V293.1h5.53v-3.49H253l0-6.93h-3.41l-.81,6.93h-3.53v3.49h3.49v12.8c0,4,2.52,6.68,6.26,6.68a12.26,12.26,0,0,0,3.59-.57l.24-.07v-3.57l-.45.14A9.46,9.46,0,0,1,255.93,308.92Z"/><path class="cls-1" d="M290.73,292.72a9.1,9.1,0,0,0-7.91-4c-6.55,0-11.49,5.12-11.49,11.91s4.92,12,11.45,12a9.31,9.31,0,0,0,8-3.89v12.82h4.21V289.61h-4.21Zm-7.53,16c-4.36,0-7.65-3.47-7.65-8.08s3.22-8,7.65-8,7.62,3.46,7.62,8S287.54,308.75,283.2,308.75Z"/><path class="cls-1" d="M315.57,302.46a6.23,6.23,0,0,1-6.38,6.21c-3.38,0-5.48-2.27-5.48-5.91V289.61h-4.22v13.15c0,5.85,3.73,9.78,9.28,9.78a8.15,8.15,0,0,0,6.8-3.55v2.79h4.22V289.61h-4.22Z"/><path class="cls-1" d="M335.44,288.76a11.32,11.32,0,0,0-11.74,11.66c0,7.07,5,12.21,11.91,12.21,4.88,0,8.88-2.27,10.69-6.07l.14-.3-3.53-1.79-.15.3a7.88,7.88,0,0,1-7.06,4,7.4,7.4,0,0,1-7.65-6.55H347l0-.31a14.25,14.25,0,0,0,.05-1.43A11.28,11.28,0,0,0,335.44,288.76Zm-7.33,9.66a7.08,7.08,0,0,1,7.16-5.79,7.16,7.16,0,0,1,7.33,5.79Z"/><polygon class="cls-1" points="368.99 308.16 362.19 289.61 357.84 289.61 366.26 311.78 371.75 311.78 380.18 289.61 375.83 289.61 368.99 308.16"/><path class="cls-1" d="M397.94,302.46a6.24,6.24,0,0,1-6.38,6.21c-3.39,0-5.49-2.27-5.49-5.91V289.61h-4.21v13.15c0,5.85,3.72,9.78,9.27,9.78a8.18,8.18,0,0,0,6.81-3.55v2.79h4.21V289.61h-4.21Z"/><path class="cls-1" d="M417.8,288.76a11.32,11.32,0,0,0-11.74,11.66c0,7.07,5,12.21,11.91,12.21,4.89,0,8.88-2.27,10.69-6.07l.14-.3-3.53-1.79-.15.3a7.87,7.87,0,0,1-7.06,4,7.4,7.4,0,0,1-7.65-6.55h18.94l0-.31a14.25,14.25,0,0,0,.05-1.43A11.28,11.28,0,0,0,417.8,288.76Zm-7.33,9.66a7.08,7.08,0,0,1,7.16-5.79,7.16,7.16,0,0,1,7.33,5.79Z"/><rect class="cls-1" x="433.33" y="279.83" width="4.21" height="31.95"/><path class="cls-1" d="M451.16,288.8c-5.64,0-9.28,3.06-9.28,7.79v.34h4.26v-.35a3.4,3.4,0,0,1,.95-2.55,5.6,5.6,0,0,1,4-1.35c3.31,0,5.28,1.65,5.28,4.42v.55l-5.65.68c-6.31.72-9.92,3.51-9.92,7.66,0,3.87,3.23,6.47,8,6.47a8.69,8.69,0,0,0,7.53-3.61v2.93h4.21v-14.6C460.6,292.09,456.89,288.8,451.16,288.8Zm5.23,14.08c0,3.51-2.89,6-7,6-2.72,0-4.34-1.1-4.34-2.94,0-2,2.06-3.44,5.78-3.91l5.58-.64Z"/></g></g></svg>