<svg xmlns="http://www.w3.org/2000/svg" width="296.316" height="159.979" viewBox="0 0 296.316 159.979">
  <g id="Grupo_296" data-name="Grupo 296" transform="translate(-1314.515 -6637.191)">
    <g id="Grupo_252" data-name="Grupo 252" transform="translate(1479.828 6731.509)">
      <circle id="Elipse_123" data-name="Elipse 123" cx="14.375" cy="14.375" r="14.375" fill="#f15a32"/>
      <g id="Grupo_251" data-name="Grupo 251" transform="translate(7.628 6.748)">
        <path id="Trazado_2582" data-name="Trazado 2582" d="M1054.062,771.6a.947.947,0,0,0-.88.88v.88a.946.946,0,0,1-.88.88h-8.361a.946.946,0,0,1-.88-.88v-.88a.88.88,0,1,0-1.76,0v.88a2.785,2.785,0,0,0,2.787,2.787h8.361a2.785,2.785,0,0,0,2.787-2.787v-.88C1054.942,772.04,1054.648,771.6,1054.062,771.6Z" transform="translate(-1041.3 -761.039)" fill="#fff"/>
        <path id="Trazado_2583" data-name="Trazado 2583" d="M1046.9,764.4a.946.946,0,0,0-.88.88v8.361l-.733-.734a.933.933,0,1,0-1.32,1.32l2.347,2.347a1.114,1.114,0,0,0,.587.293h0a.762.762,0,0,0,.587-.293l2.2-2.347a.934.934,0,0,0-1.32-1.32l-.734.734V765.28C1047.93,764.84,1047.49,764.4,1046.9,764.4Z" transform="translate(-1040.156 -764.4)" fill="#fff"/>
      </g>
    </g>
    <g id="Grupo_254" data-name="Grupo 254" transform="translate(1511.659 6731.509)">
      <circle id="Elipse_124" data-name="Elipse 124" cx="14.375" cy="14.375" r="14.375" fill="#f15a32"/>
      <g id="Grupo_253" data-name="Grupo 253" transform="translate(6.454 8.547)">
        <path id="Trazado_2584" data-name="Trazado 2584" d="M1062.2,772.335c.147-.293.147-.587.293-.88a3.96,3.96,0,0,1,1.027-1.174c.147,0,.147-.147.147-.293a4.291,4.291,0,0,1,1.174-2.787,5.382,5.382,0,0,1,2.493-1.467,4.382,4.382,0,0,1,3.961,1.027,3.886,3.886,0,0,1,.733.88.144.144,0,0,0,.147.147,3.31,3.31,0,0,1,3.227.88,3.071,3.071,0,0,1,.587.88.143.143,0,0,0,.146.147,3,3,0,0,1,2.054,2.494,2.956,2.956,0,0,1-2.494,3.227h-3.227c-.146,0-.146,0-.146-.147v-.587c0-.147,0-.147.146-.147h2.64a2.091,2.091,0,0,0,1.76-.88,1.8,1.8,0,0,0,.146-1.907,1.947,1.947,0,0,0-1.613-1.173c-.147,0-.147,0-.293-.147a2.237,2.237,0,0,0-3.373-1.467c-.147.147-.147.147-.293-.147a3.683,3.683,0,0,0-3.08-2.347,3.627,3.627,0,0,0-3.667,2.787,1.622,1.622,0,0,0,0,1.174c0,.147,0,.147-.146.147a1.913,1.913,0,0,0-1.32,1.467,1.938,1.938,0,0,0,1.76,2.347,19.552,19.552,0,0,0,2.934,0c.293,0,.293,0,.293.294v.587c0,.147,0,.147-.147.147h-3.08a2.514,2.514,0,0,1-2.347-1.614,2.119,2.119,0,0,1-.293-1.027C1062.2,772.775,1062.2,772.482,1062.2,772.335Z" transform="translate(-1062.2 -765.626)" fill="#fff"/>
        <path id="Trazado_2585" data-name="Trazado 2585" d="M1067.367,773.676v-1.76c0-.147,0-.147-.147-.147h-1.32v-.147c.733-.88,1.613-1.907,2.347-2.787,0-.147.147-.147.147,0,.734.88,1.614,1.907,2.347,2.787v.147h-1.32c-.147,0-.147,0-.147.147v3.667c0,.147,0,.147-.147.147h-1.614c-.146,0-.146,0-.146-.147Z" transform="translate(-1060.473 -764.18)" fill="#fff"/>
      </g>
    </g>
    <g id="Grupo_256" data-name="Grupo 256" transform="translate(1448.144 6731.509)">
      <circle id="Elipse_125" data-name="Elipse 125" cx="14.375" cy="14.375" r="14.375" fill="#f15a32"/>
      <g id="_x31_9-Sending_3_" transform="translate(7.041 9.094)">
        <g id="Grupo_255" data-name="Grupo 255">
          <path id="Trazado_2586" data-name="Trazado 2586" d="M1028.347,770.794a2.347,2.347,0,1,0-2.347-2.347A2.317,2.317,0,0,0,1028.347,770.794Zm-1.173-2.64.88-.88h.587l.88.88a.275.275,0,0,1,0,.44l-.147.147c-.147,0-.147,0-.147-.147l-.44-.44v1.32a.293.293,0,1,1-.587,0v-1.32l-.44.44a.275.275,0,0,1-.44,0A.538.538,0,0,1,1027.174,768.154Z" transform="translate(-1016.172 -765.953)" fill="#fff"/>
          <path id="Trazado_2587" data-name="Trazado 2587" d="M1020.62,768.747a2.489,2.489,0,0,1-1.32-2.347v8.508l5.281-3.814Z" transform="translate(-1019.3 -765.813)" fill="#fff"/>
          <path id="Trazado_2588" data-name="Trazado 2588" d="M1020.773,768.347l5.134,2.934a.539.539,0,0,0,.44.147h0a.539.539,0,0,0,.44-.147l.734-.44h0l1.32-.88a3.146,3.146,0,0,1-.587-1.76,2.985,2.985,0,0,1,.88-2.2H1019.6v.293A2.039,2.039,0,0,0,1020.773,768.347Z" transform="translate(-1019.16 -766)" fill="#fff"/>
          <path id="Trazado_2589" data-name="Trazado 2589" d="M1026.527,769.147l-1.027.587,5.281,3.814V769a2.985,2.985,0,0,1-2.2.88A2.278,2.278,0,0,1,1026.527,769.147Z" transform="translate(-1016.405 -764.599)" fill="#fff"/>
          <path id="Trazado_2590" data-name="Trazado 2590" d="M1027.221,770.093a1.324,1.324,0,0,1-.734.147h0a1.1,1.1,0,0,1-.733-.147l-.587-.293-5.867,4.254v.44a.316.316,0,0,0,.293.293h13.788a.315.315,0,0,0,.293-.293v-.44l-5.867-4.254Z" transform="translate(-1019.3 -764.226)" fill="#fff"/>
        </g>
      </g>
    </g>
    <g id="Grupo_261" data-name="Grupo 261" transform="translate(1416.314 6731.509)">
      <circle id="Elipse_126" data-name="Elipse 126" cx="14.375" cy="14.375" r="14.375" fill="#f15a32"/>
      <g id="Pdf_download_5_" transform="translate(7.628 7.188)">
        <g id="Grupo_260" data-name="Grupo 260">
          <g id="Grupo_257" data-name="Grupo 257" transform="translate(2.347 4.547)">
            <path id="Trazado_2591" data-name="Trazado 2591" d="M1006.787,772.2a.144.144,0,0,0-.147-.147c-.147-.147-.44-.147-.88-.293a3.646,3.646,0,0,0-1.173.147,1.113,1.113,0,0,0-.587-.293,3.042,3.042,0,0,1-.88-1.467V770a5.541,5.541,0,0,0,.147-1.76v-.147h0c0-.147-.147-.293-.44-.293h-.147c-.147,0-.44.147-.44.293a4.3,4.3,0,0,0,.293,2.2v.147c-.147.44-.44.88-.587,1.32h0a6.375,6.375,0,0,1-.587,1.027l-.147.147a1.478,1.478,0,0,1-.44.147c-.587.44-1.027.733-1.174,1.173,0,.147,0,.293.147.293l.147.147h.293c.44,0,1.027-.587,1.614-1.76a20,20,0,0,1,2.494-.587,4.78,4.78,0,0,0,1.907.587h.147a.144.144,0,0,0,.147-.147C1006.787,772.494,1006.787,772.347,1006.787,772.2Zm-6.747,2.2a4.681,4.681,0,0,1,.88-1.027l.147-.147A4.474,4.474,0,0,1,1000.04,774.4Zm2.787-6.454c.147,0,.293.293.293.733s0,.587-.147.733a2.181,2.181,0,0,1-.147-.88C1002.68,768.387,1002.68,767.947,1002.827,767.947Zm-.88,4.547c.147-.147.147-.293.293-.587a8.66,8.66,0,0,0,.587-1.173,8.156,8.156,0,0,0,.88,1.173l.147.147A7.277,7.277,0,0,0,1001.947,772.494Zm4.547,0h-.293a3.732,3.732,0,0,1-1.027-.293h1.027C1006.494,772.347,1006.494,772.494,1006.494,772.494Z" transform="translate(-999.6 -767.8)" fill="#fff"/>
          </g>
          <g id="Grupo_259" data-name="Grupo 259">
            <path id="Trazado_2592" data-name="Trazado 2592" d="M1005.987,770.8a2.787,2.787,0,0,0,0,5.574,2.787,2.787,0,1,0,0-5.574Zm1.32,1.907h0l-1.027,1.32c0,.147-.147.147-.293.147s-.293,0-.293-.147l-1.027-1.32v-.293c0-.147.147-.147.293-.147h.44v-.733a.316.316,0,0,1,.293-.294h.293a.316.316,0,0,1,.293.294v.733h.44c.147,0,.294,0,.294.147C1007.307,772.414,1007.307,772.56,1007.307,772.707Z" transform="translate(-995.573 -761.852)" fill="#fff"/>
            <g id="Grupo_258" data-name="Grupo 258">
              <path id="Trazado_2593" data-name="Trazado 2593" d="M1003.6,774.3Z" transform="translate(-995.386 -760.218)" fill="#fff"/>
              <path id="Trazado_2594" data-name="Trazado 2594" d="M1005.9,770.5Z" transform="translate(-994.312 -761.992)" fill="#fff"/>
              <path id="Trazado_2595" data-name="Trazado 2595" d="M1009.295,769.54l-4.547-4.547a1.24,1.24,0,0,0-.88-.293h-4.694A1.157,1.157,0,0,0,998,765.873v11.881a1.157,1.157,0,0,0,1.173,1.173h6.894l-.44-.44h-6.454a.693.693,0,0,1-.733-.733V765.873a.693.693,0,0,1,.733-.733h4.694a.539.539,0,0,1,.44.147l4.547,4.547a.539.539,0,0,1,.147.44v2.494l.44.44v-2.934A.645.645,0,0,0,1009.295,769.54Z" transform="translate(-998 -764.7)" fill="#fff"/>
              <path id="Trazado_2596" data-name="Trazado 2596" d="M1006.04,770.64h0l-.44-.44" transform="translate(-994.452 -762.132)" fill="#fff"/>
            </g>
          </g>
        </g>
      </g>
    </g>
    <g id="Grupo_263" data-name="Grupo 263" transform="translate(1384.483 6731.509)">
      <circle id="Elipse_127" data-name="Elipse 127" cx="14.375" cy="14.375" r="14.375" fill="#f15a32"/>
      <g id="Grupo_262" data-name="Grupo 262" transform="translate(8.508 7.628)">
        <path id="Trazado_2597" data-name="Trazado 2597" d="M988.341,774.828h-1.907V766.76a.631.631,0,0,0-.587-.587h-.587v-.587a.631.631,0,0,0-.587-.587H983.5a.631.631,0,0,0-.587.587v.587H980.42v-.587a.631.631,0,0,0-.587-.587H978.66a.631.631,0,0,0-.587.587v.587h-.587a.631.631,0,0,0-.587.587v8.654a3.008,3.008,0,0,0,3.08,3.08h6.161a3.008,3.008,0,0,0,3.08-3.08C988.928,775.121,988.635,774.828,988.341,774.828Zm-10.561.587v-8.068h7.188v7.481h-3.08a.631.631,0,0,0-.587.587,1.942,1.942,0,0,1-1.907,1.907A1.918,1.918,0,0,1,977.78,775.415Zm8.068,1.907h-3.667a2.95,2.95,0,0,0,.587-1.173h4.841A1.981,1.981,0,0,1,985.848,777.322Z" transform="translate(-976.9 -765)" fill="#fff"/>
        <path id="Trazado_2598" data-name="Trazado 2598" d="M978.987,769.073h3.667a.587.587,0,1,0,0-1.174h-3.667a.631.631,0,0,0-.587.587C978.4,768.927,978.547,769.073,978.987,769.073Z" transform="translate(-976.2 -763.646)" fill="#fff"/>
        <path id="Trazado_2599" data-name="Trazado 2599" d="M982.654,770.773a.587.587,0,1,0,0-1.174h-3.667a.587.587,0,0,0,0,1.174Z" transform="translate(-976.2 -762.852)" fill="#fff"/>
      </g>
    </g>
    <g id="Grupo_264" data-name="Grupo 264" transform="translate(1348.866 6764.077)">
      <circle id="Elipse_128" data-name="Elipse 128" cx="14.375" cy="14.375" r="14.375" transform="translate(0 28.376) rotate(-80.747)" fill="#f15a32"/>
      <path id="Trazado_2600" data-name="Trazado 2600" d="M961.588,790.634h1.76v-2.787a1.861,1.861,0,0,1-.88-.147h-1.613a3.493,3.493,0,0,0-3.667,3.08c0,.44-.146.733-.146,1.174v2.2H954.4v3.08h2.64v7.628h3.227v-7.921h2.64l.44-3.08h-3.08v-2.2A1.169,1.169,0,0,1,961.588,790.634Z" transform="translate(-943.279 -779.343)" fill="#fff" fill-rule="evenodd"/>
    </g>
    <g id="Grupo_265" data-name="Grupo 265" transform="translate(1381.217 6764.171)">
      <circle id="Elipse_129" data-name="Elipse 129" cx="14.375" cy="14.375" r="14.375" transform="translate(0 28.376) rotate(-80.747)" fill="#f15a32"/>
      <path id="Trazado_2601" data-name="Trazado 2601" d="M979.887,799.526a3.224,3.224,0,0,1-3.08-2.347,2.5,2.5,0,0,0,1.467,0h0a3.521,3.521,0,0,1-2.2-1.614,3.906,3.906,0,0,1-.44-1.76,2.829,2.829,0,0,0,1.467.44,3.167,3.167,0,0,1-1.32-2.054,4.89,4.89,0,0,1,.293-2.494,9.188,9.188,0,0,0,7.041,3.521v-.44a3.021,3.021,0,0,1,.44-2.2,3.146,3.146,0,0,1,2.347-1.467,3.4,3.4,0,0,1,2.934.88h.147a7.365,7.365,0,0,0,1.907-.733h0a3.756,3.756,0,0,1-1.467,1.907,8.953,8.953,0,0,0,1.907-.44h0l-.44.44a4.466,4.466,0,0,1-1.174,1.173v1.614a12.177,12.177,0,0,1-.88,3.08,8.322,8.322,0,0,1-1.76,2.64,9.362,9.362,0,0,1-4.694,2.64c-.587.147-1.32.147-1.907.293a10.068,10.068,0,0,1-5.427-1.467H974.9a6.534,6.534,0,0,0,3.374-.44A15.34,15.34,0,0,0,979.887,799.526Z" transform="translate(-966.06 -778.795)" fill="#fff" fill-rule="evenodd"/>
    </g>
    <g id="Grupo_266" data-name="Grupo 266" transform="translate(1413.592 6764.12)">
      <circle id="Elipse_130" data-name="Elipse 130" cx="14.375" cy="14.375" r="14.375" transform="translate(0 28.376) rotate(-80.747)" fill="#f15a32"/>
      <path id="Trazado_2602" data-name="Trazado 2602" d="M1012.146,791.944a4.368,4.368,0,0,0-1.173-2.64,4.779,4.779,0,0,0-2.787-1.174,41.94,41.94,0,0,0-7.481.147,3.749,3.749,0,0,0-3.227,2.934,55.242,55.242,0,0,0-.147,8.508,3.9,3.9,0,0,0,3.08,3.374,41.211,41.211,0,0,0,8.508,0,3.9,3.9,0,0,0,3.374-3.08A74.735,74.735,0,0,0,1012.146,791.944Zm-1.467,7.628a2.549,2.549,0,0,1-2.494,2.347,47.653,47.653,0,0,1-7.921-.147,2.508,2.508,0,0,1-1.907-2.2,66.114,66.114,0,0,1,0-7.628,2.524,2.524,0,0,1,2.347-2.347,63.649,63.649,0,0,1,7.481,0,2.55,2.55,0,0,1,2.347,2.494A25.587,25.587,0,0,1,1010.679,799.572Zm-6.014-7.628a3.961,3.961,0,1,0,3.96,3.961A3.944,3.944,0,0,0,1004.665,791.944Zm0,6.308a2.494,2.494,0,0,1,0-4.987,2.571,2.571,0,0,1,2.494,2.494A2.385,2.385,0,0,1,1004.665,798.252Zm4.987-6.454a.88.88,0,1,1-.88-.88C1009.212,790.771,1009.652,791.211,1009.652,791.8Z" transform="translate(-988.008 -779.23)" fill="#fff"/>
      <path id="Trazado_2603" data-name="Trazado 2603" d="M1012.146,791.944a4.368,4.368,0,0,0-1.173-2.64,4.779,4.779,0,0,0-2.787-1.174,41.94,41.94,0,0,0-7.481.147,3.749,3.749,0,0,0-3.227,2.934,55.242,55.242,0,0,0-.147,8.508,3.9,3.9,0,0,0,3.08,3.374,41.211,41.211,0,0,0,8.508,0,3.9,3.9,0,0,0,3.374-3.08A74.735,74.735,0,0,0,1012.146,791.944Zm-1.467,7.628a2.549,2.549,0,0,1-2.494,2.347,47.653,47.653,0,0,1-7.921-.147,2.508,2.508,0,0,1-1.907-2.2,66.114,66.114,0,0,1,0-7.628,2.524,2.524,0,0,1,2.347-2.347,63.649,63.649,0,0,1,7.481,0,2.55,2.55,0,0,1,2.347,2.494A25.587,25.587,0,0,1,1010.679,799.572Zm-6.014-7.628a3.961,3.961,0,1,0,3.96,3.961A3.944,3.944,0,0,0,1004.665,791.944Zm0,6.308a2.494,2.494,0,0,1,0-4.987,2.571,2.571,0,0,1,2.494,2.494A2.385,2.385,0,0,1,1004.665,798.252Zm4.987-6.454a.88.88,0,1,1-.88-.88C1009.212,790.771,1009.652,791.211,1009.652,791.8Z" transform="translate(-988.008 -779.23)" fill="#fff"/>
    </g>
    <g id="Grupo_267" data-name="Grupo 267" transform="translate(1448.144 6766.567)">
      <circle id="Elipse_131" data-name="Elipse 131" cx="14.375" cy="14.375" r="14.375" fill="#f15a32"/>
      <path id="Trazado_2604" data-name="Trazado 2604" d="M1025.228,799.125h0a13.1,13.1,0,0,1-1.32,4.107,5.261,5.261,0,0,1-1.027,1.467l-.147.147a.144.144,0,0,1-.147-.147,11.108,11.108,0,0,1-.147-2.2c0-.88.147-1.32,1.32-6.454V795.9a4.279,4.279,0,0,1-.147-2.347c.587-1.76,2.494-1.907,2.934-.44.147.88-.293,2.054-.734,3.814-.293,1.467,1.32,2.494,2.787,1.467a5.9,5.9,0,0,0,1.76-4.841c-.147-3.227-3.814-3.961-6.014-2.934-2.641,1.173-3.227,4.4-2.054,5.867.147.147.293.293.147.44-.147.293-.147.587-.293.88a.281.281,0,0,1-.44.147,1.971,1.971,0,0,1-1.027-.88,5.037,5.037,0,0,1,0-5.721,6.676,6.676,0,0,1,6.6-2.934,5.5,5.5,0,0,1,5.134,4.694,7.8,7.8,0,0,1-1.467,5.427c-1.76,2.054-4.4,2.2-5.721.88C1025.522,799.419,1025.375,799.272,1025.228,799.125Z" transform="translate(-1012.027 -781.523)" fill="#fff" fill-rule="evenodd"/>
    </g>
    <g id="Grupo_268" data-name="Grupo 268" transform="translate(1480.415 6766.567)">
      <circle id="Elipse_132" data-name="Elipse 132" cx="14.375" cy="14.375" r="14.375" fill="#f15a32"/>
      <path id="Trazado_2605" data-name="Trazado 2605" d="M1041.1,803.759c.146-.293.146-.587.293-.88a21.45,21.45,0,0,0,.733-2.934v-.44a7.9,7.9,0,1,1,8.214,3.961,8.361,8.361,0,0,1-4.987-.733c-.147,0-.293-.147-.44,0A25.612,25.612,0,0,1,1041.1,803.759Zm1.907-1.76c.733-.147,1.467-.44,2.2-.587a1.109,1.109,0,0,1,.587.147,7.463,7.463,0,0,0,4.4.88,6.587,6.587,0,0,0,5.427-7.481,6.792,6.792,0,0,0-7.774-5.574,6.6,6.6,0,0,0-4.547,9.681,1.378,1.378,0,0,1,.147,1.32A7.787,7.787,0,0,0,1043.007,802Z" transform="translate(-1034.352 -781.756)" fill="#fff" fill-rule="evenodd"/>
      <path id="Trazado_2606" data-name="Trazado 2606" d="M1049.936,798.193c-1.613,0-3.961-1.32-5.721-4.254a2.652,2.652,0,0,1,.293-3.08c.293-.293.734-.147,1.027-.147.147,0,.147.147.147.293a5.255,5.255,0,0,1,.587,1.614c.147.293-.147.587-.44,1.027a.275.275,0,0,0,0,.44,5.507,5.507,0,0,0,2.787,2.347.539.539,0,0,0,.44-.147c.587-.733.733-1.027,1.026-.88,1.614.733,1.76.733,1.76,1.027A1.7,1.7,0,0,1,1049.936,798.193Z" transform="translate(-1033.067 -780.444)" fill="#fff" fill-rule="evenodd"/>
    </g>
    <g id="Grupo_270" data-name="Grupo 270" transform="translate(1512.832 6766.714)">
      <circle id="Elipse_133" data-name="Elipse 133" cx="14.375" cy="14.375" r="14.375" fill="#f15a32"/>
      <g id="Grupo_269" data-name="Grupo 269" transform="translate(7.97 6.014)">
        <path id="Trazado_2607" data-name="Trazado 2607" d="M1070.585,797.728a2.31,2.31,0,0,0-1.907-.587,2,2,0,0,0-1.614,2.347,2.069,2.069,0,0,0,2.054,1.614,1.977,1.977,0,0,0,1.907-2.054V787.9h3.08c.147,0,.147.147.293.147,1.32,1.32,2.64,2.64,3.96,3.814l-2.2,2.2c-.587-.587-1.027-1.173-1.613-1.76a.144.144,0,0,0-.147.147V798.9a5.247,5.247,0,0,1-4.4,5.281,5.144,5.144,0,0,1-5.868-4.107,5.23,5.23,0,0,1,6.161-6.161.661.661,0,0,1,.44.44A25.99,25.99,0,0,0,1070.585,797.728Z" transform="translate(-1064.033 -787.9)" fill="#fff"/>
      </g>
    </g>
    <g id="Grupo_271" data-name="Grupo 271" transform="translate(1545.103 6766.567)">
      <circle id="Elipse_134" data-name="Elipse 134" cx="14.375" cy="14.375" r="14.375" fill="#f15a32"/>
      <path id="Trazado_2608" data-name="Trazado 2608" d="M1086.885,800.233a1.592,1.592,0,0,1-1.174-1.173c-.44-1.32-.587-7.188.293-8.361a1.975,1.975,0,0,1,1.32-.734c2.64-.293,10.708-.293,11.588.147a2.036,2.036,0,0,1,1.174,1.027,18.707,18.707,0,0,1,0,8.068c-.147.44-.44.587-.88.88C1098.179,800.673,1088.058,800.673,1086.885,800.233Zm4.107-2.64c1.613-.88,3.08-1.614,4.694-2.494-1.614-.88-3.08-1.614-4.694-2.494Z" transform="translate(-1078.377 -780.871)" fill="#fff" fill-rule="evenodd"/>
    </g>
    <g id="Grupo_272" data-name="Grupo 272" transform="translate(1314.515 6637.191)">
      <path id="Trazado_2620" data-name="Trazado 2620" d="M954.937,695.5h-28.9a2.629,2.629,0,0,0-2.64,2.64v20.242a2.629,2.629,0,0,0,2.64,2.64h11.882v2.054a1.761,1.761,0,0,1-1.614,1.76l-4.987.44a.316.316,0,0,0-.293.293v.733a.316.316,0,0,0,.293.293H949.51a.315.315,0,0,0,.293-.293v-.733a.315.315,0,0,0-.293-.293l-4.987-.44a1.875,1.875,0,0,1-1.613-1.76V721.17h11.881a2.629,2.629,0,0,0,2.64-2.64V698.287A2.4,2.4,0,0,0,954.937,695.5Zm0,2.64v20.242h-28.9V698.14Z" transform="translate(-923.4 -695.5)" fill="#f15a32"/>
      <path id="Trazado_2621" data-name="Trazado 2621" d="M928.347,705.634v2.2h.587a.315.315,0,0,0,.293-.293v-2.347l.147.587c.147.587.44,1.173.587,1.76a.144.144,0,0,0,.147.147h.587c.147,0,.147,0,.147-.147V702.7h-.88v2.787l-.147-.44c-.293-.733-.44-1.467-.733-2.054,0-.147,0-.147-.147-.147H928.2v1.907Z" transform="translate(-921.159 -692.139)" fill="#f15a32"/>
      <path id="Trazado_2622" data-name="Trazado 2622" d="M940.047,707.541h.587c.147,0,.147,0,.147-.147s.147-.293.147-.44l.147-.44.147-.293.147.44.44.88h0a.144.144,0,0,0,.147.147.883.883,0,0,1,.587.147h.293v-.147h0c-.293-.88-.587-1.614-.88-2.494v-.147c.147-.44.293-.733.44-1.173h0c.147-.293.293-.733.44-1.027V702.7H942.1c-.147,0-.147,0-.147.147a7.172,7.172,0,0,0-.44,1.027.144.144,0,0,1-.147.147l-.147-.147a2.086,2.086,0,0,1-.293-.88h0a.144.144,0,0,0-.147-.147h-.88v.293l.147.44c.293.587.44,1.173.733,1.76v.293c-.293.733-.587,1.32-.88,2.2h0v.147h0Z" transform="translate(-915.697 -692.139)" fill="#f15a32"/>
      <path id="Trazado_2623" data-name="Trazado 2623" d="M930.8,706.32v1.027h0v.147h.147c.734,0,1.467-.147,2.2-.147a.144.144,0,0,0,.147-.147v-.733H932.12V705.44h1.173v-.733h-1.027V703.68h1.613v-.88h-2.347v1.907Z" transform="translate(-919.945 -692.092)" fill="#f15a32"/>
      <path id="Trazado_2624" data-name="Trazado 2624" d="M934.947,707.247h.733v-1.76h1.027v-.88H935.68V703.58h1.467v-.88H934.8v4.547C934.8,707.1,934.8,707.1,934.947,707.247Z" transform="translate(-918.078 -692.139)" fill="#f15a32"/>
      <path id="Trazado_2625" data-name="Trazado 2625" d="M932.747,703.48h.88v3.814h.88v-1.907h0V703.48h.733v-.88H932.6v.147a1.1,1.1,0,0,1,.147.733Z" transform="translate(-919.105 -692.185)" fill="#f15a32"/>
      <path id="Trazado_2626" data-name="Trazado 2626" d="M936.8,707.1a.144.144,0,0,0,.147.147,10.394,10.394,0,0,1,2.054.147h.147v-.88h-1.32c-.147,0-.147,0-.147-.147V702.7h-.88v4.4Z" transform="translate(-917.144 -692.139)" fill="#f15a32"/>
      <path id="Trazado_2627" data-name="Trazado 2627" d="M938.8,703.38v3.961c0,.147,0,.147.147.147h.733V702.5h-.88v.88Z" transform="translate(-916.211 -692.232)" fill="#f15a32"/>
    </g>
    <g id="Grupo_273" data-name="Grupo 273" transform="translate(1358.227 6637.191)">
      <path id="Trazado_2628" data-name="Trazado 2628" d="M984.737,695.5h-28.9a2.629,2.629,0,0,0-2.64,2.64v20.242a2.629,2.629,0,0,0,2.64,2.64h11.881v2.054a1.761,1.761,0,0,1-1.614,1.76l-4.987.44a.315.315,0,0,0-.293.293v.733a.316.316,0,0,0,.293.293H979.31a.316.316,0,0,0,.293-.293v-.733a.316.316,0,0,0-.293-.293l-4.987-.44a1.875,1.875,0,0,1-1.614-1.76V721.17h11.881a2.629,2.629,0,0,0,2.64-2.64V698.287A2.4,2.4,0,0,0,984.737,695.5Zm0,2.64v20.242h-28.9V698.14Z" transform="translate(-953.2 -695.5)" fill="#f15a32"/>
      <path id="Trazado_2629" data-name="Trazado 2629" d="M958.147,705.634v2.2h.587a.315.315,0,0,0,.293-.293v-2.347l.147.587c.147.587.44,1.173.587,1.76a.144.144,0,0,0,.147.147h.587c.147,0,.147,0,.147-.147V702.7h-.88v2.787l-.147-.44c-.293-.733-.44-1.467-.733-2.054,0-.147,0-.147-.147-.147H958v1.907Z" transform="translate(-950.959 -692.139)" fill="#f15a32"/>
      <path id="Trazado_2630" data-name="Trazado 2630" d="M969.847,707.541h.587c.147,0,.147,0,.147-.147s.147-.293.147-.44l.147-.44.147-.293.147.44.44.88h0a.144.144,0,0,0,.147.147.883.883,0,0,1,.587.147h.293v-.147h0c-.293-.88-.587-1.614-.88-2.494v-.147c.147-.44.293-.733.44-1.173h0c.147-.293.293-.733.44-1.027V702.7H971.9c-.147,0-.147,0-.147.147a7.165,7.165,0,0,0-.44,1.027.144.144,0,0,1-.147.147l-.147-.147a2.085,2.085,0,0,1-.293-.88h0a.144.144,0,0,0-.147-.147h-.88v.293l.147.44c.293.587.44,1.173.733,1.76v.293c-.293.733-.587,1.32-.88,2.2h0v.147h0Z" transform="translate(-945.497 -692.139)" fill="#f15a32"/>
      <path id="Trazado_2631" data-name="Trazado 2631" d="M960.6,706.32v1.027h0v.147h.147c.733,0,1.467-.147,2.2-.147a.144.144,0,0,0,.147-.147v-.733H961.92V705.44h1.173v-.733h-1.027V703.68h1.613v-.88h-2.347v1.907Z" transform="translate(-949.745 -692.092)" fill="#f15a32"/>
      <path id="Trazado_2632" data-name="Trazado 2632" d="M964.747,707.247h.733v-1.76h1.027v-.88H965.48V703.58h1.467v-.88H964.6v4.547C964.6,707.1,964.6,707.1,964.747,707.247Z" transform="translate(-947.878 -692.139)" fill="#f15a32"/>
      <path id="Trazado_2633" data-name="Trazado 2633" d="M962.547,703.48h.88v3.814h.88v-1.907h0V703.48h.733v-.88H962.4v.147a1.1,1.1,0,0,1,.147.733Z" transform="translate(-948.905 -692.185)" fill="#f15a32"/>
      <path id="Trazado_2634" data-name="Trazado 2634" d="M966.6,707.1a.144.144,0,0,0,.147.147,10.393,10.393,0,0,1,2.054.147h.147v-.88h-1.32c-.147,0-.147,0-.147-.147V702.7h-.88v4.4Z" transform="translate(-946.944 -692.139)" fill="#f15a32"/>
      <path id="Trazado_2635" data-name="Trazado 2635" d="M968.6,703.38v3.961c0,.147,0,.147.147.147h.733V702.5h-.88v.88Z" transform="translate(-946.011 -692.232)" fill="#f15a32"/>
    </g>
    <g id="Grupo_274" data-name="Grupo 274" transform="translate(1401.939 6637.191)">
      <path id="Trazado_2636" data-name="Trazado 2636" d="M1014.537,695.5h-28.9a2.629,2.629,0,0,0-2.64,2.64v20.242a2.629,2.629,0,0,0,2.64,2.64h11.881v2.054a1.761,1.761,0,0,1-1.614,1.76l-4.987.44a.316.316,0,0,0-.293.293v.733a.315.315,0,0,0,.293.293h18.189a.316.316,0,0,0,.293-.293v-.733a.316.316,0,0,0-.293-.293l-4.987-.44a1.875,1.875,0,0,1-1.614-1.76V721.17h11.881a2.629,2.629,0,0,0,2.64-2.64V698.287A2.472,2.472,0,0,0,1014.537,695.5Zm0,2.64v20.242h-28.9V698.14Z" transform="translate(-983 -695.5)" fill="#f15a32"/>
      <path id="Trazado_2637" data-name="Trazado 2637" d="M987.947,705.634v2.2h.587a.315.315,0,0,0,.293-.293v-2.347l.147.587c.147.587.44,1.173.587,1.76a.144.144,0,0,0,.147.147h.587c.147,0,.147,0,.147-.147V702.7h-.88v2.787l-.147-.44c-.293-.733-.44-1.467-.733-2.054,0-.147,0-.147-.147-.147H987.8v1.907Z" transform="translate(-980.759 -692.139)" fill="#f15a32"/>
      <path id="Trazado_2638" data-name="Trazado 2638" d="M999.647,707.541h.587c.147,0,.147,0,.147-.147s.147-.293.147-.44l.147-.44.147-.293.147.44.44.88h0a.144.144,0,0,0,.147.147.883.883,0,0,1,.587.147h.293v-.147h0c-.293-.88-.587-1.614-.88-2.494v-.147c.147-.44.293-.733.44-1.173h0c.147-.293.293-.733.44-1.027V702.7h-.733c-.147,0-.147,0-.147.147a7.165,7.165,0,0,0-.44,1.027.144.144,0,0,1-.147.147l-.147-.147a2.086,2.086,0,0,1-.293-.88h0a.144.144,0,0,0-.147-.147h-.88v.293l.147.44c.293.587.44,1.173.733,1.76v.293c-.293.733-.587,1.32-.88,2.2h0v.147h0Z" transform="translate(-975.297 -692.139)" fill="#f15a32"/>
      <path id="Trazado_2639" data-name="Trazado 2639" d="M990.3,706.32v1.027h0v.147h.147c.733,0,1.467-.147,2.2-.147a.144.144,0,0,0,.147-.147v-.733H991.62V705.44h1.173v-.733h-1.027V703.68h1.613v-.88h-2.347v1.907Z" transform="translate(-979.592 -692.092)" fill="#f15a32"/>
      <path id="Trazado_2640" data-name="Trazado 2640" d="M994.447,707.247h.733v-1.76h1.027v-.88H995.18V703.58h1.467v-.88H994.3v4.547C994.447,707.1,994.447,707.1,994.447,707.247Z" transform="translate(-977.725 -692.139)" fill="#f15a32"/>
      <path id="Trazado_2641" data-name="Trazado 2641" d="M992.347,703.48h.88v3.814h.88v-1.907h0V703.48h.733v-.88H992.2v.147a1.1,1.1,0,0,1,.147.733Z" transform="translate(-978.705 -692.185)" fill="#f15a32"/>
      <path id="Trazado_2642" data-name="Trazado 2642" d="M996.4,707.1a.144.144,0,0,0,.147.147,10.392,10.392,0,0,1,2.054.147h.147v-.88h-1.32c-.146,0-.146,0-.146-.147V702.7h-.88v4.4Z" transform="translate(-976.744 -692.139)" fill="#f15a32"/>
      <path id="Trazado_2643" data-name="Trazado 2643" d="M998.4,703.38v3.961c0,.147,0,.147.147.147h.733V702.5h-.88v.88Z" transform="translate(-975.811 -692.232)" fill="#f15a32"/>
    </g>
    <g id="Grupo_275" data-name="Grupo 275" transform="translate(1445.651 6637.191)">
      <path id="Trazado_2644" data-name="Trazado 2644" d="M1044.337,695.5h-28.9a2.629,2.629,0,0,0-2.64,2.64v20.242a2.629,2.629,0,0,0,2.64,2.64h11.881v2.054a1.761,1.761,0,0,1-1.613,1.76l-4.987.44a.316.316,0,0,0-.293.293v.733a.315.315,0,0,0,.293.293h18.189a.315.315,0,0,0,.293-.293v-.733a.316.316,0,0,0-.293-.293l-4.987-.44a1.875,1.875,0,0,1-1.613-1.76V721.17h11.881a2.629,2.629,0,0,0,2.64-2.64V698.287A2.473,2.473,0,0,0,1044.337,695.5Zm0,2.64v20.242h-28.9V698.14Z" transform="translate(-1012.8 -695.5)" fill="#f15a32"/>
      <path id="Trazado_2645" data-name="Trazado 2645" d="M1017.747,705.634v2.2h.587a.315.315,0,0,0,.293-.293v-2.347l.147.587c.147.587.44,1.173.587,1.76a.144.144,0,0,0,.147.147h.587c.147,0,.147,0,.147-.147V702.7h-.88v2.787l-.147-.44c-.293-.733-.44-1.467-.733-2.054,0-.147,0-.147-.147-.147h-.733v1.907Z" transform="translate(-1010.559 -692.139)" fill="#f15a32"/>
      <path id="Trazado_2646" data-name="Trazado 2646" d="M1029.447,707.541h.587c.147,0,.147,0,.147-.147s.146-.293.146-.44l.147-.44.146-.293.147.44.44.88h0a.144.144,0,0,0,.147.147.883.883,0,0,1,.587.147h.293v-.147h0c-.293-.88-.587-1.614-.88-2.494v-.147c.147-.44.293-.733.44-1.173h0c.147-.293.293-.733.44-1.027V702.7h-.733c-.147,0-.147,0-.147.147a7.15,7.15,0,0,0-.44,1.027.144.144,0,0,1-.147.147l-.147-.147a2.086,2.086,0,0,1-.293-.88h0a.144.144,0,0,0-.147-.147h-.88v.293l.147.44c.293.587.44,1.173.733,1.76v.293c-.293.733-.587,1.32-.88,2.2h0v.147h0Z" transform="translate(-1005.097 -692.139)" fill="#f15a32"/>
      <path id="Trazado_2647" data-name="Trazado 2647" d="M1020.1,706.32v1.027h0v.147h.147c.733,0,1.467-.147,2.2-.147a.144.144,0,0,0,.147-.147v-.733h-1.173V705.44h1.173v-.733h-1.027V703.68h1.613v-.88h-2.347v1.907Z" transform="translate(-1009.392 -692.092)" fill="#f15a32"/>
      <path id="Trazado_2648" data-name="Trazado 2648" d="M1024.246,707.247h.733v-1.76h1.027v-.88h-1.027V703.58h1.467v-.88H1024.1v4.547C1024.246,707.1,1024.246,707.1,1024.246,707.247Z" transform="translate(-1007.525 -692.139)" fill="#f15a32"/>
      <path id="Trazado_2649" data-name="Trazado 2649" d="M1022.147,703.48h.88v3.814h.88v-1.907h0V703.48h.733v-.88H1022v.147a1.1,1.1,0,0,1,.147.733Z" transform="translate(-1008.505 -692.185)" fill="#f15a32"/>
      <path id="Trazado_2650" data-name="Trazado 2650" d="M1026.2,707.1a.144.144,0,0,0,.147.147,10.393,10.393,0,0,1,2.054.147h.147v-.88h-1.32c-.146,0-.146,0-.146-.147V702.7h-.88v4.4Z" transform="translate(-1006.544 -692.139)" fill="#f15a32"/>
      <path id="Trazado_2651" data-name="Trazado 2651" d="M1028.2,703.38v3.961c0,.147,0,.147.147.147h.733V702.5h-.88v.88Z" transform="translate(-1005.611 -692.232)" fill="#f15a32"/>
    </g>
    <g id="Grupo_276" data-name="Grupo 276" transform="translate(1489.363 6637.191)">
      <path id="Trazado_2652" data-name="Trazado 2652" d="M1074.137,695.5h-28.9a2.629,2.629,0,0,0-2.64,2.64v20.242a2.629,2.629,0,0,0,2.64,2.64h11.881v2.054a1.761,1.761,0,0,1-1.613,1.76l-4.987.44a.316.316,0,0,0-.293.293v.733a.316.316,0,0,0,.293.293h18.189a.315.315,0,0,0,.293-.293v-.733a.315.315,0,0,0-.293-.293l-4.988-.44a1.875,1.875,0,0,1-1.613-1.76V721.17h11.881a2.629,2.629,0,0,0,2.64-2.64V698.287A2.473,2.473,0,0,0,1074.137,695.5Zm0,2.64v20.242h-28.9V698.14Z" transform="translate(-1042.6 -695.5)" fill="#f15a32"/>
      <path id="Trazado_2653" data-name="Trazado 2653" d="M1047.447,705.634v2.2h.587a.315.315,0,0,0,.293-.293v-2.347l.147.587c.147.587.44,1.173.587,1.76a.144.144,0,0,0,.147.147h.587c.147,0,.147,0,.147-.147V702.7h-.88v2.787l-.147-.44c-.293-.733-.44-1.467-.733-2.054,0-.147,0-.147-.147-.147h-.733v2.787Z" transform="translate(-1040.406 -692.139)" fill="#f15a32"/>
      <path id="Trazado_2654" data-name="Trazado 2654" d="M1059.247,707.541h.587c.147,0,.147,0,.147-.147s.146-.293.146-.44l.147-.44.146-.293.147.44.44.88h0a.144.144,0,0,0,.147.147.882.882,0,0,1,.587.147h.293v-.147h0c-.293-.88-.587-1.614-.88-2.494v-.147c.147-.44.293-.733.44-1.173h0c.146-.293.293-.733.44-1.027V702.7h-.733c-.147,0-.147,0-.147.147a7.165,7.165,0,0,0-.44,1.027.144.144,0,0,1-.147.147l-.147-.147a2.087,2.087,0,0,1-.293-.88h0a.144.144,0,0,0-.146-.147h-.88v.293l.146.44c.293.587.44,1.173.734,1.76v.293c-.293.733-.587,1.32-.88,2.2h0v.147h0Z" transform="translate(-1034.897 -692.139)" fill="#f15a32"/>
      <path id="Trazado_2655" data-name="Trazado 2655" d="M1049.9,706.32v1.027h0v.147h.146c.734,0,1.467-.147,2.2-.147a.144.144,0,0,0,.147-.147v-.733h-1.174V705.44h1.173v-.733h-1.027V703.68h1.614v-.88h-2.347v1.907Z" transform="translate(-1039.192 -692.092)" fill="#f15a32"/>
      <path id="Trazado_2656" data-name="Trazado 2656" d="M1054.047,707.247h.733v-1.76h1.026v-.88h-1.026V703.58h1.467v-.88H1053.9v4.547C1054.047,707.1,1054.047,707.1,1054.047,707.247Z" transform="translate(-1037.324 -692.139)" fill="#f15a32"/>
      <path id="Trazado_2657" data-name="Trazado 2657" d="M1051.947,703.48h.88v3.814h.88v-1.907h0V703.48h.733v-.88h-2.64v.147a1.1,1.1,0,0,1,.147.733Z" transform="translate(-1038.305 -692.185)" fill="#f15a32"/>
      <path id="Trazado_2658" data-name="Trazado 2658" d="M1055.9,707.1a.144.144,0,0,0,.146.147,10.4,10.4,0,0,1,2.054.147h.147v-.88h-1.32c-.147,0-.147,0-.147-.147V702.7h-.88v4.4Z" transform="translate(-1036.391 -692.139)" fill="#f15a32"/>
      <path id="Trazado_2659" data-name="Trazado 2659" d="M1058,703.38v3.961c0,.147,0,.147.146.147h.734V702.5H1058v.88Z" transform="translate(-1035.41 -692.232)" fill="#f15a32"/>
    </g>
    <g id="Grupo_277" data-name="Grupo 277" transform="translate(1533.075 6637.191)">
      <path id="Trazado_2660" data-name="Trazado 2660" d="M1103.937,695.5h-28.9a2.629,2.629,0,0,0-2.64,2.64v20.242a2.629,2.629,0,0,0,2.64,2.64h11.881v2.054a1.761,1.761,0,0,1-1.613,1.76l-4.987.44a.315.315,0,0,0-.293.293v.733a.315.315,0,0,0,.293.293h18.189a.315.315,0,0,0,.293-.293v-.733a.316.316,0,0,0-.293-.293l-4.987-.44a1.875,1.875,0,0,1-1.613-1.76V721.17h11.881a2.629,2.629,0,0,0,2.64-2.64V698.287A2.473,2.473,0,0,0,1103.937,695.5Zm0,2.64v20.242h-28.9V698.14Z" transform="translate(-1072.4 -695.5)" fill="#f15a32"/>
      <path id="Trazado_2661" data-name="Trazado 2661" d="M1077.247,705.634v2.2h.587a.316.316,0,0,0,.293-.293v-2.347l.146.587c.147.587.44,1.173.587,1.76a.144.144,0,0,0,.146.147h.587c.147,0,.147,0,.147-.147V702.7h-.88v2.787l-.147-.44c-.293-.733-.44-1.467-.733-2.054,0-.147,0-.147-.146-.147h-.734v1.907Z" transform="translate(-1070.206 -692.139)" fill="#f15a32"/>
      <path id="Trazado_2662" data-name="Trazado 2662" d="M1089.047,707.541h.587c.147,0,.147,0,.147-.147s.147-.293.147-.44l.147-.44.147-.293.147.44.44.88h0a.144.144,0,0,0,.147.147.883.883,0,0,1,.587.147h.293v-.147h0c-.293-.88-.587-1.614-.88-2.494v-.147c.147-.44.293-.733.44-1.173h0c.147-.293.293-.733.44-1.027V702.7h-.734c-.146,0-.146,0-.146.147a7.164,7.164,0,0,0-.44,1.027.144.144,0,0,1-.147.147l-.147-.147a2.085,2.085,0,0,1-.293-.88h0a.144.144,0,0,0-.147-.147h-.88v.293l.147.44c.293.587.44,1.173.733,1.76v.293c-.293.733-.587,1.32-.88,2.2h0v.147h0Z" transform="translate(-1064.697 -692.139)" fill="#f15a32"/>
      <path id="Trazado_2663" data-name="Trazado 2663" d="M1079.7,706.32v1.027h0v.147h.146c.734,0,1.467-.147,2.2-.147a.144.144,0,0,0,.147-.147v-.733h-1.173V705.44h1.173v-.733h-1.027V703.68h1.614v-.88h-2.347v1.907Z" transform="translate(-1068.992 -692.092)" fill="#f15a32"/>
      <path id="Trazado_2664" data-name="Trazado 2664" d="M1083.847,707.247h.733v-1.76h1.026v-.88h-1.026V703.58h1.467v-.88H1083.7v4.547C1083.847,707.1,1083.847,707.1,1083.847,707.247Z" transform="translate(-1067.125 -692.139)" fill="#f15a32"/>
      <path id="Trazado_2665" data-name="Trazado 2665" d="M1081.747,703.48h.88v3.814h.88v-1.907h0V703.48h.733v-.88h-2.64v.147a1.1,1.1,0,0,1,.147.733Z" transform="translate(-1068.105 -692.185)" fill="#f15a32"/>
      <path id="Trazado_2666" data-name="Trazado 2666" d="M1085.7,707.1a.144.144,0,0,0,.146.147,10.392,10.392,0,0,1,2.054.147h.147v-.88h-1.32c-.147,0-.147,0-.147-.147V702.7h-.88v4.4Z" transform="translate(-1066.191 -692.139)" fill="#f15a32"/>
      <path id="Trazado_2667" data-name="Trazado 2667" d="M1087.7,703.38v3.961c0,.147,0,.147.147.147h.733V702.5h-.88v.88Z" transform="translate(-1065.257 -692.232)" fill="#f15a32"/>
    </g>
    <g id="Grupo_278" data-name="Grupo 278" transform="translate(1576.787 6637.191)">
      <path id="Trazado_2668" data-name="Trazado 2668" d="M1133.737,695.5h-28.9a2.629,2.629,0,0,0-2.641,2.64v20.242a2.629,2.629,0,0,0,2.641,2.64h11.881v2.054a1.761,1.761,0,0,1-1.614,1.76l-4.987.44a.315.315,0,0,0-.293.293v.733a.316.316,0,0,0,.293.293h18.189a.316.316,0,0,0,.293-.293v-.733a.316.316,0,0,0-.293-.293l-4.987-.44a1.875,1.875,0,0,1-1.613-1.76V721.17h11.881a2.629,2.629,0,0,0,2.64-2.64V698.287A2.473,2.473,0,0,0,1133.737,695.5Zm0,2.64v20.242h-28.9V698.14Z" transform="translate(-1102.2 -695.5)" fill="#f15a32"/>
      <path id="Trazado_2669" data-name="Trazado 2669" d="M1107.047,705.634v2.2h.587a.315.315,0,0,0,.293-.293v-2.347l.147.587c.147.587.44,1.173.587,1.76a.144.144,0,0,0,.147.147h.587c.146,0,.146,0,.146-.147V702.7h-.88v2.787l-.147-.44c-.293-.733-.44-1.467-.733-2.054,0-.147,0-.147-.147-.147h-.733v2.787Z" transform="translate(-1100.006 -692.139)" fill="#f15a32"/>
      <path id="Trazado_2670" data-name="Trazado 2670" d="M1118.746,707.541h.587c.147,0,.147,0,.147-.147s.147-.293.147-.44l.147-.44.146-.293.147.44.44.88h0a.144.144,0,0,0,.147.147.883.883,0,0,1,.587.147h.293v-.147h0c-.293-.88-.587-1.614-.88-2.494v-.147c.146-.44.293-.733.44-1.173h0c.147-.293.293-.733.44-1.027V702.7h-.733c-.147,0-.147,0-.147.147a7.18,7.18,0,0,0-.44,1.027.144.144,0,0,1-.147.147l-.147-.147a2.086,2.086,0,0,1-.293-.88h0a.144.144,0,0,0-.147-.147h-.88v.293l.146.44c.293.587.44,1.173.734,1.76v.293c-.293.733-.587,1.32-.88,2.2h0v.147h0Z" transform="translate(-1094.544 -692.139)" fill="#f15a32"/>
      <path id="Trazado_2671" data-name="Trazado 2671" d="M1109.5,706.32v1.027h0v.147h.147c.733,0,1.467-.147,2.2-.147a.144.144,0,0,0,.147-.147v-.733h-1.173V705.44h1.173v-.733h-1.027V703.68h1.614v-.88h-2.347v1.907Z" transform="translate(-1098.792 -692.092)" fill="#f15a32"/>
      <path id="Trazado_2672" data-name="Trazado 2672" d="M1113.646,707.247h.733v-1.76h1.026v-.88h-1.026V703.58h1.467v-.88H1113.5v4.547C1113.646,707.1,1113.646,707.1,1113.646,707.247Z" transform="translate(-1096.924 -692.139)" fill="#f15a32"/>
      <path id="Trazado_2673" data-name="Trazado 2673" d="M1111.547,703.48h.88v3.814h.88v-1.907h0V703.48h.734v-.88H1111.4v.147a1.1,1.1,0,0,1,.147.733Z" transform="translate(-1097.905 -692.185)" fill="#f15a32"/>
      <path id="Trazado_2674" data-name="Trazado 2674" d="M1115.5,707.1a.144.144,0,0,0,.147.147,10.39,10.39,0,0,1,2.053.147h.147v-.88h-1.32c-.147,0-.147,0-.147-.147V702.7h-.88v4.4Z" transform="translate(-1095.991 -692.139)" fill="#f15a32"/>
      <path id="Trazado_2675" data-name="Trazado 2675" d="M1117.5,703.38v3.961c0,.147,0,.147.147.147h.734V702.5h-.88v.88Z" transform="translate(-1095.057 -692.232)" fill="#f15a32"/>
    </g>
    <g id="Grupo_279" data-name="Grupo 279" transform="translate(1513.712 6680.646)">
      <path id="Trazado_2676" data-name="Trazado 2676" d="M1059.347,747.7a20.82,20.82,0,0,1,.734-3.227,15.29,15.29,0,0,1,6.894-8.508c.147,0,.147-.147.293-.147a1.977,1.977,0,0,1,2.347,0,7.53,7.53,0,0,0,3.521,1.027c.147,0,.147,0,.293.147a3.069,3.069,0,0,1-.88.587,17.278,17.278,0,0,0-6.6,10.268c-.147.587-.147,1.027-.293,1.614,0,.293-.147.293-.44.293a39.637,39.637,0,0,1-6.014-1.174A1.86,1.86,0,0,0,1059.347,747.7Z" transform="translate(-1059.2 -720.311)" fill="#f15a32"/>
      <path id="Trazado_2677" data-name="Trazado 2677" d="M1079.836,751.669a60.281,60.281,0,0,1-13.788-1.32c-1.174-.293-1.174,0-1.027-1.467a15.832,15.832,0,0,1,4.547-9.241,15.624,15.624,0,0,1,4.107-2.787.936.936,0,0,1,.88,0,9.8,9.8,0,0,0,9.828,0,.874.874,0,0,1,1.027,0,14.651,14.651,0,0,1,7.041,6.6,16.043,16.043,0,0,1,1.76,5.868c.147.587,0,.733-.587.88a45.717,45.717,0,0,1-7.627,1.173C1083.8,751.522,1081.6,751.669,1079.836,751.669Z" transform="translate(-1056.513 -719.728)" fill="#f15a32"/>
      <path id="Trazado_2678" data-name="Trazado 2678" d="M1077.234,741.123a7.421,7.421,0,0,1-7.334-7.188,7.334,7.334,0,1,1,14.669,0A7.135,7.135,0,0,1,1077.234,741.123Z" transform="translate(-1054.204 -724.438)" fill="#f15a32"/>
      <path id="Trazado_2679" data-name="Trazado 2679" d="M1080.7,736.755a17.3,17.3,0,0,0,2.934-.587,5.422,5.422,0,0,0,1.613-.733.935.935,0,0,1,.88,0,13.227,13.227,0,0,1,4.694,3.374,15.68,15.68,0,0,1,4.107,9.241c0,.44,0,.587-.44.733-1.76.44-3.667.733-5.427,1.027-.293,0-.44,0-.44-.293a11.757,11.757,0,0,0-.733-3.08,16.6,16.6,0,0,0-3.814-6.6,12.768,12.768,0,0,0-3.08-2.494C1080.994,737.048,1080.994,736.9,1080.7,736.755Z" transform="translate(-1049.163 -720.363)" fill="#f15a32"/>
      <path id="Trazado_2680" data-name="Trazado 2680" d="M1081.837,725.2c3.521-.147,6.747,2.934,7.041,6.747a7.26,7.26,0,0,1-6.307,7.774H1081.4c-.44,0-.44-.147-.146-.44a7.406,7.406,0,0,0,1.32-3.374,9.233,9.233,0,0,0-3.08-8.508,6.878,6.878,0,0,0-1.32-.88q-.44-.22,0-.44A7.147,7.147,0,0,1,1081.837,725.2Z" transform="translate(-1050.447 -725.091)" fill="#f15a32"/>
      <path id="Trazado_2681" data-name="Trazado 2681" d="M1071.455,739.757a7.274,7.274,0,0,1-7.041-6.6,7.137,7.137,0,0,1,6.161-7.921,6.91,6.91,0,0,1,4.841.88q.44.22,0,.44a8.961,8.961,0,0,0-4.547,6.6,9.512,9.512,0,0,0,1.174,6.014c.147.147.293.293.293.44-.147.147-.44,0-.587.147Z" transform="translate(-1056.786 -725.125)" fill="#f15a32"/>
    </g>
    <g id="Grupo_285" data-name="Grupo 285" transform="translate(1363.654 6681.636)">
      <g id="Grupo_280" data-name="Grupo 280" transform="translate(56.18)">
        <path id="Trazado_2682" data-name="Trazado 2682" d="M995.2,741.349V728.294a2.42,2.42,0,0,1,1.32-2.2,2.722,2.722,0,0,1,1.027-.293h12.908a2.317,2.317,0,0,1,2.347,2.347V754.4a2.412,2.412,0,0,1-2.347,2.347H997.694a2.317,2.317,0,0,1-2.347-2.347C995.347,750,995.2,745.6,995.2,741.349Zm1.76-1.76v9.535c0,.44,0,.44.44.44h13.2c.44,0,.44,0,.44-.44V730.054c0-.293,0-.293-.293-.293H997.4c-.293,0-.293,0-.293.293C996.96,733.281,996.96,736.361,996.96,739.588ZM1004,751.617a1.354,1.354,0,0,0-1.32,1.467,1.32,1.32,0,1,0,2.64,0A1.354,1.354,0,0,0,1004,751.617Z" transform="translate(-995.2 -725.8)" fill="#f15a32"/>
      </g>
      <g id="Grupo_281" data-name="Grupo 281" transform="translate(28.163)">
        <path id="Trazado_2683" data-name="Trazado 2683" d="M976.1,741.349V728.294a2.42,2.42,0,0,1,1.32-2.2,2.721,2.721,0,0,1,1.027-.293h12.908a2.317,2.317,0,0,1,2.347,2.347V754.4a2.412,2.412,0,0,1-2.347,2.347H978.594a2.317,2.317,0,0,1-2.347-2.347C976.1,750,976.1,745.6,976.1,741.349Zm1.614-1.76v9.535c0,.44,0,.44.44.44h13.2c.44,0,.44,0,.44-.44V730.054c0-.293,0-.293-.293-.293H978.154c-.293,0-.293,0-.293.293C977.714,733.281,977.714,736.361,977.714,739.588Zm7.041,12.028a1.355,1.355,0,0,0-1.32,1.467,1.32,1.32,0,0,0,2.64,0A1.277,1.277,0,0,0,984.754,751.617Z" transform="translate(-976.1 -725.8)" fill="#f15a32"/>
      </g>
      <g id="Grupo_282" data-name="Grupo 282">
        <path id="Trazado_2684" data-name="Trazado 2684" d="M956.9,741.349V728.294a2.42,2.42,0,0,1,1.32-2.2,2.722,2.722,0,0,1,1.027-.293h12.908a2.317,2.317,0,0,1,2.347,2.347V754.4a2.412,2.412,0,0,1-2.347,2.347H959.394a2.317,2.317,0,0,1-2.347-2.347C956.9,750,956.9,745.6,956.9,741.349Zm1.76-1.76v9.535c0,.44,0,.44.44.44h13.2c.44,0,.44,0,.44-.44V730.054c0-.293,0-.293-.293-.293H959.1c-.293,0-.293,0-.293.293C958.66,733.281,958.66,736.361,958.66,739.588Zm6.894,12.028a1.354,1.354,0,0,0-1.32,1.467,1.32,1.32,0,1,0,2.64,0A1.214,1.214,0,0,0,965.554,751.617Z" transform="translate(-956.9 -725.8)" fill="#f15a32"/>
      </g>
      <g id="Grupo_283" data-name="Grupo 283" transform="translate(84.344)">
        <path id="Trazado_2685" data-name="Trazado 2685" d="M1014.4,741.349V728.294a2.42,2.42,0,0,1,1.32-2.2,2.722,2.722,0,0,1,1.027-.293h12.908a2.317,2.317,0,0,1,2.347,2.347V754.4a2.412,2.412,0,0,1-2.347,2.347h-12.762a2.317,2.317,0,0,1-2.347-2.347C1014.4,750,1014.4,745.6,1014.4,741.349Zm1.76-1.76v9.535c0,.44,0,.44.44.44h13.2c.44,0,.44,0,.44-.44V730.054c0-.293,0-.293-.293-.293H1016.6c-.293,0-.293,0-.293.293C1016.16,733.281,1016.16,736.361,1016.16,739.588Zm7.041,12.028a1.355,1.355,0,0,0-1.32,1.467,1.32,1.32,0,0,0,2.64,0A1.354,1.354,0,0,0,1023.2,751.617Z" transform="translate(-1014.4 -725.8)" fill="#f15a32"/>
      </g>
      <g id="Grupo_284" data-name="Grupo 284" transform="translate(112.507)">
        <path id="Trazado_2686" data-name="Trazado 2686" d="M1033.6,741.349V728.294a2.42,2.42,0,0,1,1.32-2.2,2.722,2.722,0,0,1,1.027-.293h12.908a2.317,2.317,0,0,1,2.347,2.347V754.4a2.413,2.413,0,0,1-2.347,2.347h-12.761a2.317,2.317,0,0,1-2.347-2.347C1033.6,750,1033.6,745.6,1033.6,741.349Zm1.76-1.76v9.535c0,.44,0,.44.44.44H1049c.44,0,.44,0,.44-.44V730.054c0-.293,0-.293-.293-.293H1035.8c-.293,0-.293,0-.293.293C1035.36,733.281,1035.36,736.361,1035.36,739.588Zm7.041,12.028a1.355,1.355,0,0,0-1.32,1.467,1.32,1.32,0,0,0,2.641,0A1.355,1.355,0,0,0,1042.4,751.617Z" transform="translate(-1033.6 -725.8)" fill="#f15a32"/>
      </g>
    </g>
  </g>
</svg>
