<svg xmlns="http://www.w3.org/2000/svg" width="304.76" height="167.54" viewBox="0 0 304.76 167.54">
  <g id="Grupo_292" data-name="Grupo 292" transform="translate(-806.804 -5823.96)">
    <g id="Grupo_113" data-name="Grupo 113" transform="translate(865.713 5823.96)">
      <g id="Grupo_110" data-name="Grupo 110">
        <path id="Trazado_1503" data-name="Trazado 1503" d="M667.753,230.4h-46.5A4.257,4.257,0,0,0,617,234.654v32.711a4.257,4.257,0,0,0,4.254,4.254H640.47v3.374a2.758,2.758,0,0,1-2.64,2.787l-8.068.587a.389.389,0,0,0-.44.44v1.173a.389.389,0,0,0,.44.44H659.1a.389.389,0,0,0,.44-.44v-1.173a.389.389,0,0,0-.44-.44l-8.068-.587a2.86,2.86,0,0,1-2.64-2.787v-3.374h19.216a4.257,4.257,0,0,0,4.254-4.254V234.654A3.963,3.963,0,0,0,667.753,230.4Zm0,4.4v32.711h-46.5V234.8Z" transform="translate(-617 -230.4)" fill="#f15a32"/>
        <path id="Trazado_1504" data-name="Trazado 1504" d="M624.8,247.081v3.667h.293c.293,0,.44-.147.88-.147a.389.389,0,0,0,.44-.44V246.2l.293.88c.293.88.733,1.907,1.027,2.787a.316.316,0,0,0,.293.293h.147c.293,0,.587-.147,1.027-.147a.316.316,0,0,0,.293-.293V241.8h-1.32v4.4l-.293-.733a30.7,30.7,0,0,1-1.174-3.374.315.315,0,0,0-.293-.293h-1.027v3.08Z" transform="translate(-613.359 -225.078)" fill="#f15a32"/>
        <path id="Trazado_1505" data-name="Trazado 1505" d="M643.814,250.208a1.86,1.86,0,0,1,.88.147h0c.147,0,.147-.147.293-.147a2.477,2.477,0,0,0,.293-.733l.293-.733.147-.44a2.15,2.15,0,0,0,.293.587c.147.44.44,1.027.587,1.467h0a.144.144,0,0,0,.147.147c.293,0,.733.147,1.027.147h.44v-.44h0v-.147c-.44-1.32-1.027-2.64-1.467-3.96v-.293a8.963,8.963,0,0,0,.733-1.76V243.9c.293-.587.44-1.173.733-1.76v-.293l-.147-.147h-1.027a.316.316,0,0,0-.293.293c-.293.587-.44,1.027-.733,1.614,0,.147-.147.147-.147.293l-.147-.293c-.147-.44-.44-1.027-.587-1.467h0c0-.147,0-.147-.293-.147h-1.32l.147.147v.147l.293.733c.293.88.733,1.907,1.027,2.787v.44c-.44,1.174-1.027,2.2-1.467,3.52h0a.2.2,0,0,0,0,.293h0Z" transform="translate(-604.649 -225.125)" fill="#f15a32"/>
        <path id="Trazado_1506" data-name="Trazado 1506" d="M628.893,248.107v1.614h0v.147h.147c1.173-.147,2.347-.147,3.521-.293a.316.316,0,0,0,.293-.293v-1.173h-2.347V246.2h1.467v-1.32H630.36v-1.614h2.2v-1.32a.512.512,0,0,0-.293-.147H629.04c-.147,0-.147,0-.293.147a.512.512,0,0,0-.147.293v2.787Z" transform="translate(-611.585 -225.078)" fill="#f15a32"/>
        <path id="Trazado_1507" data-name="Trazado 1507" d="M635.431,249.428h1.32a.512.512,0,0,0,.147-.293v-2.64H638.8v-1.467h-1.76v-1.614H639.1c.147,0,.147,0,.293-.147V241.8h-3.814v7.188C635.284,249.281,635.284,249.428,635.431,249.428Z" transform="translate(-608.44 -225.078)" fill="#f15a32"/>
        <path id="Trazado_1508" data-name="Trazado 1508" d="M632.035,243.367h1.32v6.014h1.32a.512.512,0,0,0,.147-.293V243.22h1.32V241.9h-4.107v1.173C631.888,243.22,631.888,243.22,632.035,243.367Z" transform="translate(-610.032 -225.031)" fill="#f15a32"/>
        <path id="Trazado_1509" data-name="Trazado 1509" d="M638.5,249.281c0,.147,0,.293.293.293,1.027,0,2.2.147,3.227.147h.147v-1.467a.512.512,0,0,0-.293-.147h-1.907c-.147,0-.147,0-.147-.293V241.8H638.5v7.481Z" transform="translate(-606.963 -225.078)" fill="#f15a32"/>
        <path id="Trazado_1510" data-name="Trazado 1510" d="M641.7,243.12v6.307c0,.147,0,.293.293.293a1.86,1.86,0,0,1,.88.147h.293V241.8h-1.32v.733C641.7,242.973,641.7,242.973,641.7,243.12Z" transform="translate(-605.469 -225.078)" fill="#f15a32"/>
      </g>
      <g id="Grupo_111" data-name="Grupo 111" transform="translate(65.862)">
        <path id="Trazado_1511" data-name="Trazado 1511" d="M712.653,230.4h-46.5a4.257,4.257,0,0,0-4.254,4.254v32.711a4.257,4.257,0,0,0,4.254,4.254H685.37v3.374a2.758,2.758,0,0,1-2.64,2.787l-8.068.587a.389.389,0,0,0-.44.44v1.173a.389.389,0,0,0,.44.44H704a.389.389,0,0,0,.44-.44v-1.173a.389.389,0,0,0-.44-.44l-8.068-.587a2.86,2.86,0,0,1-2.64-2.787v-3.374h19.216a4.257,4.257,0,0,0,4.254-4.254V234.654A4.046,4.046,0,0,0,712.653,230.4Zm0,4.4v32.711h-46.5V234.8Z" transform="translate(-661.9 -230.4)" fill="#f15a32"/>
        <path id="Trazado_1512" data-name="Trazado 1512" d="M669.7,247.081v3.667h.293c.293,0,.44-.147.88-.147a.389.389,0,0,0,.44-.44V246.2l.293.88c.293.88.733,1.907,1.027,2.787a.316.316,0,0,0,.293.293h.147c.293,0,.587-.147,1.027-.147a.316.316,0,0,0,.293-.293V241.8h-1.32v4.4l-.293-.733a30.714,30.714,0,0,1-1.174-3.374.315.315,0,0,0-.293-.293h-1.027v3.08Z" transform="translate(-658.259 -225.078)" fill="#f15a32"/>
        <path id="Trazado_1513" data-name="Trazado 1513" d="M688.614,250.208a1.86,1.86,0,0,1,.88.147h0c.147,0,.147-.147.293-.147a2.478,2.478,0,0,0,.293-.733l.293-.733.147-.44a2.15,2.15,0,0,0,.293.587c.147.44.44,1.027.587,1.467h0a.144.144,0,0,0,.147.147c.293,0,.733.147,1.027.147h.44v-.44h0v-.147c-.44-1.32-1.027-2.64-1.467-3.96v-.293a8.966,8.966,0,0,0,.733-1.76V243.9c.293-.587.44-1.173.733-1.76v-.293l-.147-.147h-1.027a.316.316,0,0,0-.293.293c-.293.587-.44,1.027-.733,1.614,0,.147-.147.147-.147.293l-.147-.293c-.147-.44-.44-1.027-.587-1.467h0c0-.147,0-.147-.293-.147h-1.32l.147.147v.147l.293.733c.293.88.733,1.907,1.027,2.787v.44c-.44,1.174-1.027,2.2-1.467,3.52h0a.2.2,0,0,0,0,.293h0Z" transform="translate(-649.596 -225.125)" fill="#f15a32"/>
        <path id="Trazado_1514" data-name="Trazado 1514" d="M673.793,248.107v1.614h0v.147h.147c1.174-.147,2.347-.147,3.52-.293a.315.315,0,0,0,.293-.293v-1.173h-2.347V246.2h1.467v-1.32H675.26v-1.614h2.2v-1.32a.512.512,0,0,0-.293-.147H673.94c-.147,0-.147,0-.293.147a.512.512,0,0,0-.147.293v2.787Z" transform="translate(-656.485 -225.078)" fill="#f15a32"/>
        <path id="Trazado_1515" data-name="Trazado 1515" d="M680.331,249.428h1.32a.512.512,0,0,0,.147-.293v-2.64H683.7v-1.467h-1.76v-1.614H684c.147,0,.147,0,.293-.147V241.8h-3.814v7.188C680.184,249.281,680.184,249.428,680.331,249.428Z" transform="translate(-653.34 -225.078)" fill="#f15a32"/>
        <path id="Trazado_1516" data-name="Trazado 1516" d="M676.8,243.367h1.32v6.014h1.32a.512.512,0,0,0,.147-.293V243.22h1.32V241.9H676.8v1.173C676.8,243.22,676.8,243.22,676.8,243.367Z" transform="translate(-654.944 -225.031)" fill="#f15a32"/>
        <path id="Trazado_1517" data-name="Trazado 1517" d="M683.4,249.281c0,.147,0,.293.293.293,1.027,0,2.2.147,3.227.147h.147v-1.467a.512.512,0,0,0-.293-.147h-1.907c-.147,0-.147,0-.147-.293V241.8H683.4v7.481Z" transform="translate(-651.863 -225.078)" fill="#f15a32"/>
        <path id="Trazado_1518" data-name="Trazado 1518" d="M686.6,243.12v6.307c0,.147,0,.293.293.293a1.859,1.859,0,0,1,.88.147h.293V241.8h-1.32v.733C686.6,242.973,686.6,242.973,686.6,243.12Z" transform="translate(-650.369 -225.078)" fill="#f15a32"/>
      </g>
      <g id="Grupo_112" data-name="Grupo 112" transform="translate(131.723)">
        <path id="Trazado_1519" data-name="Trazado 1519" d="M757.553,230.4h-46.5a4.257,4.257,0,0,0-4.254,4.254v32.711a4.257,4.257,0,0,0,4.254,4.254H730.27v3.374a2.758,2.758,0,0,1-2.64,2.787l-8.068.587a.389.389,0,0,0-.44.44v1.173a.389.389,0,0,0,.44.44H748.9a.389.389,0,0,0,.44-.44v-1.173a.389.389,0,0,0-.44-.44l-8.068-.587a2.86,2.86,0,0,1-2.64-2.787v-3.374h19.216a4.257,4.257,0,0,0,4.254-4.254V234.654A4.046,4.046,0,0,0,757.553,230.4Zm0,4.4v32.711h-46.5V234.8Z" transform="translate(-706.8 -230.4)" fill="#f15a32"/>
        <path id="Trazado_1520" data-name="Trazado 1520" d="M714.5,247.081v3.667h.293c.293,0,.44-.147.88-.147a.389.389,0,0,0,.44-.44V246.2l.293.88c.293.88.734,1.907,1.027,2.787a.316.316,0,0,0,.293.293h.147c.293,0,.587-.147,1.027-.147a.315.315,0,0,0,.293-.293V241.8h-1.32v4.4l-.293-.733a30.714,30.714,0,0,1-1.174-3.374.315.315,0,0,0-.293-.293h-1.027v3.08Z" transform="translate(-703.205 -225.078)" fill="#f15a32"/>
        <path id="Trazado_1521" data-name="Trazado 1521" d="M733.514,250.208a1.86,1.86,0,0,1,.88.147h0c.147,0,.147-.147.293-.147a2.476,2.476,0,0,0,.293-.733l.293-.733.147-.44a2.15,2.15,0,0,0,.293.587c.147.44.44,1.027.587,1.467h0a.144.144,0,0,0,.147.147c.293,0,.734.147,1.027.147h.44v-.44h0v-.147c-.44-1.32-1.027-2.64-1.467-3.96v-.293a8.971,8.971,0,0,0,.734-1.76V243.9c.293-.587.44-1.173.733-1.76v-.293l-.147-.147h-1.027a.316.316,0,0,0-.293.293c-.293.587-.44,1.027-.733,1.614,0,.147-.147.147-.147.293l-.147-.293c-.147-.44-.44-1.027-.587-1.467h0c0-.147,0-.147-.293-.147h-1.32l.147.147v.147l.293.733c.293.88.733,1.907,1.027,2.787v.44c-.44,1.174-1.027,2.2-1.467,3.52h0a.2.2,0,0,0,0,.293h0Z" transform="translate(-694.496 -225.125)" fill="#f15a32"/>
        <path id="Trazado_1522" data-name="Trazado 1522" d="M718.593,248.107v1.614h0v.147h.147c1.173-.147,2.347-.147,3.521-.293a.315.315,0,0,0,.293-.293v-1.173h-2.347V246.2h1.467v-1.32H720.06v-1.614h2.2v-1.32a.512.512,0,0,0-.293-.147H718.74c-.147,0-.147,0-.293.147a.512.512,0,0,0-.147.293v2.787Z" transform="translate(-701.431 -225.078)" fill="#f15a32"/>
        <path id="Trazado_1523" data-name="Trazado 1523" d="M725.1,249.428h1.32a.512.512,0,0,0,.147-.293v-2.64h1.907v-1.467h-1.76v-1.614h2.054c.147,0,.147,0,.293-.147V241.8h-3.814v7.188A1.135,1.135,0,0,0,725.1,249.428Z" transform="translate(-698.257 -225.078)" fill="#f15a32"/>
        <path id="Trazado_1524" data-name="Trazado 1524" d="M721.7,243.367h1.32v6.014h1.32a.512.512,0,0,0,.147-.293V243.22h1.32V241.9H721.7v1.173C721.7,243.22,721.7,243.22,721.7,243.367Z" transform="translate(-699.844 -225.031)" fill="#f15a32"/>
        <path id="Trazado_1525" data-name="Trazado 1525" d="M728.2,249.281c0,.147,0,.293.293.293,1.027,0,2.2.147,3.227.147h.147v-1.467a.512.512,0,0,0-.293-.147h-1.907c-.147,0-.147,0-.147-.293V241.8H728.2v7.481Z" transform="translate(-696.809 -225.078)" fill="#f15a32"/>
        <path id="Trazado_1526" data-name="Trazado 1526" d="M731.5,243.12v6.307c0,.147,0,.293.293.293a1.86,1.86,0,0,1,.88.147h.293V241.8h-1.32v.733C731.5,242.973,731.5,242.973,731.5,243.12Z" transform="translate(-695.269 -225.078)" fill="#f15a32"/>
      </g>
    </g>
    <g id="Grupo_124" data-name="Grupo 124" transform="translate(806.804 5958.045)">
      <g id="Grupo_114" data-name="Grupo 114" transform="translate(0 0.117)">
        <circle id="Elipse_86" data-name="Elipse 86" cx="14.522" cy="14.522" r="14.522" transform="translate(0 28.666) rotate(-80.747)" fill="#f15a32"/>
        <path id="Trazado_1527" data-name="Trazado 1527" d="M591.788,330.534h1.76v-2.787a1.86,1.86,0,0,1-.88-.147h-1.613a3.492,3.492,0,0,0-3.667,3.08c0,.44-.147.733-.147,1.173v2.2H584.6v3.08h2.64v7.628h3.227v-7.774h2.64l.44-3.08h-3.08v-2.2C590.467,330.827,591.054,330.534,591.788,330.534Z" transform="translate(-573.217 -319.225)" fill="#fff" fill-rule="evenodd"/>
      </g>
      <g id="Grupo_115" data-name="Grupo 115" transform="translate(33.198 0)">
        <circle id="Elipse_87" data-name="Elipse 87" cx="14.522" cy="14.522" r="14.522" transform="translate(0 28.666) rotate(-80.747)" fill="#f15a32"/>
        <path id="Trazado_1528" data-name="Trazado 1528" d="M610.827,339.526a3.422,3.422,0,0,1-3.227-2.347,2.5,2.5,0,0,0,1.467,0h0a3.176,3.176,0,0,1-2.2-1.614,3.905,3.905,0,0,1-.44-1.76,2.831,2.831,0,0,0,1.467.44,4.115,4.115,0,0,1-1.467-2.054,4.709,4.709,0,0,1,.293-2.494,9.427,9.427,0,0,0,7.041,3.52v-.44a2.891,2.891,0,0,1,.44-2.2,3.146,3.146,0,0,1,2.347-1.467,3.4,3.4,0,0,1,2.934.88h.147a7.369,7.369,0,0,0,1.907-.733h0a3.754,3.754,0,0,1-1.467,1.907,8.958,8.958,0,0,0,1.907-.44h0l-.44.44a4.463,4.463,0,0,1-1.174,1.173v1.614a12.173,12.173,0,0,1-.88,3.08,6.788,6.788,0,0,1-1.907,2.64,9.362,9.362,0,0,1-4.694,2.64c-.587.147-1.32.147-1.907.293a10.068,10.068,0,0,1-5.427-1.467H605.4a6.533,6.533,0,0,0,3.374-.44A16.837,16.837,0,0,1,610.827,339.526Z" transform="translate(-596.705 -318.419)" fill="#fff" fill-rule="evenodd"/>
      </g>
      <g id="Grupo_116" data-name="Grupo 116" transform="translate(66.372 0.027)">
        <circle id="Elipse_88" data-name="Elipse 88" cx="14.522" cy="14.522" r="14.522" transform="translate(0 28.666) rotate(-80.747)" fill="#f15a32"/>
        <path id="Trazado_1529" data-name="Trazado 1529" d="M643.539,331.844a4.369,4.369,0,0,0-1.173-2.64,4.779,4.779,0,0,0-2.787-1.173,43.9,43.9,0,0,0-7.628.147,4.1,4.1,0,0,0-3.374,2.934,56.816,56.816,0,0,0-.147,8.654,3.9,3.9,0,0,0,3.08,3.374,41.224,41.224,0,0,0,8.508,0,3.9,3.9,0,0,0,3.374-3.08C643.833,338.885,643.686,333.165,643.539,331.844Zm-1.32,7.774a2.55,2.55,0,0,1-2.494,2.347,47.63,47.63,0,0,1-7.921-.147,2.508,2.508,0,0,1-1.907-2.2,68.641,68.641,0,0,1,0-7.774,2.55,2.55,0,0,1,2.494-2.347,63.611,63.611,0,0,1,7.481,0,2.55,2.55,0,0,1,2.347,2.494A66.072,66.072,0,0,1,642.219,339.619Zm-6.161-7.774a3.961,3.961,0,1,0,3.96,3.961A3.944,3.944,0,0,0,636.058,331.844Zm0,6.454a2.494,2.494,0,1,1,2.494-2.494A2.57,2.57,0,0,1,636.058,338.3Zm4.987-6.6a.88.88,0,1,1-.88-.88C640.606,330.671,641.046,331.111,641.046,331.7Z" transform="translate(-619.172 -318.979)" fill="#fff"/>
        <path id="Trazado_1530" data-name="Trazado 1530" d="M643.539,331.844a4.369,4.369,0,0,0-1.173-2.64,4.779,4.779,0,0,0-2.787-1.173,43.9,43.9,0,0,0-7.628.147,4.1,4.1,0,0,0-3.374,2.934,56.816,56.816,0,0,0-.147,8.654,3.9,3.9,0,0,0,3.08,3.374,41.224,41.224,0,0,0,8.508,0,3.9,3.9,0,0,0,3.374-3.08C643.833,338.885,643.686,333.165,643.539,331.844Zm-1.32,7.774a2.55,2.55,0,0,1-2.494,2.347,47.63,47.63,0,0,1-7.921-.147,2.508,2.508,0,0,1-1.907-2.2,68.641,68.641,0,0,1,0-7.774,2.55,2.55,0,0,1,2.494-2.347,63.611,63.611,0,0,1,7.481,0,2.55,2.55,0,0,1,2.347,2.494A66.072,66.072,0,0,1,642.219,339.619Zm-6.161-7.774a3.961,3.961,0,1,0,3.96,3.961A3.944,3.944,0,0,0,636.058,331.844Zm0,6.454a2.494,2.494,0,1,1,2.494-2.494A2.57,2.57,0,0,1,636.058,338.3Zm4.987-6.6a.88.88,0,1,1-.88-.88C640.606,330.671,641.046,331.111,641.046,331.7Z" transform="translate(-619.172 -318.979)" fill="#fff"/>
      </g>
      <g id="Grupo_117" data-name="Grupo 117" transform="translate(101.74 2.184)">
        <circle id="Elipse_89" data-name="Elipse 89" cx="14.522" cy="14.522" r="14.522" fill="#f15a32"/>
        <path id="Trazado_1531" data-name="Trazado 1531" d="M657.128,338.972h0a13.1,13.1,0,0,1-1.32,4.107,5.268,5.268,0,0,1-1.027,1.467l-.147.147a.144.144,0,0,1-.147-.147,11.112,11.112,0,0,1-.147-2.2c0-1.027.147-1.32,1.32-6.454v-.147a4.278,4.278,0,0,1-.147-2.347c.587-1.76,2.494-1.907,2.934-.44.147.88-.293,2.054-.733,3.814-.293,1.467,1.32,2.494,2.787,1.467,1.32-1.027,1.907-3.227,1.76-4.987-.147-3.227-3.814-3.961-6.014-2.934-2.64,1.173-3.227,4.4-2.054,5.867.147.147.293.293.147.44-.147.293-.147.587-.293.88a.281.281,0,0,1-.44.147,1.971,1.971,0,0,1-1.027-.88,5.037,5.037,0,0,1,0-5.721,6.9,6.9,0,0,1,6.747-2.934,5.8,5.8,0,0,1,5.281,4.694,7.8,7.8,0,0,1-1.467,5.427c-1.76,2.054-4.4,2.2-5.721.88C657.275,339.119,657.128,339.119,657.128,338.972Z" transform="translate(-643.633 -321.076)" fill="#fff" fill-rule="evenodd"/>
      </g>
      <g id="Grupo_118" data-name="Grupo 118" transform="translate(134.891 2.184)">
        <circle id="Elipse_90" data-name="Elipse 90" cx="14.522" cy="14.522" r="14.522" fill="#f15a32"/>
        <path id="Trazado_1532" data-name="Trazado 1532" d="M673.5,343.559c.147-.293.147-.587.293-.88a21.448,21.448,0,0,0,.733-2.934v-.44a7.891,7.891,0,0,1,5.134-11.441,8.058,8.058,0,0,1,9.681,6.307,7.9,7.9,0,0,1-6.454,9.241,8.361,8.361,0,0,1-4.987-.733c-.147,0-.293-.147-.44,0A20.634,20.634,0,0,0,673.5,343.559Zm1.907-1.907c.733-.147,1.467-.44,2.2-.587a1.109,1.109,0,0,1,.587.147,7.462,7.462,0,0,0,4.4.88,6.7,6.7,0,0,0,5.574-7.481,6.793,6.793,0,0,0-7.774-5.574c-4.4.88-6.894,5.867-4.547,9.681a1.378,1.378,0,0,1,.147,1.32A5.257,5.257,0,0,0,675.407,341.652Z" transform="translate(-666.606 -321.262)" fill="#fff" fill-rule="evenodd"/>
        <path id="Trazado_1533" data-name="Trazado 1533" d="M682.351,337.993c-1.614,0-3.961-1.32-5.721-4.254a2.442,2.442,0,0,1,.293-3.08c.293-.293.733-.147,1.027-.147.147,0,.147.147.147.293a5.255,5.255,0,0,1,.587,1.613c.147.293-.147.587-.44,1.027a.275.275,0,0,0,0,.44,4.889,4.889,0,0,0,2.787,2.347.539.539,0,0,0,.44-.147c.587-.733.733-1.027,1.027-.88,1.613.733,1.76.733,1.76,1.027A1.794,1.794,0,0,1,682.351,337.993Z" transform="translate(-665.335 -319.95)" fill="#fff" fill-rule="evenodd"/>
      </g>
      <g id="Grupo_120" data-name="Grupo 120" transform="translate(201.339 2.184)">
        <circle id="Elipse_91" data-name="Elipse 91" cx="14.522" cy="14.522" r="14.522" fill="#f15a32"/>
        <g id="Grupo_119" data-name="Grupo 119" transform="translate(7.97 6.307)">
          <path id="Trazado_1534" data-name="Trazado 1534" d="M726.232,337.428a2.31,2.31,0,0,0-1.907-.587,2,2,0,0,0-1.613,2.347,1.936,1.936,0,0,0,2.054,1.614,1.976,1.976,0,0,0,1.907-2.054V327.6h3.08c.147,0,.147.147.293.147l3.96,3.96c-.733.733-1.467,1.467-2.2,2.347-.587-.587-1.027-1.173-1.613-1.76a.144.144,0,0,0-.147.147v6.454a5.245,5.245,0,0,1-4.547,5.281,5.144,5.144,0,0,1-5.867-4.107,5.28,5.28,0,0,1,6.307-6.161.661.661,0,0,1,.44.44A19.675,19.675,0,0,0,726.232,337.428Z" transform="translate(-719.533 -327.6)" fill="#fff"/>
        </g>
      </g>
      <g id="Grupo_121" data-name="Grupo 121" transform="translate(234.49 2.184)">
        <circle id="Elipse_92" data-name="Elipse 92" cx="14.522" cy="14.522" r="14.522" fill="#f15a32"/>
        <path id="Trazado_1535" data-name="Trazado 1535" d="M742.985,340.033a1.592,1.592,0,0,1-1.173-1.173c-.44-1.32-.587-7.188.293-8.361a1.975,1.975,0,0,1,1.32-.733c2.64-.293,10.708-.293,11.735.147.587.147.88.587,1.173,1.173a18.7,18.7,0,0,1,0,8.068c-.147.44-.44.587-.88.88A88.43,88.43,0,0,1,742.985,340.033Zm4.107-2.787c1.614-.88,3.08-1.614,4.694-2.494-1.613-.88-3.08-1.614-4.694-2.494Z" transform="translate(-734.477 -320.377)" fill="#fff" fill-rule="evenodd"/>
      </g>
      <g id="Grupo_122" data-name="Grupo 122" transform="translate(168.16 2.331)">
        <path id="Trazado_1536" data-name="Trazado 1536" d="M720.406,336.748v2.2c0,.293-.147.733-.147,1.027a13.56,13.56,0,0,1-3.374,7.334A14.341,14.341,0,0,1,709.258,352a11.324,11.324,0,0,1-2.2.293h-2.494a6.081,6.081,0,0,1-2.347-.44,14.314,14.314,0,0,1-7.774-5.281,13.817,13.817,0,0,1-2.787-10.855,14.707,14.707,0,0,1,3.374-7.334,14.108,14.108,0,0,1,7.628-4.547c.733-.147,1.467-.293,2.347-.44h2.347a13.829,13.829,0,0,1,6.014,1.907,14.135,14.135,0,0,1,6.747,9.241C720.259,335.281,720.259,336.015,720.406,336.748Zm-16.575-5.574a24.282,24.282,0,0,0-4.694.44c-.733.147-1.32.293-2.054.44a1.351,1.351,0,0,0-1.027,1.614,1.265,1.265,0,0,0,1.614.88.539.539,0,0,0,.44-.147,29.236,29.236,0,0,1,4.987-.733,25.236,25.236,0,0,1,4.694.293,17.349,17.349,0,0,1,6.6,2.054c.147.147.44.147.733.293a1.1,1.1,0,0,0,1.32-.587,1.374,1.374,0,0,0-.293-1.613c-.147-.147-.293-.147-.293-.293a13.837,13.837,0,0,0-3.374-1.467A35.118,35.118,0,0,0,703.831,331.174Zm-.293,7.041a24.229,24.229,0,0,1,5.574.733,17.522,17.522,0,0,1,3.814,1.614,1.017,1.017,0,0,0,1.467-.44.9.9,0,0,0-.44-1.32,18.005,18.005,0,0,0-3.814-1.76,22.009,22.009,0,0,0-8.8-.88,16.26,16.26,0,0,0-3.667.733,1.049,1.049,0,0,0-.733,1.32.963.963,0,0,0,1.173.733.539.539,0,0,0,.44-.147A20.077,20.077,0,0,1,703.537,338.215Zm-.293,2.64a24.557,24.557,0,0,0-4.107.44c-.44.147-.88.147-1.32.293-.293.147-.587.587-.44.88a.93.93,0,0,0,.88.733h.293a25.7,25.7,0,0,1,5.867-.587,16.687,16.687,0,0,1,4.841,1.027c.587.293,1.32.587,1.907.88.44.293.88,0,1.173-.293a.793.793,0,0,0-.293-1.173l-.88-.44C708.964,341.3,706.471,340.855,703.244,340.855Z" transform="translate(-691.481 -323.4)" fill="#f15a32"/>
      </g>
      <g id="Grupo_123" data-name="Grupo 123" transform="translate(267.677 5.265)">
        <path id="Trazado_1537" data-name="Trazado 1537" d="M796.4,342.562a5.812,5.812,0,0,1-4.841,5.867,5.73,5.73,0,0,1-6.6-4.254l-.44-1.76a1.116,1.116,0,0,0-1.173-.88h-11a1.115,1.115,0,0,0-1.173.88,12.213,12.213,0,0,1-.587,2.2,5.541,5.541,0,0,1-4.694,3.667,5.73,5.73,0,0,1-6.454-4.694,5.559,5.559,0,0,1,0-2.2c.293-3.227,1.32-6.161,2.054-9.241.293-1.173.733-2.347,1.027-3.374a2.835,2.835,0,0,1,.733-1.32,5.836,5.836,0,0,1,3.96-2.054h20.683a5.43,5.43,0,0,1,4.987,2.787c0,.147.147.147.147.293q1.54,4.841,2.64,9.681a29.675,29.675,0,0,1,.587,3.814C796.4,342.122,796.4,342.269,796.4,342.562Zm-18.482-14.815h-9.975a3.368,3.368,0,0,0-2.053.587,2.035,2.035,0,0,0-1.027,1.173,81.3,81.3,0,0,0-2.64,9.828,12.22,12.22,0,0,0-.44,3.227,3.363,3.363,0,0,0,3.814,3.374,3.6,3.6,0,0,0,3.08-2.64l.44-1.76a3.609,3.609,0,0,1,3.374-2.64h11.148a3.613,3.613,0,0,1,3.374,2.494l.44,1.76a3.281,3.281,0,0,0,3.667,2.64,3.443,3.443,0,0,0,2.934-2.64,8.288,8.288,0,0,0,0-1.907c-.147-1.614-.587-3.08-.88-4.694-.587-2.2-1.173-4.547-1.907-6.747-.147-.293-.147-.587-.293-.88a3.611,3.611,0,0,0-2.934-1.467C784.518,327.747,781.291,327.747,777.917,327.747Z" transform="translate(-759.325 -325.4)" fill="#f15a32"/>
        <path id="Trazado_1538" data-name="Trazado 1538" d="M764.147,331.92v-.88c0-.293,0-.293.293-.293h1.76c.293,0,.293,0,.293-.293v-1.76a.315.315,0,0,1,.293-.293h1.76c.293,0,.293.147.293.293v1.76c0,.147,0,.293.293.293h1.76c.147,0,.293,0,.293.293v1.76a.316.316,0,0,1-.293.293h-1.76c-.147,0-.293,0-.293.293v1.76c0,.147,0,.293-.293.293H766.64c-.147,0-.293,0-.293-.293v-1.76c0-.147,0-.293-.293-.293h-1.76c-.147,0-.293,0-.293-.293C764.147,332.654,764.147,332.214,764.147,331.92Z" transform="translate(-757.142 -323.999)" fill="#f15a32"/>
        <path id="Trazado_1539" data-name="Trazado 1539" d="M778.3,331.173a1.173,1.173,0,1,1,1.174,1.174A1.08,1.08,0,0,1,778.3,331.173Z" transform="translate(-750.466 -323.253)" fill="#f15a32"/>
        <path id="Trazado_1540" data-name="Trazado 1540" d="M777.873,330.847a1.173,1.173,0,1,1,1.173-1.173A1.157,1.157,0,0,1,777.873,330.847Z" transform="translate(-751.213 -323.953)" fill="#f15a32"/>
        <path id="Trazado_1541" data-name="Trazado 1541" d="M775.1,331.173a1.173,1.173,0,1,1,1.173,1.174C775.687,332.494,775.1,331.907,775.1,331.173Z" transform="translate(-751.96 -323.253)" fill="#f15a32"/>
        <path id="Trazado_1542" data-name="Trazado 1542" d="M777.873,331.6a1.173,1.173,0,1,1-1.173,1.173A1.262,1.262,0,0,1,777.873,331.6Z" transform="translate(-751.213 -322.506)" fill="#f15a32"/>
      </g>
    </g>
    <g id="Grupo_127" data-name="Grupo 127" transform="translate(931.281 5888.794)">
      <g id="Grupo_125" data-name="Grupo 125">
        <path id="Trazado_1543" data-name="Trazado 1543" d="M661.7,293.522V277.534a2.922,2.922,0,0,1,1.613-2.64,4.283,4.283,0,0,1,1.32-.293h15.842a2.7,2.7,0,0,1,2.787,2.787v32.271a2.885,2.885,0,0,1-2.787,2.787h-15.7a2.942,2.942,0,0,1-2.934-2.934C661.7,304.23,661.7,298.8,661.7,293.522Zm2.054-2.054V303.2c0,.44,0,.44.44.44h16.282c.44,0,.44,0,.44-.44v-23.47c0-.44,0-.44-.44-.44H664.047c-.44,0-.44,0-.44.44C663.753,283.548,663.753,287.508,663.753,291.469Zm8.654,14.815a1.784,1.784,0,0,0-1.76,1.76,1.665,1.665,0,0,0,1.76,1.614,1.7,1.7,0,0,0,1.76-1.76A1.665,1.665,0,0,0,672.408,306.284Z" transform="translate(-661.7 -274.6)" fill="#f15a32"/>
      </g>
      <g id="Grupo_126" data-name="Grupo 126" transform="translate(33.738)">
        <path id="Trazado_1544" data-name="Trazado 1544" d="M684.7,293.522V277.534a2.921,2.921,0,0,1,1.613-2.64,4.282,4.282,0,0,1,1.32-.293h15.842a2.7,2.7,0,0,1,2.787,2.787v32.271a2.885,2.885,0,0,1-2.787,2.787h-15.7a2.942,2.942,0,0,1-2.934-2.934C684.7,304.23,684.7,298.8,684.7,293.522Zm2.054-2.054V303.2c0,.44,0,.44.44.44h16.282c.44,0,.44,0,.44-.44v-23.47c0-.44,0-.44-.44-.44H687.047c-.44,0-.44,0-.44.44C686.754,283.548,686.754,287.508,686.754,291.469Zm8.654,14.815a1.784,1.784,0,0,0-1.76,1.76,1.665,1.665,0,0,0,1.76,1.614,1.7,1.7,0,0,0,1.76-1.76A1.761,1.761,0,0,0,695.408,306.284Z" transform="translate(-684.7 -274.6)" fill="#f15a32"/>
      </g>
    </g>
  </g>
</svg>
