<svg xmlns="http://www.w3.org/2000/svg" width="475.117" height="446.101" viewBox="0 0 475.117 446.101">
  <g id="Grupo_78" data-name="Grupo 78" transform="matrix(0.839, 0.545, -0.545, 0.839, 822.567, -655.049)">
    <path id="Trazado_1194" data-name="Trazado 1194" d="M-203.542,1110.894c1.166-9.354,2.054-18.755,3.548-28.058,5.806-36.125,15.46-71.159,30.64-104.532,2.971-6.529,6.108-13.136,11.856-17.908,2.214-1.84,1.574-4.375,1.436-6.626-.462-7.5,1.518-14.195,6.967-19.37,6.563-6.235,14.462-10.588,22.787-13.99A90.92,90.92,0,0,1-91.447,913.4a37.822,37.822,0,0,1,25.517,9.734,8.475,8.475,0,0,0,5.977,2.355q47.595-.106,95.192-.054c1.755,0,3.412.012,4.843-1.372,9.809-9.483,21.823-11.892,34.864-10.437a92.579,92.579,0,0,1,46.336,18.1c6.726,5.069,10.371,11.722,9.892,20.2-.263,4.643.779,8.179,4.441,11.471,4.383,3.945,6.6,9.622,9.026,14.915,14.591,31.849,23.777,65.331,29.917,99.731,1.9,10.641,2.879,21.393,4.22,32.1V1144.5c-1.467,9.839-3.144,19.626-7.305,28.781-4.132,9.084-10.135,16.535-19.108,21.215-7.42,3.871-15.409,2.838-21.346-3.008-14.085-13.863-27.992-27.9-42.006-41.841-7.033-7-13.61-14.545-23.49-17.91a52.185,52.185,0,0,0-16.861-2.616q-61.575-.131-123.153-.02a43.647,43.647,0,0,0-32.17,13.326c-15.754,15.912-31.645,31.688-47.491,47.508-8.315,8.3-16.35,9.111-26.109,2.66-11.79-7.8-17.129-19.689-20.424-32.735-1.331-5.273-1.925-10.732-2.855-16.107Zm12.165,19.636a134.831,134.831,0,0,0,2.339,22.833c2.141,10.25,5.563,19.9,13.844,27.041,5.3,4.57,7.79,4.516,12.7-.394,15.747-15.747,31.445-31.547,47.251-47.238,9.6-9.539,21.11-15.891,34.74-16.005,44.289-.375,88.585-.161,132.877-.18a50.37,50.37,0,0,1,36.6,15.066c16.462,16.241,32.725,32.686,49.085,49.032,3.872,3.867,5.994,4.054,10.418.925,7.845-5.548,11.929-13.593,14.28-22.536,3.246-12.343,3.75-24.921,3.348-37.685a329.907,329.907,0,0,0-9.342-66.285c-6.446-27.026-14.591-53.49-27.617-78.209a21.2,21.2,0,0,0-4.512-6.351c-12.347-10.836-26.1-18.927-42.393-22.371-5.378-1.139-9.62-.1-13.608,3.725-11.586,11.1-23.347,22.023-35.056,33a24.067,24.067,0,0,1-17.219,6.816c-19.159-.1-38.32-.141-57.478.022-6.94.058-12.559-2.529-17.472-7.1q-17.616-16.4-35.2-32.832c-3.122-2.9-6.685-4.826-11.148-3.954-5.867,1.146-11.7,2.492-17.132,5.052-15.881,7.478-30.044,16.4-37.2,33.974a474.871,474.871,0,0,0-21.7,65.4A349.323,349.323,0,0,0-191.377,1130.529ZM-12.238,937.94v-.029c-11.943,0-23.889-.068-35.833.032-4.833.041-10.269-1.548-14.345.628-4.207,2.243-5.935,7.775-8.95,11.719-.075.1-.136.209-.221.3-1.616,1.738-1.248,3.057.487,4.641,7.347,6.709,14.574,13.549,21.828,20.361a13.454,13.454,0,0,0,9.537,3.6q27.435.059,54.87-.007a13.072,13.072,0,0,0,9.24-3.387c7.354-6.887,14.657-13.832,22.086-20.638,1.8-1.647,1.725-2.9.358-4.716-2.322-3.076-4.563-6.225-6.6-9.491a5.991,5.991,0,0,0-5.794-3.069C18.867,938,3.315,937.94-12.238,937.94Zm-130.7,11.23a100.59,100.59,0,0,1,29.652-12.71c4.2-1.024,8.42-2.234,12.851-1.7a25.084,25.084,0,0,1,15.474,7.437c1.662,1.708,2.708,1.655,3.976-.392,1.5-2.426,3.219-4.724,4.906-7.033,1.037-1.416,1.253-2.443-.455-3.672a24.46,24.46,0,0,0-15.316-5.032c-16.657.625-32,5.436-45.613,15.287A12.269,12.269,0,0,0-142.939,949.171Zm261.089,0A12.737,12.737,0,0,0,112.5,941.2a79.8,79.8,0,0,0-36-14.323c-7.527-1.032-15.085-1.66-22.1,2.531-4.616,2.76-4.675,2.66-1.745,7a47.318,47.318,0,0,1,2.891,4.339c1.543,2.945,2.859,3.237,5.434.708a22.864,22.864,0,0,1,20.5-6.432C94.428,937.057,106.3,941.914,118.15,949.171Z" transform="translate(0)" fill="#dcdcdc"/>
    <path id="Trazado_1195" data-name="Trazado 1195" d="M-136.759,977.276c-.74-12.7,2.93-15.336,14.72-14.822,6.162.268,9.632,3.553,9.683,9.753.029,3.728.109,7.461.01,11.187-.061,2.278.876,3.1,3.1,3.039,3.976-.095,7.957-.107,11.934,0,5.38.154,8.6,3.6,8.87,9.006.608,12-1.229,16.036-14.8,15.448-9.091-.4-9.106-.075-9.106,8.916,0,2.239.085,4.48-.027,6.711a8.528,8.528,0,0,1-8.142,8.159c-2.6.125-5.225.11-7.828-.007a8.453,8.453,0,0,1-8.359-8.332c-.158-3.971-.182-7.962,0-11.931.129-2.82-.971-3.721-3.692-3.606-3.847.163-7.709.08-11.559-.01a8.636,8.636,0,0,1-8.68-8.43c-.112-2.482-.083-4.976.024-7.456a8.549,8.549,0,0,1,8.631-8.459c3.85-.112,7.712-.158,11.559,0,2.7.115,3.942-.757,3.7-3.594C-136.9,980.883-136.759,978.882-136.759,977.276Zm17.918,3.957h-.024c0-2.363.024-4.728,0-7.091-.051-4.12-1.005-5.079-5.03-5.137-4.828-.071-6.254,1.027-6.339,5.2-.092,4.6-.122,9.208.015,13.808.1,3.46-1.265,5.032-4.823,4.932-4.848-.136-9.707-.139-14.552.022-3.643.122-4.607,1.808-4.592,6.568.01,3.249,1.341,4.841,4.684,4.792,4.974-.073,9.953.046,14.927-.027,2.976-.044,4.349,1.256,4.315,4.246-.056,4.85-.044,9.7.007,14.552.046,4.271,1.183,5.166,6.252,5.125,4.04-.032,5.118-1.046,5.157-5.035.046-4.726.119-9.456-.015-14.18-.095-3.314,1.195-4.8,4.594-4.7,4.847.134,9.7-.036,14.552.044,3.555.059,4.845-1.694,4.8-5.076-.058-4.969-.859-6.276-4.672-6.346-4.6-.087-9.206-.01-13.808-.034-4.884-.027-5.431-.574-5.444-5.312C-118.846,985.463-118.841,983.348-118.841,981.233Z" transform="translate(61.395 70.464)" fill="#dcdcdc"/>
    <path id="Trazado_1196" data-name="Trazado 1196" d="M-146.634,1007.749a36.334,36.334,0,0,1-36.21-34.684c-.854-19.789,16.248-38.794,38.235-37.656,18.711.969,34.713,17.723,34.363,37.067C-110.575,990.732-127.079,1008.762-146.634,1007.749Zm29.606-35.723c-.652-17.063-12.442-29.532-29.245-29.725-16.888-.19-29.693,12.257-29.627,29.508.058,16.39,12.145,29.141,29.6,29.207C-130.3,1001.079-117.822,988.408-117.029,972.026Z" transform="translate(29.626 31.712)" fill="#dcdcdc"/>
    <path id="Trazado_1197" data-name="Trazado 1197" d="M-83.1,1034.768c-18.631.842-36.062-16.533-35.945-36.47.11-18.224,16.611-36.344,37.076-35.937,18.283.362,36.023,16.691,35.465,36.68C-47.073,1019.215-62.545,1034.79-83.1,1034.768Zm.363-6.677A29.621,29.621,0,0,0-53.3,998.6c.039-15.83-13.287-29.219-29.221-29.36-16.209-.141-29.851,13.525-29.632,29.683C-111.939,1014.906-98.528,1028.207-82.742,1028.09Z" transform="translate(121.116 70.405)" fill="#dcdcdc"/>
    <path id="Trazado_1198" data-name="Trazado 1198" d="M-85.1,974.417c-8.975.1-15.343-6.091-15.445-15.019-.1-8.478,6.244-15.27,14.353-15.367,9.091-.107,15.932,6.062,16.024,14.453C-70.064,967.822-76.15,974.319-85.1,974.417Zm-.224-23.743a8.875,8.875,0,0,0-8.59,8.563,9.073,9.073,0,0,0,8.281,8.529c4.276.178,8.69-4.037,8.814-8.415C-76.7,955-80.9,950.715-85.322,950.673Z" transform="translate(147.643 44.137)" fill="#dcdcdc"/>
    <path id="Trazado_1199" data-name="Trazado 1199" d="M-62.951,944.034c8.692.007,14.89,6.5,14.883,15.589a14.715,14.715,0,0,1-14.939,14.793c-9.057-.024-15.462-6.256-15.443-15.029C-78.428,950.237-72.162,944.027-62.951,944.034Zm-.275,23.726a8.837,8.837,0,0,0,8.5-8.631,9.053,9.053,0,0,0-8.349-8.461c-4.271-.117-8.675,4.166-8.743,8.5S-67.631,967.78-63.226,967.76Z" transform="translate(179.315 44.145)" fill="#dcdcdc"/>
    <path id="Trazado_1200" data-name="Trazado 1200" d="M-59.081,947.034c-.041,8.8-6.512,15.17-15.394,15.144-8.748-.025-15.124-6.59-15.032-15.477.09-8.785,6.592-15.029,15.572-14.951C-65.4,931.823-59.039,938.369-59.081,947.034Zm-6.675-.049a8.865,8.865,0,0,0-8.614-8.578,8.885,8.885,0,0,0-8.481,8.712,8.881,8.881,0,0,0,8.439,8.383A8.829,8.829,0,0,0-65.756,946.985Z" transform="translate(163.464 26.534)" fill="#dcdcdc"/>
    <path id="Trazado_1201" data-name="Trazado 1201" d="M-59.079,971.38c.012,8.87-6.371,15.319-15.192,15.345a14.759,14.759,0,0,1-15.236-15.272c.037-8.841,6.461-15.175,15.37-15.156A14.76,14.76,0,0,1-59.079,971.38Zm-15.039,8.67a8.825,8.825,0,0,0,8.361-8.809,8.881,8.881,0,0,0-8.537-8.286,8.875,8.875,0,0,0-8.559,8.634A8.879,8.879,0,0,0-74.118,980.05Z" transform="translate(163.465 61.723)" fill="#dcdcdc"/>
    <path id="Trazado_1202" data-name="Trazado 1202" d="M-128.551,946.49a11.713,11.713,0,0,1,11.9,12.09c0,7.342-5.093,12.355-12.5,12.3a11.694,11.694,0,0,1-11.895-12.092C-141,951.389-136.024,946.488-128.551,946.49Zm4.879,12.279a5.321,5.321,0,0,0-5.161-5.607,6.078,6.078,0,0,0-5.541,5.514,5.337,5.337,0,0,0,5.21,5.191C-125.852,963.974-123.752,962.025-123.672,958.769Z" transform="translate(89.584 47.665)" fill="#dcdcdc"/>
    <path id="Trazado_1203" data-name="Trazado 1203" d="M-106.68,970.911c-7.15.044-12.2-4.923-12.272-12.065-.073-7.337,4.694-12.3,11.866-12.355,7.451-.056,12.559,4.891,12.552,12.158A11.856,11.856,0,0,1-106.68,970.911Zm-.078-6.7a5.946,5.946,0,0,0,5.522-5.512,5.965,5.965,0,0,0-5.524-5.516,5.876,5.876,0,0,0-5.5,5.5A5.961,5.961,0,0,0-106.757,964.207Z" transform="translate(121.256 47.667)" fill="#dcdcdc"/>
    <path id="Trazado_1204" data-name="Trazado 1204" d="M-96.093,942.44c.017,10.7-7.558,18.319-18.207,18.319-10.4,0-18.159-7.7-18.168-18.02-.007-10.6,7.682-18.338,18.246-18.356A17.642,17.642,0,0,1-96.093,942.44Zm-18.064-11.408c-5.938-.1-11.466,5.276-11.661,11.333-.19,5.906,5.186,11.5,11.24,11.7a11.688,11.688,0,0,0,11.788-11.454A11.892,11.892,0,0,0-114.156,931.032Z" transform="translate(101.882 15.977)" fill="#dcdcdc"/>
    <path id="Trazado_1205" data-name="Trazado 1205" d="M-153.563,940.393c11.016-1.044,24.872,9.739,24.2,25.157-.53,12.224-11.033,22.721-23.254,23.266-15.173.679-25.809-12.929-25.3-24.575C-177.311,950.555-167.448,940.391-153.563,940.393Zm-.1,6.675a17.5,17.5,0,0,0-17.441,17.7c.148,9.412,8.218,17.411,17.523,17.365,9.43-.046,17.793-8.534,17.54-17.8C-136.3,954.867-144.382,946.956-153.668,947.068Z" transform="translate(36.711 38.826)" fill="#dcdcdc"/>
    <path id="Trazado_1206" data-name="Trazado 1206" d="M-90.044,967.355c13.946,0,24.291,10.3,24.3,24.189a23.694,23.694,0,0,1-24.026,24.108c-13.968,0-24.266-10.267-24.271-24.206C-114.047,977.751-103.7,967.36-90.044,967.355Zm.268,41.7c8.943.178,17.229-7.955,17.431-17.11a17.873,17.873,0,0,0-17.682-18c-8.953-.166-17.526,7.95-17.348,17.112C-107.18,1001.2-100.861,1008.25-89.776,1009.053Z" transform="translate(128.291 77.574)" fill="#dcdcdc"/>
  </g>
</svg>
