<svg width="378"
     height="132"
     preserveAspectRatio="slice"
     viewBox="0 0 378 132"
     xmlns="http://www.w3.org/2000/svg"
     xmlns:xlink="http://www.w3.org/1999/xlink">
    <title>Group 5</title>
    <g id="Design"
       stroke="none"
       stroke-width="1"
       fill="none"
       fill-rule="evenodd">
        <g id="05-Sunset-Difference"
           transform="translate(-406.000000, -1274.000000)"
           stroke="#fefefe"
           stroke-width="1.5">
            <g id="plane-illustration"
               transform="translate(407.000000, 1125.000000)">
                <g id="Group-5"
                   transform="translate(0.749864, 150.599300)">
                    <g id="Group-4"
                       transform="translate(262.033936, 21.633667)">
                        <path d="M68.2195 38.7348333 33.1525 23.0368333C33.1525 23.0368333 24.8145 20.4518333 20.6465 25.5378333 17.0105 29.9738333 25.5655 33.2908333 25.5655 33.2908333L37.2995 37.7658333 57.9915 45.6788333"
                              id="Stroke-1" />
                        <path d="M36.8904 37.6105333 29.4004 40.8785333 21.6464 32.5405333C21.6464 32.5405333 18.3114 31.4565333 15.7274 39.8775333"
                              id="Stroke-3" />
                        <path d="M29.4001 40.8781333 10.5581 39.2941333C10.5581 39.2941333 4.0551 39.3771333 5.7221 41.8781333L15.7271 47.1311333C15.7271 47.1311333 26.2401 45.7971333 29.4001 40.8781333z"
                              id="Stroke-5" />
                        <path d="M14.2624 46.3620333C14.2624 46.3620333 12.8054 50.4940333 16.4454 52.2270333c0 0 15.428-1.233000000000004 41.546-6.5489999999999995L62.4824 47.5050333"
                              id="Stroke-7" />
                        <path d="M23.0461 51.3808333 27.4821 54.3208333C27.4821 54.3208333 29.4001 55.6168333 31.0911 50.1338333"
                              id="Stroke-9" />
                        <path d="M70.531 46.5065333C70.531 49.0275333 68.707 51.0715333 66.457 51.0715333 64.207 51.0715333 62.384 49.0275333 62.384 46.5065333 62.384 43.9855333 64.207 41.9415333 66.457 41.9415333 68.707 41.9415333 70.531 43.9855333 70.531 46.5065333z"
                              id="Stroke-11" />
                        <path d="M83.0451 48.4711333c2.25.0 4.375 2.044000000000004 4.375 4.565000000000005C87.4201 55.5571333 85.5961 57.6011333 83.3461 57.6011333 81.0961 57.6011333 79.2731 55.5571333 79.2731 53.0361333 79.2731 51.6291333 79.8411 50.3701333 80.7341 49.5331333"
                              id="Stroke-13" />
                        <path d="M67.6994 46.1752333C67.6994 47.4432333 66.8584 48.4712333 65.8214 48.4712333 64.7844 48.4712333 63.9434 47.4432333 63.9434 46.1752333 63.9434 44.9072333 64.7844 43.8792333 65.8214 43.8792333 66.8584 43.8792333 67.6994 44.9072333 67.6994 46.1752333z"
                              id="Stroke-15" />
                        <path d="M77.4646 41.9416333 82.3766 52.7466333C82.3766 52.7466333 83.1516 53.7296333 83.7466 52.9206333 84.3406 52.1116333 81.1056 41.2486333 81.1056 41.2486333L77.4646 41.9416333z"
                              id="Stroke-17" />
                        <path d="M69.4509 49.5947333 79.2729 53.0357333z"
                              id="Stroke-19" />
                        <path d="M86.781 55.4882333C86.781 55.4882333 94.511 60.1482333 102.6 54.4542333 102.6 54.4542333 108.552 52.4002333 105.027 51.0712333 101.503 49.7422333 81.463 42.4752333 81.463 42.4752333"
                              id="Stroke-21" />
                        <path d="M83.8196 35.6389333C82.3626 37.7189333 80.6416 38.5899333 80.6416 38.5899333L81.1056 41.2479333"
                              id="Stroke-23" />
                        <path d="M69.7868 43.8796333 72.2648 37.8966333C72.2648 37.8966333 70.1258 37.0876333 68.2198 38.7346333L67.9628 42.2676333"
                              id="Stroke-25" />
                        <path d="M80.6418 38.5903333 73.3048 35.7013333C73.3048 35.7013333 70.4148 34.1413333 72.2648 26.9753333L72.9468 24.5763333"
                              id="Stroke-27" />
                        <path d="M88.5593 25.1267333C88.5593 25.1267333 83.5393 14.4037333 80.6423 16.5167333 77.8693 18.5397333 88.5593 26.0517333 88.5593 26.0517333"
                              id="Stroke-29" />
                        <path d="M90.0036 28.1315333C90.0036 28.1315333 92.7656 36.4575333 97.7466 34.8915333 99.7686 34.2565333 90.9856 27.7845333 90.9856 27.7845333"
                              id="Stroke-31" />
                        <path d="M91.0559 26.9758333C91.0559 27.9168333 90.3829 28.6808333 89.5539 28.6808333 88.7239 28.6808333 88.0509 27.9168333 88.0509 26.9758333 88.0509 26.0348333 88.7239 25.2708333 89.5539 25.2708333 90.3829 25.2708333 91.0559 26.0348333 91.0559 26.9758333z"
                              id="Stroke-33" />
                        <path d="M83.8845 22.7961333C82.4135 22.9871333 80.4105 23.2571333 79.3215 24.4241333 78.6105 25.1851333 78.3015 26.6321333 78.2295 27.6321333 78.0195 30.5491333 80.2135 34.1301333 82.8675 35.3231333 85.6425 36.5711333 89.5125 35.1941333 89.5535 31.7141333V28.6801333"
                              id="Stroke-35" />
                        <path d="M65.3586 27.1931333 60.1496 19.2521333C60.1496 19.2521333 60.4766 18.0191333 61.4006 18.4241333 62.3256 18.8281333 66.9026 26.6601333 66.9026 26.6601333"
                              id="Stroke-37" />
                        <path d="M71.446 25.0939333 67.963 15.4769333C67.963 15.4769333 66.37 15.1559333 66.197 16.2409333 66.024 17.3259333 69.451 25.2709333 69.451 25.2709333"
                              id="Stroke-39" />
                        <path d="M80.1828 17.9423333 40.5798 1.60933333C40.5798 1.60933333 32.7988-2.01166667 28.8698 1.60933333L24.9398 5.23033333C24.9398 5.23033333 21.7808 7.77233333 30.5638 11.2393333 39.3468 14.7063333 64.6098 26.0513333 64.6098 26.0513333"
                              id="Stroke-41" />
                        <path d="M86.1462 21.0097333 110.1842 30.5177333C110.1842 30.5177333 113.6512 32.2197333 108.7972 34.9517333 103.9432 37.6827333 99.0892 37.5617333 99.0892 37.5617333L88.4482 34.4367333"
                              id="Stroke-43" />
                        <path d="M101.1365 29.4226333 95.5125 47.2446333z"
                              id="Stroke-45" />
                        <path d="M93.1868 33.5170333 88.9258 45.1850333z"
                              id="Stroke-47" />
                        <path d="M53.052 31.4365333 75.71 23.6235333C75.71 23.6235333 78.441 22.0895333 82.623 22.9825333"
                              id="Stroke-49" />
                        <path d="M72.2644 37.8969333 78.2164 41.9419333z"
                              id="Stroke-51" />
                        <path d="M37.5364 5.36493333 31.0914 22.7029333z"
                              id="Stroke-53" />
                        <path d="M30.8337 8.54293333 27.0687 22.7029333z"
                              id="Stroke-55" />
                        <path d="M5.449 53.0361333C5.449 53.0361333 3.524 53.9491333-284217094e-22 55.5391333"
                              id="Stroke-57" />
                    </g>
                    <g id="Group-2">
                        <path d="M250.770036 82.1241C199.511036 104.1291 45.7630365 163.4711 8.9700365 100.9981-13.0329635 63.6381 9.4560365 30.1211 33.3010365 7.9691"
                              id="Stroke-59"
                              stroke-dasharray="12.306,12.306" />
                        <path d="M37.8842365 3.858C39.4252365 2.522 40.9612365 1.235 42.4792365 284217094e-22"
                              id="Stroke-61" />
                    </g>
                </g>
            </g>
        </g>
    </g>
</svg>