<svg id="Capa_1" data-name="Capa 1" xmlns="http://www.w3.org/2000/svg" viewBox="0 0 475.23 207.56"><defs><style>.cls-1{fill:#aeadb3;}.cls-2{fill:#f15a32;}</style></defs><path class="cls-1" d="M46.39,140.08c0-8.56-6.08-15.18-14.4-15.18S17.5,131.52,17.5,140.08,23.59,155.33,32,155.33,46.39,148.78,46.39,140.08Zm-28,13.47h-.69V161h-6.4V103h6.4v23.49h.7c2.84-4.72,8.08-7.33,14.32-7.33,11.32,0,20,8.78,20,21s-8.79,21-20.11,21C26.28,161.1,21.28,158.33,18.43,153.55Z" transform="translate(-11.34 -3.86)"/><path class="cls-1" d="M94.53,161h-6.4v-6.7h-.76A14.14,14.14,0,0,1,75.2,161C65.27,161,59,153.8,59,143.85V119.2h6.4v24.65c0,6.62,3.85,11.32,10.55,11.32a11.93,11.93,0,0,0,12.17-11.86V119.12h6.4Z" transform="translate(-11.34 -3.86)"/><path class="cls-1" d="M100.76,146.39h6.16c.08,5.55,4.39,9.32,11.71,9.32,5.86,0,9.63-2.46,9.63-6.55,0-5.08-5.31-5.46-11.17-6.24-7.24-.84-15.64-2.77-15.64-11.63,0-7.53,6.32-12.17,15.64-12.17,9.71,0,16.33,5.16,16.33,13.18h-6.24c-.08-4.78-4.16-7.78-10.16-7.78-5.63,0-9.48,2.55-9.48,6.55,0,4.85,5.24,5.24,11,5.93,7.31.93,15.71,2.78,15.71,12.1,0,7.62-5.93,12-15.87,12C107.23,161.1,100.76,155.62,100.76,146.39Z" transform="translate(-11.34 -3.86)"/><path class="cls-1" d="M141.9,119.12h6.4V161h-6.4Zm-1.39-10.47a4.36,4.36,0,0,1,4.62-4.47,4.31,4.31,0,0,1,4.55,4.47,4.39,4.39,0,0,1-4.55,4.62,4.45,4.45,0,0,1-4.62-4.62Z" transform="translate(-11.34 -3.86)"/><path class="cls-1" d="M155.9,119.2h6.4V126h.78a14.17,14.17,0,0,1,12.24-6.78c9.86,0,16.2,7.24,16.2,17.1V161h-6.41V136.3c0-6.55-3.92-11.32-10.63-11.32a12,12,0,0,0-12.17,11.86v24.27h-6.4Z" transform="translate(-11.34 -3.86)"/><path class="cls-1" d="M245.55,146.39h6.16c.08,5.55,4.39,9.32,11.71,9.32,5.85,0,9.63-2.46,9.63-6.55,0-5.08-5.32-5.46-11.17-6.24-7.24-.84-15.64-2.77-15.64-11.63,0-7.53,6.32-12.17,15.64-12.17,9.7,0,16.33,5.16,16.33,13.18H272c-.08-4.78-4.16-7.78-10.17-7.78-5.62,0-9.47,2.55-9.47,6.55,0,4.85,5.23,5.24,11,5.93,7.32.93,15.72,2.78,15.72,12.1,0,7.62-5.94,12-15.87,12C252,161.1,245.55,155.62,245.55,146.39Z" transform="translate(-11.34 -3.86)"/><path class="cls-1" d="M285.29,146.39h6.16c.08,5.55,4.39,9.32,11.71,9.32,5.85,0,9.63-2.46,9.63-6.55,0-5.08-5.32-5.46-11.17-6.24-7.24-.84-15.64-2.77-15.64-11.63,0-7.53,6.32-12.17,15.64-12.17,9.71,0,16.33,5.16,16.33,13.18h-6.24c-.08-4.78-4.16-7.78-10.17-7.78-5.62,0-9.47,2.55-9.47,6.55,0,4.85,5.24,5.24,11,5.93,7.32.93,15.72,2.78,15.72,12.1,0,7.62-5.93,12-15.87,12C291.76,161.1,285.29,155.62,285.29,146.39Z" transform="translate(-11.34 -3.86)"/><path class="cls-2" d="M413.56,140.08c0-8.79-6.08-15.18-14.48-15.18s-14.48,6.4-14.48,15.18,6,15.25,14.48,15.25S413.56,148.93,413.56,140.08Zm-35.35,0c0-12.25,8.62-21,20.87-21s20.88,8.71,20.88,21-8.71,21-20.88,21S378.21,152.4,378.21,140.08Z" transform="translate(-11.34 -3.86)"/><path class="cls-2" d="M426.19,119.12h6.17v6.7h.76a12.6,12.6,0,0,1,11.32-6.7,14.18,14.18,0,0,1,12.71,7.53h.69a14.66,14.66,0,0,1,13-7.47c9.17,0,15.72,7.09,15.72,17.18V161.1h-6.41V136.3c0-6.63-4.23-11.4-10.09-11.4-6.24,0-10.63,4.77-10.63,11.4v24.82h-6.4V136.3c0-6.85-4-11.4-10-11.4-6.32,0-10.48,4.55-10.48,11.4v24.81h-6.4Z" transform="translate(-11.34 -3.86)"/><path class="cls-2" d="M351.89,155.33c-8.22,0-14.06-6.4-14.06-15.25s5.84-15.18,14.06-15.18c7,0,12.28,4.67,13.69,11.5h6.3c-1.51-10.27-9.39-17.28-20-17.28-11.89,0-20.27,8.71-20.27,21s8.38,21,20.27,21c10.85,0,18.83-7.34,20.08-18.07h-6.26C364.55,150.32,359.11,155.33,351.89,155.33Z" transform="translate(-11.34 -3.86)"/><path class="cls-1" d="M204.42,136.62a14.35,14.35,0,0,1,28.19,0Zm34.8,5.6c.06-.7.09-1.42.09-2.14a23.58,23.58,0,0,0-.24-3.46c-1.48-10.35-9.61-17.42-20.55-17.42-12.21,0-20.8,8.66-20.8,20.88a24.53,24.53,0,0,0,.38,4.36,20.88,20.88,0,0,0,.89,3.39c2.82,8,10.09,13.2,19.52,13.2s16.68-5.19,19.54-13.2h-6.93a14.41,14.41,0,0,1-25.22,0,16,16,0,0,1-1.68-5.61h35Z" transform="translate(-11.34 -3.86)"/><path class="cls-2" d="M249,3.86a12.11,12.11,0,0,1,4.64.92,11.94,11.94,0,0,1,3.92,2.62,12.1,12.1,0,0,1,0,17.13,12.12,12.12,0,0,1-13.19,2.62,12,12,0,0,1-6.55-6.55,12.14,12.14,0,0,1,0-9.27A12.1,12.1,0,0,1,249,3.86Z" transform="translate(-11.34 -3.86)"/><path class="cls-1" d="M258.3,41.62A30.06,30.06,0,0,0,249,33a30.1,30.1,0,0,0-9.34,8.63,21.89,21.89,0,0,0,18.68,0Z" transform="translate(-11.34 -3.86)"/><path class="cls-1" d="M263.83,57.39a30.9,30.9,0,0,0-1.68-8.34,30.18,30.18,0,0,1-26.36,0,30.39,30.39,0,0,0-1.69,8.33,37.52,37.52,0,0,0,29.75,0Z" transform="translate(-11.34 -3.86)"/><path class="cls-1" d="M249,68.83a45.71,45.71,0,0,1-14-2.19,30.3,30.3,0,0,0,14,18.94,30.27,30.27,0,0,0,14-19A45.7,45.7,0,0,1,249,68.83Z" transform="translate(-11.34 -3.86)"/><path class="cls-1" d="M230.45,27.13A30.43,30.43,0,0,0,203,14.45a30.66,30.66,0,0,0,22.73,42.41,39.16,39.16,0,0,1,8.66-22.29,30.57,30.57,0,0,0-4-7.44Z" transform="translate(-11.34 -3.86)"/><path class="cls-1" d="M294.91,14.45a30.62,30.62,0,0,0-31.43,20.34,39.2,39.2,0,0,1,8.69,22.08,30.66,30.66,0,0,0,22.74-42.42Z" transform="translate(-11.34 -3.86)"/><rect class="cls-1" x="129.06" y="187.53" width="2.84" height="19.49"/><path class="cls-1" d="M153.46,196.29a5.15,5.15,0,0,0-4.39,2.36v-1.84h-2.64v14.06h2.64v-8.18a4,4,0,0,1,4.09-4,3.46,3.46,0,0,1,3.55,3.8v8.37h2.64V202.5C159.34,198.85,156.92,196.29,153.46,196.29Z" transform="translate(-11.34 -3.86)"/><path class="cls-1" d="M167.5,209.12a1.85,1.85,0,0,1-1.92-2V199h3.52v-2.17h-3.52l0-4.41h-2.13l-.51,4.41h-2.24V199H163v8.18c0,2.54,1.59,4.23,4,4.23a7.94,7.94,0,0,0,2.28-.37l.14-.05v-2.2l-.25.07A6.39,6.39,0,0,1,167.5,209.12Z" transform="translate(-11.34 -3.86)"/><path class="cls-1" d="M172.79,202.42a4.78,4.78,0,0,1,9.33,0Zm4.72-6.15a7.19,7.19,0,0,0-7.46,7.4,7.41,7.41,0,0,0,7.57,7.75,7.16,7.16,0,0,0,6.77-3.85l.08-.16-2.2-1.13-.08.16a5,5,0,0,1-4.52,2.55,4.74,4.74,0,0,1-4.9-4.23h12.06v-.17c0-.31,0-.64,0-.91A7.12,7.12,0,0,0,177.51,196.27Z" transform="translate(-11.34 -3.86)"/><path class="cls-1" d="M193.18,196.54a4.42,4.42,0,0,0-3.71,2v-1.74h-2.58v14.07h2.64v-7.56c0-2.58,1.36-4.37,3.31-4.37a5.51,5.51,0,0,1,2,.38l.26.11V197l-.1,0A4.06,4.06,0,0,0,193.18,196.54Z" transform="translate(-11.34 -3.86)"/><path class="cls-1" d="M203.5,196.29a5.15,5.15,0,0,0-4.39,2.36v-1.84h-2.64v14.06h2.64v-8.18a4,4,0,0,1,4.09-4,3.46,3.46,0,0,1,3.56,3.8v8.37h2.63V202.5C209.38,198.85,207,196.29,203.5,196.29Z" transform="translate(-11.34 -3.86)"/><path class="cls-1" d="M213.84,202.42a4.52,4.52,0,0,1,4.6-3.74,4.58,4.58,0,0,1,4.7,3.74Zm4.71-6.15a7.19,7.19,0,0,0-7.46,7.4,7.41,7.41,0,0,0,7.57,7.75,7.16,7.16,0,0,0,6.77-3.85l.08-.16-2.19-1.13-.09.16a5,5,0,0,1-4.52,2.55,4.72,4.72,0,0,1-4.89-4.23h12.07v-.17c0-.31,0-.64,0-.91A7.15,7.15,0,0,0,218.55,196.27Z" transform="translate(-11.34 -3.86)"/><path class="cls-1" d="M233.15,209.12a1.86,1.86,0,0,1-1.93-2V199h3.53v-2.17h-3.52l0-4.41h-2.12l-.51,4.41h-2.26V199h2.22v8.18c0,2.54,1.59,4.23,4,4.23a8.05,8.05,0,0,0,2.28-.37L235,211v-2.2l-.24.07A6.39,6.39,0,0,1,233.15,209.12Z" transform="translate(-11.34 -3.86)"/><path class="cls-1" d="M251.43,204.23v1c0,2.26-1.85,3.82-4.5,3.82-1.75,0-2.79-.71-2.79-1.88,0-1.33,1.31-2.22,3.7-2.52Zm-3.36-7.94c-3.57,0-5.88,1.94-5.88,4.94v.18h2.63v-.19a2.21,2.21,0,0,1,.63-1.65,3.57,3.57,0,0,1,2.58-.87c2.12,0,3.38,1.07,3.38,2.85v.38l-3.62.44c-4,.45-6.28,2.21-6.28,4.84,0,2.45,2.05,4.09,5.1,4.09a5.49,5.49,0,0,0,4.82-2.36v1.93h2.64v-9.26C254.06,198.38,251.7,196.29,248.07,196.29Z" transform="translate(-11.34 -3.86)"/><path class="cls-1" d="M267.94,209.12a1.86,1.86,0,0,1-1.93-2V199h3.53v-2.17H266l0-4.41h-2.12l-.52,4.41h-2.25V199h2.22v8.18c0,2.54,1.59,4.23,4,4.23a8.05,8.05,0,0,0,2.28-.37l.13-.05v-2.2l-.25.07A6.23,6.23,0,0,1,267.94,209.12Z" transform="translate(-11.34 -3.86)"/><path class="cls-1" d="M281.68,205a4,4,0,0,1-4.09,4c-2.18,0-3.53-1.46-3.53-3.8v-8.35h-2.63v8.35c0,3.71,2.36,6.21,5.87,6.21a5.17,5.17,0,0,0,4.37-2.33v1.84h2.64V196.81h-2.64Z" transform="translate(-11.34 -3.86)"/><path class="cls-1" d="M301.55,204.23v1c0,2.26-1.85,3.82-4.5,3.82-1.75,0-2.79-.71-2.79-1.88,0-1.33,1.32-2.22,3.71-2.52Zm-3.36-7.94c-3.57,0-5.88,1.94-5.88,4.94v.18H295v-.19a2.2,2.2,0,0,1,.61-1.65,3.63,3.63,0,0,1,2.59-.87c2.12,0,3.39,1.07,3.39,2.85v.38l-3.64.44c-4,.45-6.29,2.22-6.29,4.85,0,2.45,2.05,4.09,5.1,4.09a5.5,5.5,0,0,0,4.82-2.36v1.93h2.64v-9.27C304.18,198.38,301.83,196.29,298.19,196.29Z" transform="translate(-11.34 -3.86)"/><rect class="cls-1" x="295.28" y="186.72" width="2.62" height="20.3"/><path class="cls-1" d="M317.68,209.12a1.86,1.86,0,0,1-1.93-2V199h3.53v-2.17h-3.53l0-4.41h-2.12l-.51,4.41h-2.26V199h2.22v8.18c0,2.54,1.59,4.23,4,4.23a8.05,8.05,0,0,0,2.28-.37l.13-.05v-2.2l-.25.07a6.23,6.23,0,0,1-1.55.28Z" transform="translate(-11.34 -3.86)"/><path class="cls-1" d="M331.44,205a4,4,0,0,1-4.09,4c-2.18,0-3.53-1.46-3.53-3.8v-8.33h-2.64v8.35c0,3.71,2.37,6.21,5.89,6.21a5.16,5.16,0,0,0,4.37-2.33v1.84h2.63V196.81h-2.63Z" transform="translate(-11.34 -3.86)"/><path class="cls-1" d="M343.05,196.54a4.42,4.42,0,0,0-3.7,2v-1.74h-2.58v14.07h2.64v-7.56c0-2.58,1.36-4.37,3.31-4.37a5.51,5.51,0,0,1,2,.38l.26.11V197l-.1,0A4.07,4.07,0,0,0,343.05,196.54Z" transform="translate(-11.34 -3.86)"/><path class="cls-1" d="M354.9,204.23v1c0,2.26-1.85,3.82-4.5,3.82-1.75,0-2.79-.71-2.79-1.88,0-1.33,1.31-2.22,3.7-2.52Zm-3.36-7.94c-3.57,0-5.88,1.94-5.88,4.94v.18h2.63v-.19a2.21,2.21,0,0,1,.63-1.65,3.57,3.57,0,0,1,2.58-.87c2.12,0,3.38,1.07,3.38,2.85v.38l-3.62.44c-4,.45-6.26,2.21-6.26,4.84,0,2.45,2,4.09,5.09,4.09a5.5,5.5,0,0,0,4.83-2.36v1.93h2.63v-9.26C357.53,198.38,355.16,196.29,351.54,196.29Z" transform="translate(-11.34 -3.86)"/></svg>