<svg width="181" height="191" viewBox="0 0 181 191" fill="none" xmlns="http://www.w3.org/2000/svg">
<path d="M90.3751 189.947C93.4351 189.947 96.4451 189.097 99.1051 187.477L161.075 149.817C166.615 146.447 170.045 140.117 170.045 133.277V58.5668C170.045 51.7468 166.615 45.4068 161.075 42.0268L99.1051 4.36684C93.7751 1.12684 86.9551 1.14684 81.6551 4.36684L19.6851 42.0468C14.1451 45.4168 10.6951 51.7468 10.6951 58.5868V133.287C10.6951 139.047 13.1451 144.467 17.2451 148.037V148.067L81.6551 187.497C84.2951 189.097 87.3151 189.947 90.3751 189.947ZM91.0251 8.89684C92.9751 8.89684 95.4551 10.1068 97.1651 11.1568L157.925 48.3468C161.675 50.6268 163.795 57.2268 163.795 61.9768L163.165 133.277C163.165 138.027 159.965 142.297 156.215 144.577L95.8151 180.957C92.3851 183.047 89.5951 183.047 86.1551 180.957L24.9451 144.487C21.1951 142.207 18.1751 138.007 18.1751 133.277V59.6368C18.1751 54.8968 20.9051 50.0068 24.6751 47.7168L85.2551 11.1568C86.9551 10.1168 89.0751 8.89684 91.0251 8.89684Z" fill="#F2F1F0"/>
<path fill-rule="evenodd" clip-rule="evenodd" d="M98.2751 12.4766C95.8251 10.9766 93.1051 10.2266 90.3751 10.2266C87.6451 10.2266 84.9251 10.9866 82.4751 12.4766L26.3451 46.8066C21.3251 49.8766 18.2151 55.6266 18.2151 61.8766V129.977C18.2151 136.207 21.3151 141.977 26.3451 145.047L82.4751 179.377C84.9251 180.877 87.6451 181.627 90.3751 181.627C93.1051 181.627 95.8251 180.887 98.2751 179.377L154.405 145.047C159.425 141.977 162.535 136.207 162.535 129.977V61.8766C162.535 55.6466 159.435 49.8966 154.405 46.8066L98.2751 12.4766Z" fill="url(#paint0_linear)"/>
<path fill-rule="evenodd" clip-rule="evenodd" d="M90.3751 11.6968C92.0551 11.6968 93.9451 12.5668 96.0051 13.8168L154.475 49.3568C158.125 51.5768 160.535 55.8468 160.535 60.6768V131.157C160.535 135.977 158.125 140.257 154.475 142.477L96.0151 178.017C94.0551 179.207 92.1351 179.957 90.3851 179.957C88.6351 179.957 86.7151 179.207 84.7551 178.017L26.2751 142.487C24.2651 141.257 22.8151 140.057 21.8351 138.447C20.8551 136.847 20.2151 134.627 20.2151 131.167V60.6868C20.2151 55.8568 22.6251 51.5868 26.2751 49.3668L84.7351 13.8268C86.8251 12.5768 88.6851 11.6968 90.3751 11.6968ZM98.0851 181.447L156.545 145.907C161.465 142.917 164.525 137.297 164.525 131.167V60.6868C164.525 54.5568 161.465 48.9368 156.545 45.9468L98.0851 10.4068C95.9751 9.12678 93.2651 7.69678 90.3751 7.69678C87.4751 7.69678 84.7651 9.13678 82.6751 10.3968H82.6651L24.1951 45.9468C19.2751 48.9368 16.2151 54.5568 16.2151 60.6868V131.167C16.2151 135.127 16.9551 138.117 18.4151 140.527C19.8751 142.927 21.9351 144.527 24.1951 145.897L82.6551 181.437C84.8751 182.787 87.5451 183.967 90.3651 183.967C93.1851 183.967 95.8651 182.797 98.0851 181.447Z" fill="url(#paint1_linear)"/>
<path d="M146.225 52.4668H32.9651C32.0151 52.4668 31.2351 53.2368 31.2351 54.1968V127.307C31.2351 128.257 32.0051 129.037 32.9651 129.037H146.225C147.175 129.037 147.955 128.267 147.955 127.307V54.1968C147.955 53.2468 147.185 52.4668 146.225 52.4668Z" fill="#E6E6E6"/>
<path d="M31.155 103.687V134.657C31.155 135.117 31.335 135.557 31.665 135.877C31.985 136.197 32.425 136.387 32.885 136.387H146.255C146.715 136.387 147.155 136.207 147.475 135.877C147.795 135.557 147.985 135.117 147.985 134.657V103.687H31.155Z" fill="#E6E6E6"/>
<path d="M147.955 62.9566V54.1966C147.955 53.9666 147.915 53.7466 147.825 53.5366C147.735 53.3266 147.615 53.1366 147.455 52.9766C147.295 52.8166 147.105 52.6866 146.895 52.6066C146.685 52.5166 146.465 52.4766 146.235 52.4766H32.9651C32.5051 52.4766 32.0651 52.6566 31.7451 52.9866C31.4251 53.3066 31.2351 53.7466 31.2351 54.2066V62.9666H147.955V62.9566Z" fill="url(#paint2_linear)"/>
<path d="M147.625 53.1868C147.465 52.9668 147.255 52.7868 147.015 52.6568C146.775 52.5368 146.505 52.4668 146.235 52.4668H96.895L104.395 62.9468H147.955V54.1868C147.955 53.8968 147.875 53.6068 147.735 53.3568C147.695 53.3068 147.665 53.2468 147.625 53.1868Z" fill="url(#paint3_linear)"/>
<path d="M78.9051 55.1968H37.0251V60.3368H78.9051V55.1968Z" fill="#106EBE"/>
<path d="M74.135 55.1968H36.665V60.3368H74.135V55.1968Z" fill="#B5D5EA"/>
<path d="M143.935 55.0068H135.115V56.1068H143.935V55.0068Z" fill="#7ABDEA"/>
<path d="M143.935 57.2168H135.115V58.3168H143.935V57.2168Z" fill="#7ABDEA"/>
<path d="M143.935 59.377H135.115V60.477H143.935V59.377Z" fill="#7ABDEA"/>
<path d="M147.935 97.4568V62.9868H110.265L147.935 97.4568Z" fill="url(#paint4_linear)"/>
<path d="M44.2949 86.3266C45.9649 86.3266 47.3149 84.9766 47.3149 83.3066C47.3149 81.6366 45.9649 80.2866 44.2949 80.2866C42.6249 80.2866 41.2749 81.6366 41.2749 83.3066C41.2749 84.9666 42.6249 86.3266 44.2949 86.3266Z" fill="#CC52CC"/>
<path d="M58.7048 86.3266C60.3748 86.3266 61.7248 84.9766 61.7248 83.3066C61.7248 81.6366 60.3748 80.2866 58.7048 80.2866C57.0348 80.2866 55.6848 81.6366 55.6848 83.3066C55.6848 84.9666 57.0348 86.3266 58.7048 86.3266Z" fill="#660099"/>
<path d="M73.1148 86.3266C74.7848 86.3266 76.1348 84.9766 76.1348 83.3066C76.1348 81.6366 74.7848 80.2866 73.1148 80.2866C71.4448 80.2866 70.0948 81.6366 70.0948 83.3066C70.0848 84.9666 71.4448 86.3266 73.1148 86.3266Z" fill="#0071CC"/>
<path d="M44.2949 100.767C45.9649 100.767 47.3149 99.4166 47.3149 97.7466C47.3149 96.0766 45.9649 94.7266 44.2949 94.7266C42.6249 94.7266 41.2749 96.0766 41.2749 97.7466C41.2749 99.4166 42.6249 100.767 44.2949 100.767Z" fill="#16B2E6"/>
<path d="M58.7048 100.767C60.3748 100.767 61.7248 99.4166 61.7248 97.7466C61.7248 96.0766 60.3748 94.7266 58.7048 94.7266C57.0348 94.7266 55.6848 96.0766 55.6848 97.7466C55.6848 99.4166 57.0348 100.767 58.7048 100.767Z" fill="#00B3A7"/>
<path d="M73.115 100.767C74.785 100.767 76.135 99.4166 76.135 97.7466C76.135 96.0766 74.785 94.7266 73.115 94.7266C71.445 94.7266 70.095 96.0766 70.095 97.7466C70.095 99.4166 71.445 100.767 73.115 100.767Z" fill="#59992D"/>
<path d="M44.2949 115.197C45.9649 115.197 47.3149 113.847 47.3149 112.177C47.3149 110.507 45.9649 109.157 44.2949 109.157C42.6249 109.157 41.2749 110.507 41.2749 112.177C41.2749 113.847 42.6249 115.197 44.2949 115.197Z" fill="#9AE573"/>
<path d="M58.7048 115.197C60.3748 115.197 61.7248 113.847 61.7248 112.177C61.7248 110.507 60.3748 109.157 58.7048 109.157C57.0348 109.157 55.6848 110.507 55.6848 112.177C55.6848 113.847 57.0348 115.197 58.7048 115.197Z" fill="#B15B27"/>
<path d="M73.1148 115.197C74.7848 115.197 76.1348 113.847 76.1348 112.177C76.1348 110.507 74.7848 109.157 73.1148 109.157C71.4448 109.157 70.0948 110.507 70.0948 112.177C70.0848 113.847 71.4448 115.197 73.1148 115.197Z" fill="#FF8000"/>
<path opacity="0.3" d="M89.9851 122.717H151.795C152.265 122.717 152.715 122.537 153.055 122.197C153.395 121.857 153.575 121.407 153.575 120.937V78.6969C153.575 77.7169 152.555 76.8169 151.175 76.8169L90.8351 77.7369C90.6051 77.7369 90.3751 77.7769 90.1551 77.8669C89.9351 77.9669 89.7451 78.0869 89.5851 78.2569C89.4251 78.4169 89.2951 78.6169 89.1951 78.8269C89.0951 79.0469 89.0651 79.2769 89.0651 79.5069L88.2051 120.967C88.2051 121.437 88.3851 121.887 88.7251 122.217C89.0651 122.527 89.5151 122.717 89.9851 122.717Z" fill="#1F1D20"/>
<path d="M151.645 76.0269H89.605C88.635 76.0269 87.845 76.8168 87.845 77.7868V120.117C87.845 121.087 88.635 121.877 89.605 121.877H151.645C152.615 121.877 153.405 121.087 153.405 120.117V77.7868C153.395 76.8168 152.615 76.0269 151.645 76.0269Z" fill="url(#paint5_linear)"/>
<path d="M150.825 78.5967H120.845V118.867H150.825V78.5967Z" fill="white"/>
<path d="M121.265 78.5967H91.2849V118.867H121.265V78.5967Z" fill="#CDCDD0"/>
<path d="M97.2749 69.5767V109.517C97.2749 109.517 105.275 108.717 111.765 111.977C118.265 115.237 121.265 118.837 121.265 118.837V78.8867C121.265 78.8867 117.525 74.1267 111.765 72.3667C107.085 70.9267 97.2749 69.5767 97.2749 69.5767Z" fill="#EAEAEA"/>
<path d="M126.765 97.8169L124.875 96.9969L122.975 97.8169V76.0269H126.755V97.8169H126.765Z" fill="url(#paint6_linear)"/>
<path opacity="0.15" d="M144.915 86.4766H131.785C131.215 86.4766 130.755 86.9466 130.755 87.5066C130.755 88.0766 131.225 88.5366 131.785 88.5366H144.915C145.485 88.5366 145.945 88.0666 145.945 87.5066C145.955 86.9366 145.495 86.4766 144.915 86.4766Z" fill="#1F1D20"/>
<path opacity="0.15" d="M144.915 90.9668H131.785C131.215 90.9668 130.755 91.4368 130.755 91.9968C130.755 92.5668 131.225 93.0268 131.785 93.0268H144.915C145.485 93.0268 145.945 92.5568 145.945 91.9968C145.955 91.4268 145.495 90.9668 144.915 90.9668Z" fill="#1F1D20"/>
<path opacity="0.15" fill-rule="evenodd" clip-rule="evenodd" d="M131.795 95.4565H144.905C145.475 95.4565 145.935 95.9265 145.935 96.4865C145.935 97.0565 145.465 97.5165 144.905 97.5165H131.795C131.225 97.5165 130.765 97.0465 130.765 96.4865C130.755 95.9265 131.215 95.4565 131.795 95.4565Z" fill="#1F1D20"/>
<path d="M144.915 86.1265H131.785C131.215 86.1265 130.755 86.5965 130.755 87.1565C130.755 87.7265 131.225 88.1865 131.785 88.1865H144.915C145.485 88.1865 145.945 87.7165 145.945 87.1565C145.955 86.5865 145.495 86.1265 144.915 86.1265Z" fill="#50E6FF"/>
<path d="M144.915 90.6265H131.785C131.215 90.6265 130.755 91.0965 130.755 91.6565C130.755 92.2265 131.225 92.6865 131.785 92.6865H144.915C145.485 92.6865 145.945 92.2165 145.945 91.6565C145.955 91.0865 145.495 90.6265 144.915 90.6265Z" fill="#32B0E7"/>
<path fill-rule="evenodd" clip-rule="evenodd" d="M131.795 95.1167H144.905C145.475 95.1167 145.935 95.5867 145.935 96.1467C145.935 96.7167 145.465 97.1767 144.905 97.1767H131.795C131.225 97.1867 130.765 96.7067 130.765 96.1467C130.755 95.5767 131.215 95.1167 131.795 95.1167Z" fill="#185A97"/>
<defs>
<linearGradient id="paint0_linear" x1="90.3749" y1="10.2267" x2="90.3749" y2="181.626" gradientUnits="userSpaceOnUse">
<stop stop-color="#00ABDE"/>
<stop offset="1" stop-color="#007ED8"/>
</linearGradient>
<linearGradient id="paint1_linear" x1="36.4946" y1="5.01788" x2="203.172" y2="287.348" gradientUnits="userSpaceOnUse">
<stop stop-color="#007ED8"/>
<stop offset="0.7065" stop-color="#002D4C"/>
</linearGradient>
<linearGradient id="paint2_linear" x1="31.2404" y1="57.7106" x2="147.954" y2="57.7106" gradientUnits="userSpaceOnUse">
<stop stop-color="#007ED8"/>
<stop offset="0.7065" stop-color="#002D4C"/>
</linearGradient>
<linearGradient id="paint3_linear" x1="131.332" y1="32.0146" x2="121.505" y2="60.361" gradientUnits="userSpaceOnUse">
<stop stop-color="#007ED8"/>
<stop offset="0.7065" stop-color="#002D4C"/>
</linearGradient>
<linearGradient id="paint4_linear" x1="129.1" y1="97.4537" x2="129.1" y2="59.8211" gradientUnits="userSpaceOnUse">
<stop offset="0.0994" stop-color="#E6E6E6"/>
<stop offset="0.9511" stop-color="white"/>
</linearGradient>
<linearGradient id="paint5_linear" x1="120.627" y1="78.9753" x2="120.627" y2="125.539" gradientUnits="userSpaceOnUse">
<stop stop-color="#007ED8"/>
<stop offset="0.7065" stop-color="#002D4C"/>
</linearGradient>
<linearGradient id="paint6_linear" x1="111.922" y1="63.1928" x2="156.828" y2="145.446" gradientUnits="userSpaceOnUse">
<stop stop-color="#007ED8"/>
<stop offset="0.7065" stop-color="#002D4C"/>
</linearGradient>
</defs>
</svg>
