<svg width="103" height="103" viewBox="0 0 103 103" fill="none" xmlns="http://www.w3.org/2000/svg">
<path d="M51.3749 98.7699C25.5249 98.7699 4.56494 77.8199 4.56494 51.9599C4.56494 26.0999 25.5249 5.1499 51.3749 5.1499C77.2249 5.1499 98.1849 26.1099 98.1849 51.9599C98.1849 77.8099 77.2249 98.7699 51.3749 98.7699Z" fill="url(#paint0_linear)"/>
<path fill-rule="evenodd" clip-rule="evenodd" d="M97.2751 51.9598C97.2751 77.3098 76.7251 97.8598 51.3751 97.8598C26.0251 97.8598 5.47511 77.3098 5.47511 51.9598C5.47511 26.6098 26.0251 6.05982 51.3751 6.05982C76.7251 6.05982 97.2751 26.6098 97.2751 51.9598ZM51.3751 2.31982C78.7951 2.31982 101.015 24.5398 101.015 51.9598C101.015 79.3798 78.7851 101.6 51.3751 101.6C23.9551 101.6 1.73511 79.3698 1.73511 51.9598C1.73511 24.5398 23.9551 2.31982 51.3751 2.31982Z" fill="#F2F1F0"/>
<path fill-rule="evenodd" clip-rule="evenodd" d="M94.4649 51.9599C94.4649 75.7599 75.1749 95.0499 51.3749 95.0499C27.5749 95.0499 8.28492 75.7599 8.28492 51.9599C8.28492 28.1599 27.5749 8.86988 51.3749 8.86988C75.1749 8.86988 94.4649 28.1599 94.4649 51.9599ZM51.3749 5.12988C77.2349 5.12988 98.2049 26.0999 98.2049 51.9599C98.2049 77.8199 77.2349 98.7899 51.3749 98.7899C25.5149 98.7899 4.54492 77.8199 4.54492 51.9599C4.54492 26.0999 25.5049 5.12988 51.3749 5.12988Z" fill="url(#paint1_linear)"/>
<path d="M51.0547 32.4398C48.2847 32.4398 46.0247 30.1698 46.0247 27.3798C46.0247 24.5898 48.2847 22.3198 51.0547 22.3198C53.8247 22.3198 56.0847 24.5898 56.0847 27.3798C56.0847 30.1698 53.8247 32.4398 51.0547 32.4398ZM51.0547 24.3198C49.3847 24.3198 48.0247 25.6898 48.0247 27.3798C48.0247 29.0698 49.3847 30.4398 51.0547 30.4398C52.7247 30.4398 54.0847 29.0698 54.0847 27.3798C54.0847 25.6898 52.7247 24.3198 51.0547 24.3198Z" fill="url(#paint2_linear)"/>
<path d="M63.9246 80.5296H38.8246L36.1846 85.4496L34.4246 84.4996L41.7346 70.8896L43.4846 71.8496L39.8946 78.5296H62.8546L59.2646 71.8496L61.0246 70.8997L68.3346 84.5097L66.5746 85.4596L63.9246 80.5296Z" fill="url(#paint3_linear)"/>
<path d="M78.5746 32.79H24.1846V69.35H78.5746V32.79Z" fill="url(#paint4_linear)"/>
<path d="M23.4746 27.3696H79.2746C80.3746 27.3696 81.2746 28.2696 81.2746 29.3696V31.4596C81.2746 32.5596 80.3746 33.4596 79.2746 33.4596H23.4746C22.3746 33.4596 21.4746 32.5596 21.4746 31.4596V29.3696C21.4746 28.2696 22.3746 27.3696 23.4746 27.3696Z" fill="url(#paint5_linear)"/>
<path d="M23.1646 68.5796H79.5646C80.4946 68.5796 81.2546 69.3396 81.2546 70.2696C81.2546 71.1996 80.4946 71.9596 79.5646 71.9596H23.1646C22.2346 71.9696 21.4746 71.2096 21.4746 70.2796C21.4746 69.3396 22.2346 68.5796 23.1646 68.5796Z" fill="url(#paint6_linear)"/>
<path d="M78.5746 32.79H24.1846V69.35H78.5746V32.79Z" fill="white"/>
<path d="M23.4746 27.3696H79.2746C80.3746 27.3696 81.2746 28.2696 81.2746 29.3696V31.4596C81.2746 32.5596 80.3746 33.4596 79.2746 33.4596H23.4746C22.3746 33.4596 21.4746 32.5596 21.4746 31.4596V29.3696C21.4746 28.2696 22.3746 27.3696 23.4746 27.3696Z" fill="url(#paint7_linear)"/>
<path d="M23.1646 68.5796H79.5646C80.4946 68.5796 81.2546 69.3396 81.2546 70.2696C81.2546 71.1996 80.4946 71.9596 79.5646 71.9596H23.1646C22.2346 71.9696 21.4746 71.2096 21.4746 70.2796C21.4746 69.3396 22.2346 68.5796 23.1646 68.5796Z" fill="url(#paint8_linear)"/>
<path d="M52.1855 43.2201C53.1955 43.2201 54.0155 42.4001 54.0155 41.3901C54.0155 40.3801 53.1955 39.5601 52.1855 39.5601C51.1755 39.5601 50.3555 40.3801 50.3555 41.3901C50.3555 42.4001 51.1755 43.2201 52.1855 43.2201Z" fill="#CC52CC"/>
<path d="M60.9054 43.2201C61.9154 43.2201 62.7354 42.4001 62.7354 41.3901C62.7354 40.3801 61.9154 39.5601 60.9054 39.5601C59.8954 39.5601 59.0754 40.3801 59.0754 41.3901C59.0754 42.4001 59.8954 43.2201 60.9054 43.2201Z" fill="#660099"/>
<path d="M69.6154 43.2201C70.6254 43.2201 71.4454 42.4001 71.4454 41.3901C71.4454 40.3801 70.6254 39.5601 69.6154 39.5601C68.6054 39.5601 67.7854 40.3801 67.7854 41.3901C67.7854 42.4001 68.6054 43.2201 69.6154 43.2201Z" fill="#0071CC"/>
<path d="M52.1855 51.9603C53.1955 51.9603 54.0155 51.1403 54.0155 50.1303C54.0155 49.1203 53.1955 48.3003 52.1855 48.3003C51.1755 48.3003 50.3555 49.1203 50.3555 50.1303C50.3555 51.1403 51.1755 51.9603 52.1855 51.9603Z" fill="#16B2E6"/>
<path d="M60.9054 51.9603C61.9154 51.9603 62.7354 51.1403 62.7354 50.1303C62.7354 49.1203 61.9154 48.3003 60.9054 48.3003C59.8954 48.3003 59.0754 49.1203 59.0754 50.1303C59.0754 51.1403 59.8954 51.9603 60.9054 51.9603Z" fill="#00B3A7"/>
<path d="M69.6154 51.9603C70.6254 51.9603 71.4454 51.1403 71.4454 50.1303C71.4454 49.1203 70.6254 48.3003 69.6154 48.3003C68.6054 48.3003 67.7854 49.1203 67.7854 50.1303C67.7854 51.1403 68.6054 51.9603 69.6154 51.9603Z" fill="#59992D"/>
<path d="M52.1855 60.6903C53.1955 60.6903 54.0155 59.8703 54.0155 58.8603C54.0155 57.8503 53.1955 57.0303 52.1855 57.0303C51.1755 57.0303 50.3555 57.8503 50.3555 58.8603C50.3555 59.8703 51.1755 60.6903 52.1855 60.6903Z" fill="#9AE573"/>
<path d="M60.9054 60.6903C61.9154 60.6903 62.7354 59.8703 62.7354 58.8603C62.7354 57.8503 61.9154 57.0303 60.9054 57.0303C59.8954 57.0303 59.0754 57.8503 59.0754 58.8603C59.0754 59.8703 59.8954 60.6903 60.9054 60.6903Z" fill="#B15B27"/>
<path d="M69.6154 60.6903C70.6254 60.6903 71.4454 59.8703 71.4454 58.8603C71.4454 57.8503 70.6254 57.0303 69.6154 57.0303C68.6054 57.0303 67.7854 57.8503 67.7854 58.8603C67.7854 59.8703 68.6054 60.6903 69.6154 60.6903Z" fill="#FF8000"/>
<path d="M43.1252 59.6602H31.5752V58.2402C31.5752 57.6602 31.6552 57.1102 31.8152 56.6002C31.9752 56.0902 32.1952 55.6102 32.4752 55.1602C32.7452 54.7102 33.0652 54.2902 33.4352 53.8902C33.8052 53.4902 34.1952 53.1102 34.6152 52.7302C35.0352 52.3602 35.4652 52.0002 35.8952 51.6502C36.3352 51.3002 36.7552 50.9502 37.1752 50.6002C37.5652 50.2702 37.9252 49.9402 38.2552 49.6202C38.5752 49.3002 38.8552 48.9702 39.0852 48.6302C39.3152 48.2902 39.4952 47.9302 39.6252 47.5502C39.7552 47.1702 39.8152 46.7602 39.8152 46.3102C39.8152 45.8202 39.7352 45.4002 39.5952 45.0302C39.4452 44.6702 39.2352 44.3602 38.9652 44.1202C38.6952 43.8802 38.3752 43.6902 38.0052 43.5702C37.6352 43.4502 37.2352 43.3802 36.7952 43.3802C36.0452 43.3802 35.2752 43.5602 34.4952 43.9102C33.7152 44.2602 32.9652 44.7902 32.2452 45.4902V42.6302C32.6252 42.3502 33.0052 42.1002 33.3852 41.8902C33.7652 41.6802 34.1652 41.5002 34.5752 41.3602C34.9852 41.2202 35.4152 41.1102 35.8752 41.0502C36.3252 40.9802 36.8152 40.9502 37.3252 40.9502C38.1552 40.9502 38.9052 41.0602 39.5852 41.2802C40.2652 41.5002 40.8352 41.8202 41.3152 42.2402C41.7952 42.6602 42.1652 43.1902 42.4252 43.8302C42.6852 44.4602 42.8152 45.1902 42.8152 46.0102C42.8152 46.7502 42.7252 47.4202 42.5352 48.0202C42.3552 48.6102 42.0852 49.1702 41.7552 49.6802C41.4152 50.1902 41.0052 50.6802 40.5252 51.1402C40.0452 51.6002 39.5152 52.0802 38.9152 52.5602C38.4152 52.9602 37.9252 53.3502 37.4352 53.7302C36.9452 54.1102 36.4952 54.4802 36.1052 54.8502C35.7152 55.2102 35.3952 55.5802 35.1452 55.9402C34.9052 56.3002 34.7752 56.6702 34.7752 57.0402V57.1002H43.0752V59.6602H43.1252Z" fill="#0078D4"/>
<defs>
<linearGradient id="paint0_linear" x1="49.605" y1="-12.8297" x2="53.587" y2="132.94" gradientUnits="userSpaceOnUse">
<stop stop-color="#00ABDE"/>
<stop offset="1" stop-color="#007ED8"/>
</linearGradient>
<linearGradient id="paint1_linear" x1="2.80782" y1="-19.6647" x2="98.3348" y2="121.216" gradientUnits="userSpaceOnUse">
<stop stop-color="#007ED8"/>
<stop offset="0.7065" stop-color="#002D4C"/>
</linearGradient>
<linearGradient id="paint2_linear" x1="43.8115" y1="12.4451" x2="70.7406" y2="68.004" gradientUnits="userSpaceOnUse">
<stop stop-color="#007ED8"/>
<stop offset="0.7065" stop-color="#002D4C"/>
</linearGradient>
<linearGradient id="paint3_linear" x1="57.2867" y1="157.069" x2="45.9481" y2="17.8879" gradientUnits="userSpaceOnUse">
<stop stop-color="#007ED8"/>
<stop offset="0.7065" stop-color="#002D4C"/>
</linearGradient>
<linearGradient id="paint4_linear" x1="51.3845" y1="69.3485" x2="51.3845" y2="32.7884" gradientUnits="userSpaceOnUse">
<stop stop-color="#D2EBFF"/>
<stop offset="1" stop-color="#F0FFFD"/>
</linearGradient>
<linearGradient id="paint5_linear" x1="51.3746" y1="27.3816" x2="51.3746" y2="33.4635" gradientUnits="userSpaceOnUse">
<stop stop-color="#0099BE"/>
<stop offset="1" stop-color="#006E97"/>
</linearGradient>
<linearGradient id="paint6_linear" x1="51.3696" y1="68.5867" x2="51.3696" y2="71.9667" gradientUnits="userSpaceOnUse">
<stop stop-color="#0099BE"/>
<stop offset="1" stop-color="#006E97"/>
</linearGradient>
<linearGradient id="paint7_linear" x1="51.3746" y1="27.3816" x2="51.3746" y2="33.4635" gradientUnits="userSpaceOnUse">
<stop stop-color="#007ED8"/>
<stop offset="0.7065" stop-color="#002D4C"/>
</linearGradient>
<linearGradient id="paint8_linear" x1="51.3696" y1="68.5867" x2="51.3696" y2="71.9667" gradientUnits="userSpaceOnUse">
<stop stop-color="#007ED8"/>
<stop offset="0.7065" stop-color="#002D4C"/>
</linearGradient>
</defs>
</svg>
