<svg xmlns="http://www.w3.org/2000/svg" viewBox="0 0 20 20"><title>Forms_20x</title><rect width="20" height="20" fill="none"/><path d="M6,10v7.1a.9.9,0,0,0,.9.9H18.1a.9.9,0,0,0,.9-.9V10L13,8Z" fill="#036c70"/><path d="M18.1,2H6.9a.9.9,0,0,0-.9.9V10H19V2.9A.9.9,0,0,0,18.1,2Z" fill="#37c6d0"/><path d="M11.1,6H6V16h4.8A1.2,1.2,0,0,0,12,14.8V6.9A.9.9,0,0,0,11.1,6Z" opacity="0.5"/><rect x="1" y="5" width="10" height="10" rx="0.9" fill="#038387"/><rect x="13" y="12" width="4" height="4" fill="#1a9ba1"/><circle cx="15" cy="6" r="3" fill="#1a9ba1"/><circle cx="15" cy="6" r="2" fill="#036c70"/><path d="M7.613,7.975h-2.6V9.611H7.438v.971H5.015V13H3.839V7H7.613Z" fill="#fff"/></svg>