<svg id="Capa_1" data-name="Capa 1" xmlns="http://www.w3.org/2000/svg" viewBox="0 0 204.27 36.63"><defs><style>.cls-1{fill:#f15a32;}.cls-2{fill:#87868a;}</style></defs><path class="cls-1" d="M46,6.81a8.58,8.58,0,0,0-8.92,9,8.59,8.59,0,0,0,8.92,9,8.61,8.61,0,0,0,8.92-9A8.6,8.6,0,0,0,46,6.81Z" transform="translate(-5.06 -6.81)"/><path class="cls-2" d="M99.67,42.47V27.74c0-6.41-4.16-10.91-10-10.91a9.3,9.3,0,0,0-8.27,4.75H81a9,9,0,0,0-8.08-4.8A8,8,0,0,0,65.71,21h-.49V17.76H61.31V42.47h4.06V27.69c0-4.35,2.64-7.24,6.65-7.24,3.82,0,6.36,2.89,6.36,7.24V42.47h4.06V27.69c0-4.2,2.79-7.24,6.76-7.24,3.71,0,6.4,3,6.4,7.24V42.47Z" transform="translate(-5.06 -6.81)"/><path class="cls-2" d="M17.94,39.78C12.71,39.78,9,35.72,9,30.09s3.71-9.64,8.94-9.64a8.72,8.72,0,0,1,8.68,7.31h4a12.42,12.42,0,0,0-12.69-11c-7.56,0-12.88,5.53-12.88,13.31s5.32,13.36,12.88,13.36A12.45,12.45,0,0,0,30.69,32h-4C26,36.6,22.51,39.78,17.94,39.78Z" transform="translate(-5.06 -6.81)"/><path class="cls-2" d="M151.33,39.78c-5.38,0-9.2-4.06-9.2-9.69s3.82-9.64,9.2-9.64,9.2,4.06,9.2,9.64S156.66,39.78,151.33,39.78Zm0-23c-7.78,0-13.26,5.53-13.26,13.31s5.48,13.36,13.26,13.36,13.26-5.53,13.26-13.36S159.06,16.78,151.33,16.78Z" transform="translate(-5.06 -6.81)"/><path class="cls-2" d="M199.35,16.83a9.3,9.3,0,0,0-8.27,4.75h-.44a9,9,0,0,0-8.07-4.8A8,8,0,0,0,175.38,21h-.49V17.76H171V42.47H175V27.69c0-4.35,2.65-7.24,6.66-7.24,3.81,0,6.36,2.89,6.36,7.24V42.47h4.06V27.69c0-4.2,2.79-7.24,6.75-7.24,3.72,0,6.41,3,6.41,7.24V42.47h4.06V27.74C209.33,21.33,205.17,16.83,199.35,16.83Z" transform="translate(-5.06 -6.81)"/><path class="cls-2" d="M118.93,39.78c-5.23,0-8.93-4.06-8.93-9.69s3.7-9.64,8.93-9.64a8.74,8.74,0,0,1,8.69,7.31h4a12.41,12.41,0,0,0-12.69-11c-7.56,0-12.88,5.53-12.88,13.31s5.32,13.36,12.88,13.36A12.45,12.45,0,0,0,131.68,32h-4C127,36.6,123.51,39.78,118.93,39.78Z" transform="translate(-5.06 -6.81)"/></svg>