<svg id="Capa_1" data-name="Capa 1" xmlns="http://www.w3.org/2000/svg" viewBox="0 0 570.77 152.57"><defs><style>.cls-1{fill:#fff;}</style></defs><path class="cls-1" d="M125.93,9.69c-14.63,0-24.93,10.4-24.93,25s10.3,25.11,24.93,25.11,24.93-10.39,24.93-25.11S140.47,9.69,125.93,9.69Z" transform="translate(-11.55 -9.69)"/><path class="cls-1" d="M275.89,109.32V68.17c0-17.91-11.62-30.48-27.89-30.48A26,26,0,0,0,224.9,51h-1.23c-4-8.07-12.85-13.4-22.56-13.4A22.35,22.35,0,0,0,181,49.44h-1.37V40.28H168.71v69h11.35V68c0-12.16,7.38-20.23,18.59-20.23,10.67,0,17.77,8.07,17.77,20.23v41.29h11.35V68c0-11.75,7.79-20.23,18.87-20.23,10.39,0,17.9,8.48,17.9,20.23v41.29Z" transform="translate(-11.55 -9.69)"/><path class="cls-1" d="M47.52,101.8c-14.61,0-25-11.35-25-27.07s10.35-26.93,25-26.93c12.35,0,21.78,8.29,24.28,20.41H83C80.28,50,66.32,37.55,47.52,37.55c-21.11,0-36,15.45-36,37.18s14.86,37.32,36,37.32c19.24,0,33.42-13,35.63-32.06H72.05C70,92.92,60.31,101.8,47.52,101.8Z" transform="translate(-11.55 -9.69)"/><path class="cls-1" d="M420.25,101.8c-15,0-25.7-11.35-25.7-27.07s10.66-26.93,25.7-26.93,25.69,11.35,25.69,26.93S435.15,101.8,420.25,101.8Zm0-64.25c-21.74,0-37.05,15.45-37.05,37.18s15.31,37.32,37.05,37.32c21.59,0,37-15.44,37-37.32S441.84,37.55,420.25,37.55Z" transform="translate(-11.55 -9.69)"/><path class="cls-1" d="M554.44,37.69A26,26,0,0,0,531.33,51H530.1c-4-8.07-12.85-13.4-22.56-13.4a22.35,22.35,0,0,0-20.09,11.89h-1.37V40.28H475.14v69h11.35V68c0-12.16,7.38-20.23,18.59-20.23,10.66,0,17.77,8.07,17.77,20.23v41.29H534.2V68c0-11.75,7.79-20.23,18.87-20.23C563.45,47.8,571,56.28,571,68v41.29h11.35V68.17C582.32,50.26,570.7,37.69,554.44,37.69Z" transform="translate(-11.55 -9.69)"/><path class="cls-1" d="M329.71,101.8c-14.6,0-24.95-11.35-24.95-27.07S315.11,47.8,329.71,47.8c12.36,0,21.79,8.29,24.28,20.41h11.19c-2.7-18.23-16.67-30.66-35.47-30.66-21.1,0-36,15.45-36,37.18s14.87,37.32,36,37.32c19.25,0,33.43-13,35.64-32.06H354.24C352.17,92.92,342.51,101.8,329.71,101.8Z" transform="translate(-11.55 -9.69)"/><rect class="cls-1" x="147.29" y="133.26" width="3.33" height="19.31"/><polygon class="cls-1" points="188.28 147.56 180.12 133.26 175.94 133.26 175.94 152.57 179.28 152.57 179.28 138.22 187.47 152.57 191.62 152.57 191.62 133.26 188.28 133.26 188.28 147.56"/><polygon class="cls-1" points="214.78 136.3 220.84 136.3 220.84 152.57 224.17 152.57 224.17 136.3 230.26 136.3 230.26 133.26 214.78 133.26 214.78 136.3"/><polygon class="cls-1" points="256.78 144.11 265.94 144.11 265.94 141.06 256.78 141.06 256.78 136.3 266.99 136.3 266.99 133.26 253.43 133.26 253.43 152.57 267.25 152.57 267.25 149.52 256.78 149.52 256.78 144.11"/><path class="cls-1" d="M315.17,149c0,1.9-1.4,3-3.76,3h-5.14v-6h5.14C313.77,146,315.17,147.12,315.17,149Zm3.34,0c0-3.62-2.85-6.05-7.1-6.05h-8.47v19.31h3.33v-7.18H309l6.35,7.18h4.3l-6.72-7.37C316.23,154.46,318.51,152.12,318.51,149Z" transform="translate(-11.55 -9.69)"/><polygon class="cls-1" points="343.53 147.56 335.36 133.26 331.19 133.26 331.19 152.57 334.52 152.57 334.52 138.22 342.71 152.57 346.86 152.57 346.86 133.26 343.53 133.26 343.53 147.56"/><polygon class="cls-1" points="375.54 144.11 384.7 144.11 384.7 141.06 375.54 141.06 375.54 136.3 385.74 136.3 385.74 133.26 372.18 133.26 372.18 152.57 386 152.57 386 149.52 375.54 149.52 375.54 144.11"/><polygon class="cls-1" points="408 136.3 414.06 136.3 414.06 152.57 417.39 152.57 417.39 136.3 423.48 136.3 423.48 133.26 408 133.26 408 136.3"/></svg>