<svg xmlns="http://www.w3.org/2000/svg" viewBox="0 0 20 20"><title>Outlook_20x</title><path d="M18.806,9.522h0L18.8,9.517h0l-6.3-3.591a.8.8,0,0,0-.085-.048.869.869,0,0,0-.388-.091h-.04a.869.869,0,0,0-.388.091.8.8,0,0,0-.085.048L6.2,9.516h0l-.008.005h0a.387.387,0,0,0-.009.665v0L12,15l6.815-4.81v0a.387.387,0,0,0-.009-.665Z" fill="#0a2767"/><path d="M17,2H8A1,1,0,0,0,7,3H7l5,2,6-2h0A1,1,0,0,0,17,2Z" fill="#0364b8"/><polygon points="12 3 7 3 7 9 11.992 15.008 17.992 15.008 17.992 8.992 12 3" fill="#28a8ea"/><rect x="12" y="3" width="6" height="6" fill="#50d9ff"/><polygon points="11.992 15.008 7 15 7 9 12 9 11.992 15.008" fill="#0078d4"/><path d="M12,15,6.218,10.174l.5-.885s5.191,3.518,5.3,3.577c.061-.032,6.3-3.582,6.3-3.582l.49.908Z" fill="#0a2767" opacity="0.5"/><path d="M18.815,10.187v0l-6.314,3.6a.868.868,0,0,1-.472.139h-.058a.85.85,0,0,1-.243-.035L14,17l4.643.83a.873.873,0,0,0,.357-.7V9.857A.386.386,0,0,1,18.815,10.187Z" fill="#1490df"/><path d="M13.039,13.48l-.538.307a.868.868,0,0,1-.472.139h-.058a.85.85,0,0,1-.243-.035L14,17l4.643.83a.873.873,0,0,0,.357-.7v-.274Z" opacity="0.1"/><path d="M6.185,10.19v0A.386.386,0,0,1,6,9.857v7.27A.877.877,0,0,0,6.875,18h11.25a.877.877,0,0,0,.506-.161l.012-.008h0l.024-.018Z" fill="#28a8ea"/><path d="M12,14V7a1,1,0,0,0-1-1H6v4.651l-.815-.461v0C5.074,10.119,6,10,6,9.857V16h4A2,2,0,0,0,12,14Z" opacity="0.5"/><rect x="1" y="5" width="10" height="10" rx="1" fill="#0078d4"/><path d="M3.2,8.366A2.749,2.749,0,0,1,4.316,7.2a3.515,3.515,0,0,1,1.772-.421,3.274,3.274,0,0,1,1.64.4A2.72,2.72,0,0,1,8.813,8.292a3.448,3.448,0,0,1,.38,1.64A3.63,3.63,0,0,1,8.8,11.647,2.786,2.786,0,0,1,7.684,12.8a3.405,3.405,0,0,1-1.7.41,3.351,3.351,0,0,1-1.676-.4,2.773,2.773,0,0,1-1.1-1.117,3.361,3.361,0,0,1-.385-1.62A3.719,3.719,0,0,1,3.2,8.366ZM4.39,11.105a1.755,1.755,0,0,0,.627.767,1.7,1.7,0,0,0,.98.28,1.79,1.79,0,0,0,1.046-.288,1.693,1.693,0,0,0,.609-.77,2.829,2.829,0,0,0,.2-1.071,3.1,3.1,0,0,0-.183-1.084,1.717,1.717,0,0,0-.589-.8,1.679,1.679,0,0,0-1.037-.3,1.761,1.761,0,0,0-1,.282,1.784,1.784,0,0,0-.641.774,2.915,2.915,0,0,0,0,2.212Z" fill="#fff"/></svg>