<svg xmlns="http://www.w3.org/2000/svg" viewBox="0 0 20 20"><title>Teams_20x</title><path d="M18.012,8,13.99,8l-1.2.863v4.268A2.977,2.977,0,0,0,15.86,16a2.977,2.977,0,0,0,3.074-2.869V8.863A.893.893,0,0,0,18.012,8Z" fill="#5059c9"/><circle cx="17" cy="5" r="2" fill="#5059c9"/><path d="M6.82,8h7.36a.82.82,0,0,1,.82.82V14.5A4.5,4.5,0,0,1,10.5,19h0A4.5,4.5,0,0,1,6,14.5V8.82A.82.82,0,0,1,6.82,8Z" fill="#7b83eb"/><path d="M13.99,4A3,3,0,1,1,11,1,2.991,2.991,0,0,1,13.99,4Z" fill="#7b83eb"/><path d="M6,8.82V14.5A4.435,4.435,0,0,0,6.259,16H9.991A2.006,2.006,0,0,0,12,14V8H6.82A.82.82,0,0,0,6,8.82Z" opacity="0.5"/><path d="M8.779,6a2.906,2.906,0,0,0,3.165.833A1.065,1.065,0,0,0,10.932,6Z" opacity="0.5"/><path d="M6,8.82V14.5A4.43,4.43,0,0,0,6.25,16H9.991A2.006,2.006,0,0,0,12,14V8H6.82A.82.82,0,0,0,6,8.82Z" opacity="0.1"/><path d="M8.779,6a2.906,2.906,0,0,0,3.165.833A1.065,1.065,0,0,0,10.932,6Z" opacity="0.1"/><rect x="1" y="5" width="10" height="10" rx="1" fill="#4b53bc"/><path d="M8.625,8h-2v5h-1V8h-2V7h5Z" fill="#fff"/></svg>